<?xml version="1.0" encoding="UTF-8" standalone="no"?>
<!-- Created with Inkscape (http://www.inkscape.org/) -->

<svg
   version="1.1"
   id="svg2"
   width="687.42133"
   height="536.23999"
   viewBox="0 0 687.42133 536.23999"
   sodipodi:docname="4.ai"
   xmlns:inkscape="http://www.inkscape.org/namespaces/inkscape"
   xmlns:sodipodi="http://sodipodi.sourceforge.net/DTD/sodipodi-0.dtd"
   xmlns="http://www.w3.org/2000/svg"
   xmlns:svg="http://www.w3.org/2000/svg">
  <defs
     id="defs6">
    <clipPath
       clipPathUnits="userSpaceOnUse"
       id="clipPath16">
      <path
         d="M 0,402.18 H 515.566 V 0 H 0 Z"
         id="path14" />
    </clipPath>
  </defs>
  <sodipodi:namedview
     id="namedview4"
     pagecolor="#ffffff"
     bordercolor="#000000"
     borderopacity="0.25"
     inkscape:showpageshadow="2"
     inkscape:pageopacity="0.0"
     inkscape:pagecheckerboard="0"
     inkscape:deskcolor="#d1d1d1" />
  <g
     id="g8"
     inkscape:groupmode="layer"
     inkscape:label="4"
     transform="matrix(1.3333333,0,0,-1.3333333,0,536.24)">
    <g
       id="g10">
      <g
         id="g12"
         clip-path="url(#clipPath16)">
        <g
           id="g18"
           transform="translate(343.6733,295.3658)">
          <path
             d="m 0,0 c 0.604,-1.323 2.349,-1.979 5.943,-1.447 10.05,1.485 24.161,8.61 32.633,13.088 10.187,11.31 19.136,23.457 22.854,33.636 5.475,14.991 -0.159,19.2 -13.035,10.067 C 42.735,51.329 36.996,47.193 31.421,42.554 25.568,37.683 -4.099,8.988 0,0 m -116.811,-13.012 c 7.331,13.202 20.226,32.168 28.674,38.929 4.774,3.822 9.718,-0.24 7.666,-7.452 -0.876,-3.079 -1.262,-2.478 -3.522,-2.967 -5.402,-1.169 -18.598,-33.661 -19.643,-40.317 -1.007,-6.41 -1.57,-6.92 4.201,-5.235 19.59,5.72 41.056,19.622 50.31,28.705 2.52,2.475 2.012,1.211 3.437,3.607 1.917,3.224 3.639,4.611 6.259,5.606 4.629,1.759 2.694,-3.903 0.241,-6.793 -6.536,-7.698 -11.492,-18.475 -12.887,-27.269 -1.03,-6.489 -0.315,-13.249 2.997,-15.014 14.577,-7.773 56.045,23.741 69.063,36.043 -7.317,-3.716 -23.707,-13.619 -29.913,-13.619 -15.684,-0.002 -11.011,23.723 -7.048,32.892 10.532,24.36 45.97,61.225 72.956,67.632 4.702,1.116 8.917,0.778 11.649,-2.44 2.979,-3.513 2.784,-9.638 3.99,-18.676 1.125,-8.425 -6.597,-23.456 -18.729,-40.355 3.161,2.124 6.529,4.503 10.381,7.281 3.444,3.634 6.908,6.55 10.285,8.307 10.465,5.446 8.013,-8.933 6.979,-9.864 -1.491,-1.344 -3.91,-3.072 -7.35,-6.178 -5.923,-5.347 -25.773,-37.369 -22.308,-41.847 8.073,-10.432 75.148,25.268 86.154,33.568 4.44,3.347 8.078,7.429 3.726,0.034 -2.692,-4.571 -9.278,-8.379 -13.123,-15.131 l -0.6,-4.772 c -15.047,-11.745 -59.367,-49.735 -79.282,-48.035 -5.712,0.488 -9.094,3.909 -13.016,8.436 -7.132,8.788 -6.326,17.17 -2.792,26.303 4.476,11.564 12.602,24.222 19.698,34.476 -2.86,-1.965 -5.773,-3.856 -8.729,-5.678 -31.16,-41.421 -80.674,-82.8 -96.45,-77.192 -4.222,1.5 -8.301,11.153 -9.789,19.451 -2.347,13.088 4.633,25.258 10.544,38.733 -14.546,-15.92 -51.545,-54.603 -63.689,-48.685 -11.659,5.683 -8.92,29.042 -4.562,39.148 0.98,2.274 2.436,5.15 4.222,8.368 m 49.782,52.455 c 10.151,6.535 20.171,13.002 31.438,16.796 3.214,1.082 6.258,1.047 4.39,5.129 -0.768,1.677 -1.582,3.355 -2.266,5.028 -2.392,5.86 -8.35,4.643 -13.108,1.85 l -5.969,-3.504 -1.557,0.282 c -1.951,0.814 -3.627,0.406 -5.136,-0.629 -4.189,-2.874 -14.847,-18.731 -17.631,-23.304 l 0.111,-3.724 c -3.538,0.946 -2.149,-2.847 -0.806,-4.508 1.418,-1.756 2.63,-1.297 3.49,-0.051 3.21,4.652 1.83,3.278 7.044,6.635 m 89.124,-172.756 c 16.459,19.36 37.975,36.208 46.508,30.496 9.92,-16.028 -85.016,-117.689 -82.807,-96.174 0.274,18.021 23.803,50.979 36.299,65.678 m -3.795,26.907 c 12.985,12.591 26.714,21.915 39.361,23.829 5.974,0.189 11.083,-2.256 13.603,-9.495 3.051,-8.767 5.319,-15.402 4.919,-21.511 -0.306,-4.666 -5.817,-18.128 -8.084,-22.275 1.362,1.239 0.425,1.642 2.319,1.821 2.729,0.259 4.948,-3.885 6.669,-8.491 l -1.87,-3.727 -11.361,-22.626 c -1.954,-4.869 -6.916,-11.401 2.058,-9.659 17.788,3.456 72.169,34.444 89.214,49.068 4.165,3.573 6.958,3.944 4.781,-2.192 -10.11,-28.51 -88.641,-87.549 -106.267,-81.246 -4.893,1.748 -10.735,16.318 -11.343,21.357 -0.614,5.079 0.479,9.924 3.137,15.663 0.796,1.723 1.735,3.525 2.811,5.439 4.16,7.409 1.781,2.21 5.649,9.807 -14.277,-15.837 -60.138,-66.464 -75.013,-66.69 -5.049,-0.254 -9.711,2.924 -14.034,11.697 -4.985,10.111 -2.699,23.733 0.793,32.678 3.261,8.361 9.285,19.036 13.713,27.031 1.433,2.376 3.368,5.313 6.241,9.335 -8.372,-10.472 -8.538,-11.096 -12.332,-16.074 -6.806,-8.135 -14.241,-17.309 -20.528,-24.707 -5.279,-6.211 -14.914,-18.992 -24.073,-17.334 -10.321,1.87 -15.923,18.177 -14.031,28.406 2.807,10.176 8.076,24.511 12.092,34.147 -18.097,-26.287 -44.942,-65.201 -61.154,-76.98 -8.441,-6.132 -13.633,-8.669 -20.687,-0.058 -4.209,5.137 -5.793,12.882 -5.604,19.615 0.149,5.322 3.575,15.624 7.265,24.478 -14.289,-18.298 -43.141,-51.834 -53.158,-50.794 -7.431,1.124 -13.922,18.338 -13.594,25.608 0.526,11.661 19.259,38.383 26.933,49.888 l -9.094,-10.123 c -8.853,-8.668 -17.887,-5.945 -22.168,8.544 19.154,-2.09 23.22,2.882 43.927,13.453 l -0.002,-0.017 c 6.025,2.706 6.492,-7.44 5.262,-10.408 -0.992,-2.396 -1.581,-3.318 -3.213,-2.737 -4.742,-5.689 -24.676,-38.512 -22.054,-45.505 3.566,-9.509 49.375,31.42 54.61,37.254 l 0.867,0.978 c 3.106,4.678 6.889,11.736 10.356,14.451 4.672,3.66 7.469,0.072 3.585,-6.478 -1.894,-3.194 -4.003,-3.882 -5.897,-7.076 -4.625,-8.116 -7.415,-12.386 -9.162,-18.493 -1.076,-3.765 -5.106,-17.82 0.962,-18.454 22.157,-2.316 73.915,65.494 90.102,92.58 2.63,4.401 6.206,7.683 9.872,5.341 6.002,-3.833 12.381,-19.155 9.009,-22.195 -6.947,-4.356 -36.457,-53.218 -30.096,-58.455 1.413,-1.163 4.941,0.582 9.009,2.96 27.411,16.025 52.166,45.553 75.7,68.372 m -167.376,-15.554 c 1.389,-1.128 1.15,-2.35 -4.597,-5.9 -4.148,-2.562 -8.798,-7.54 -12.519,-9.456 -3.219,-1.656 -6.034,0.149 -7.126,2.941 -0.68,1.737 -0.694,3.857 0.275,5.763 4.638,9.126 15.391,32.148 26.566,18.727 8.416,-10.105 -7.493,-8.102 -2.599,-12.075 m -79.022,-19.225 c -22.77,-42.285 -44.034,-84.611 -55.436,-124.456 -0.732,-2.56 -2.284,-15.013 -2.331,-15.117 -0.683,-1.527 -3.779,-1.628 -7.98,2.623 -4.431,4.486 -8.326,10.937 -10.82,16.697 -8.085,18.669 39.066,93.554 68.944,137.351 l 16.558,10.653 c -28.114,-9.371 -55.225,-19.72 -81.886,-32.801 -7.33,-3.597 -14.252,-7.458 -20.659,-11.651 l 3.731,1.623 10.358,3.917 c 5.145,1.944 2.544,-0.632 -0.449,-2.092 l -18.167,-8.862 c -12.95,-7.27 -6.552,7.241 -4.154,13.704 3.775,10.176 7.819,20.538 17.389,23.624 33.143,10.686 63.774,19.416 94.31,26.165 2.821,3.877 5.838,7.409 8.919,11.082 6.428,7.666 10.338,10.966 15.644,-1.031 -2.453,-1.49 -4.899,-3.717 -7.312,-6.451 27.606,5.418 55.505,9.219 85.473,11.382 14.824,1.069 11.673,-6.634 -0.745,-7.678 -30.56,-2.57 -63.29,-9.339 -95.445,-18.989 -6.079,-10.199 -11.584,-21.6 -15.942,-29.693 m -84.411,66.364 c -5.989,-4.739 -8.743,-2.603 -9.381,0.049 -0.599,2.495 0.706,5.352 1.909,6.261 2.853,7.823 6.427,9.106 8.726,7.127 5.597,-4.821 2.496,-9.186 -1.254,-13.437 m -11.96,16.81 c 0.696,0.73 2.996,2.952 1.88,3.487 0.331,1.748 -0.516,2.704 -1.872,1.177 l -0.048,-0.055 c -0.116,-0.134 -0.234,-0.286 -0.357,-0.456 l -0.015,-0.021 -0.158,-0.077 -0.149,-0.077 -0.41,-0.234 c -0.577,-0.356 -1.024,-0.756 -1.354,-1.169 -0.402,-0.503 -0.632,-1.025 -0.724,-1.511 -0.337,-1.784 1.21,-3.079 3.126,-1.146 z m 17.867,-11.715 c -0.561,-0.406 -1.451,-0.823 -1.943,-2.847 -0.536,-2.197 1.227,-2.778 2.931,-2.382 1.795,0.417 4.226,2.819 4.392,4.981 0.14,1.824 -1.132,1.573 -2.395,0.905 -0.708,-0.374 -0.949,-0.729 -1.223,-0.511 -0.926,0.737 -1.207,0.257 -1.762,-0.146 m 323.22,-21.061 c -3.213,-3.859 0.522,-8.856 5.67,-2.778 0.347,0.41 2.867,5.954 3.454,7.097 0.735,1.43 -2.162,-1.113 10.904,9.507 1.717,1.396 1.992,2.526 -0.27,2.12 -4.649,-0.836 -9.834,-2.528 -9.904,-6.676 -0.118,-7.018 -5.799,-4.398 -9.854,-9.27 m 128.029,-83.486 c -4.245,-1.681 -5.916,-4.539 -6.538,-7.816 -1.412,-7.439 3.436,-6.151 9.201,-4.722 3.494,0.866 5.461,1.852 3.644,5.756 -1.305,2.802 -0.536,2.331 2.089,4.866 5.74,5.546 1.917,5.995 -4.205,3.573 z M -262.314,19.652 c 24.909,16.714 119.147,74.7 144.029,58.287 2.226,-3.441 1.2,-10.99 -1.213,-19.49 -13.008,-45.824 -48.919,-83.212 -88.804,-107.866 -8.305,-4.419 -16.119,-7.97 -23.796,-10.325 3.086,6.045 6.022,12.36 9.182,18.451 13.383,25.25 25.609,46.281 42.36,66.751 6.467,7.901 13.135,15.175 20.523,22.464 4.49,0.404 5.6,-0.371 7.209,4.069 1.258,3.472 4.868,18.3 -3.489,14.368 -8.254,-3.882 -12.772,-7.261 -19.86,-14.011 -28.024,-26.687 -77.705,-88.363 -70.875,-104.167 1.814,-3.017 4.105,-7.217 6.936,-10.389 4.505,-5.045 4.979,-2.883 7.789,1.841 -0.319,-2.571 -0.448,-7.803 -3.152,-8.806 -3.218,-1.194 -8.324,3.903 -11.139,6.629 -13.069,-1.519 -24.85,1.015 -40.064,9.253 -9.27,5.02 -5.607,-0.49 -1.533,-4.663 l 5.312,-5.44 c -1.58,-5.35 -2.351,-16.646 2.175,-20.769 25.939,-23.625 89.886,15.318 115.354,37.533 27.012,23.561 45.257,48.226 59.121,80.653 5.869,13.727 9.636,27.884 7.008,39.289 -1.75,7.597 -7.863,17.489 -15.144,20.576 -8.646,3.666 -20.335,3.921 -32.567,2.414 -42.728,-5.266 -99.281,-31.542 -134.836,-57.354 -5.732,-4.16 -6.934,-11.934 -9.051,-18.623 -1.463,-4.618 -2.619,-9.368 -3.467,-14.246 0.6,-9.163 4.539,-11.924 12.841,-5.457 l 18.703,13.046 c 4.024,2.773 3.417,3.715 -0.039,3.544 -2.836,-0.141 -0.897,1.509 0.487,2.438"
             style="fill:#ffd700;fill-opacity:1;fill-rule:evenodd;stroke:none"
             id="path20" />
        </g>
        <g
           id="g22"
           transform="translate(481.7827,113.2765)">
          <path
             d="m 0,0 c 0.622,3.277 2.293,6.136 6.538,7.816 l 4.191,1.658 C 16.851,11.896 20.674,11.446 14.934,5.9 12.309,3.365 11.54,3.836 12.845,1.034 14.662,-2.87 12.694,-3.855 9.2,-4.722 3.436,-6.15 -1.412,-7.438 0,0 m -293.665,185.417 c 13.846,16.818 24.681,35.852 30.586,56.656 1.118,3.938 1.91,7.589 2.155,10.555 -5.468,1.624 -13.81,0.506 -23.734,-2.375 l 0.178,-0.372 c 1.293,-2.828 2.688,-7.016 2.657,-10.005 -0.046,-4.377 -1.46,-9.72 -2.194,-11.746 -2.586,-7.136 -4.52,-7.357 -10.053,-7.659 -2.366,-2.367 -4.668,-4.752 -6.914,-7.157 -2.71,-2.902 -5.273,-5.766 -7.708,-8.604 l -0.244,-0.261 -0.017,-0.045 -0.617,-0.727 c -9.039,-10.644 -16.72,-21.368 -23.878,-32.711 -6.998,-11.09 -13.543,-22.847 -20.388,-35.73 1.551,0.779 3.136,1.6 4.756,2.462 l 0.002,-0.005 c 20.472,12.696 39.84,28.809 55.413,47.724 m 124.354,58.04 c 1.869,-4.082 -1.175,-4.046 -4.389,-5.128 -11.268,-3.794 -21.287,-10.262 -31.439,-16.797 -5.214,-3.357 -3.834,-1.983 -7.044,-6.635 -0.859,-1.245 -2.071,-1.705 -3.49,0.051 -1.343,1.661 -2.731,5.454 0.807,4.509 l -0.112,3.723 c 2.785,4.573 13.443,20.43 17.631,23.304 1.51,1.035 3.186,1.443 5.137,0.63 l 1.557,-0.283 5.968,3.504 c 4.758,2.793 10.716,4.011 13.109,-1.85 0.683,-1.673 1.498,-3.351 2.265,-5.028 m -85.609,-74.38 c -1.787,-3.218 -3.242,-6.094 -4.222,-8.368 -4.358,-10.105 -7.097,-33.465 4.562,-39.147 12.143,-5.919 49.143,32.764 63.688,48.685 -5.911,-13.476 -12.89,-25.646 -10.544,-38.733 1.489,-8.299 5.568,-17.952 9.79,-19.452 15.776,-5.608 65.29,35.771 96.45,77.192 2.956,1.823 5.869,3.713 8.728,5.679 -7.095,-10.255 -15.221,-22.913 -19.697,-34.477 -3.534,-9.132 -4.341,-17.515 2.792,-26.302 3.922,-4.528 7.304,-7.948 13.016,-8.436 19.915,-1.701 64.235,36.289 79.282,48.034 l 0.599,4.772 c 3.845,6.752 10.432,10.56 13.123,15.132 4.353,7.394 0.714,3.313 -3.725,-0.035 -11.006,-8.3 -78.081,-44 -86.154,-33.567 -3.465,4.478 16.384,36.5 22.307,41.846 3.441,3.107 5.86,4.834 7.351,6.178 1.034,0.931 3.486,15.31 -6.98,9.864 -3.377,-1.757 -6.841,-4.673 -10.285,-8.306 -3.851,-2.779 -7.22,-5.157 -10.381,-7.282 12.133,16.899 19.855,31.93 18.73,40.355 -1.206,9.039 -1.011,15.164 -3.99,18.676 -2.732,3.219 -6.948,3.556 -11.649,2.44 -26.986,-6.407 -62.425,-43.272 -72.956,-67.632 -3.964,-9.169 -8.637,-32.893 7.048,-32.892 6.206,0.001 22.596,9.904 29.913,13.619 -13.019,-12.302 -54.486,-43.816 -69.063,-36.043 -3.312,1.766 -4.028,8.525 -2.998,15.014 1.396,8.794 6.352,19.571 12.887,27.27 2.453,2.889 4.389,8.551 -0.24,6.793 -2.62,-0.996 -4.343,-2.382 -6.26,-5.607 -1.425,-2.396 -0.917,-1.132 -3.436,-3.606 -9.254,-9.084 -30.72,-22.986 -50.31,-28.706 -5.771,-1.685 -5.208,-1.175 -4.202,5.235 1.046,6.656 14.242,39.148 19.643,40.317 2.26,0.49 2.647,-0.112 3.523,2.968 2.052,7.212 -2.893,11.274 -7.666,7.452 -8.448,-6.761 -21.344,-25.727 -28.674,-38.93 M -311.428,47.715 c 1.093,-2.793 3.908,-4.598 7.126,-2.942 3.722,1.916 8.371,6.894 12.52,9.456 5.746,3.551 5.986,4.772 4.597,5.9 -4.894,3.974 11.015,1.97 2.599,12.075 -11.175,13.421 -21.929,-9.601 -26.567,-18.727 -0.968,-1.906 -0.954,-4.025 -0.275,-5.762 m -33.507,14.051 c 12.475,3.691 25.026,6.939 37.492,9.667 -3.113,-4.332 -5.669,-9.242 -7.581,-13.023 l -10.989,-12.232 c -1.841,-0.978 -3.605,-1.931 -5.256,-2.823 -10.836,-5.856 -16.022,-8.659 -27.668,-7.872 1.184,2.229 2.492,4.762 3.869,7.43 3.083,5.972 6.53,12.648 10.133,18.853 m 233.297,38.806 c 0.071,4.149 5.255,5.841 9.905,6.676 2.261,0.407 1.987,-0.724 0.27,-2.12 -13.066,-10.619 -10.17,-8.076 -10.904,-9.506 -0.587,-1.144 -3.108,-6.687 -3.454,-7.098 -5.149,-6.078 -8.883,-1.081 -5.67,2.779 4.054,4.872 9.735,2.251 9.853,9.269 M -283.405,-12.92 c -6.068,0.634 -2.038,14.69 -0.962,18.454 1.747,6.108 4.537,10.377 9.162,18.493 1.894,3.195 4.003,3.882 5.897,7.077 3.883,6.549 1.087,10.137 -3.585,6.477 -3.468,-2.715 -7.251,-9.772 -10.357,-14.451 l -0.866,-0.978 c -5.236,-5.834 -51.044,-46.762 -54.61,-37.254 -2.623,6.994 17.311,39.817 22.054,45.505 1.631,-0.581 2.221,0.341 3.213,2.738 1.23,2.967 0.762,13.113 -5.263,10.408 l 0.002,0.016 c -20.706,-10.571 -24.773,-15.543 -43.926,-13.453 4.28,-14.489 13.315,-17.212 22.167,-8.544 l 9.094,10.123 c -7.674,-11.504 -26.406,-38.227 -26.932,-49.887 -0.329,-7.271 6.163,-24.485 13.593,-25.609 10.017,-1.04 38.87,32.496 53.159,50.794 -3.691,-8.853 -7.116,-19.156 -7.266,-24.477 -0.188,-6.734 1.395,-14.479 5.604,-19.616 7.055,-8.611 12.247,-6.074 20.687,0.058 16.212,11.779 43.058,50.693 61.154,76.981 -4.015,-9.636 -9.284,-23.972 -12.092,-34.148 -1.891,-10.228 3.71,-26.536 14.032,-28.405 9.159,-1.658 18.794,11.122 24.073,17.334 6.287,7.397 13.722,16.571 20.527,24.707 3.794,4.977 3.96,5.601 12.332,16.073 -2.873,-4.021 -4.807,-6.959 -6.24,-9.335 -4.429,-7.995 -10.452,-18.67 -13.714,-27.031 -3.491,-8.944 -5.777,-22.567 -0.793,-32.678 4.324,-8.772 8.986,-11.951 14.034,-11.697 14.875,0.226 60.737,50.853 75.013,66.69 -3.867,-7.596 -1.488,-2.397 -5.648,-9.806 -1.076,-1.914 -2.015,-3.717 -2.812,-5.44 -2.657,-5.739 -3.751,-10.584 -3.137,-15.663 0.609,-5.039 6.451,-19.608 11.343,-21.356 17.626,-6.304 96.157,52.735 106.268,81.245 2.177,6.137 -0.616,5.765 -4.781,2.193 C -0.026,37.993 -54.407,7.005 -72.195,3.55 c -8.974,-1.742 -4.012,4.789 -2.058,9.658 l 11.36,22.626 1.871,3.728 c -1.721,4.605 -3.94,8.75 -6.669,8.491 -1.894,-0.18 -0.957,-0.582 -2.32,-1.822 2.268,4.147 7.779,17.609 8.084,22.275 0.401,6.11 -1.867,12.744 -4.919,21.511 -2.519,7.24 -7.629,9.684 -13.602,9.495 -12.648,-1.913 -26.376,-11.238 -39.362,-23.828 -23.534,-22.819 -48.289,-52.348 -75.7,-68.372 -4.067,-2.378 -7.595,-4.124 -9.009,-2.96 -6.36,5.236 23.15,54.099 30.097,58.454 3.371,3.04 -3.008,18.362 -9.01,22.195 -3.666,2.342 -7.242,-0.94 -9.872,-5.341 -16.186,-27.086 -67.944,-94.895 -90.101,-92.58 m 2.625,89.395 c 9.483,1.5 18.844,2.652 28.006,3.423 6.315,0.531 11.094,2.711 13.413,5.085 1.56,1.596 2.394,3.478 2.43,5.504 0.031,1.73 -0.488,3.308 -1.593,4.657 -0.133,2.115 -1.135,3.98 -3.074,5.436 -2.295,1.723 -6.548,2.812 -12.877,2.355 -14.987,-1.081 -29.567,-2.587 -43.957,-4.514 -9.627,-1.289 -19.051,-2.75 -28.343,-4.38 l -0.258,0.583 c -1.68,3.799 -3.421,6.53 -5.276,8.356 13.68,8.071 25.885,16.99 34.144,24.194 13.149,11.469 24.275,23.201 33.86,35.929 l -0.064,-0.147 c -2.813,-6.525 -5.027,-17.962 -3.895,-27.669 0.432,-3.715 1.34,-7.237 2.855,-10.295 1.674,-5.493 4.792,-10.065 9.916,-12.563 8.661,-4.221 23.013,4.71 37.148,16.976 3.633,3.152 7.291,6.53 10.837,9.936 -0.184,-2.874 -0.052,-5.806 0.49,-8.828 0.762,-4.251 2.139,-8.829 3.864,-12.711 0.715,-2.062 1.533,-4.038 2.425,-5.809 2.28,-4.531 5.281,-8.067 8.771,-9.307 9.701,-3.449 27.352,5.454 46.508,20.786 10.14,8.115 20.916,18.072 31.232,28.884 -0.243,-1.823 -0.328,-3.649 -0.222,-5.492 0.193,-3.388 1.01,-6.731 2.637,-10.065 1.032,-3.426 2.832,-6.828 5.606,-10.243 l 0.11,-0.133 c 2.218,-2.56 4.307,-4.825 6.793,-6.623 2.856,-2.065 6.035,-3.428 10.047,-3.771 19.754,-1.686 57.337,28.477 76.696,44.013 2.752,2.209 5.152,4.135 6.546,5.223 l 1.84,1.436 0.739,5.882 c 1.699,2.624 4.066,4.885 6.225,6.947 2.455,2.345 4.7,4.49 6.319,7.24 2.909,4.942 3.683,12.737 -1.711,15.909 -3.691,2.173 -6.1,0.187 -9.334,-2.476 -0.681,-0.561 -1.461,-1.203 -2.576,-2.045 -6.553,-4.942 -33.785,-19.973 -55.731,-28.524 -7.838,-3.054 -14.654,-5.411 -18.704,-6.212 1.043,1.75 2.351,3.992 3.706,6.532 5.271,9.888 12.663,20.972 15.688,23.704 2.05,1.85 3.64,3.13 4.899,4.144 1,0.805 1.831,1.473 2.453,2.033 1.153,1.04 3.17,6.517 2.836,10.844 -0.129,1.676 -0.505,3.374 -1.245,4.898 -0.182,0.377 -0.384,0.74 -0.606,1.088 -0.207,1.011 -0.522,2.002 -0.972,2.928 -1.001,2.061 -2.563,3.719 -4.882,4.629 -1.394,0.547 -2.966,0.77 -4.733,0.556 2.124,5.598 3.054,10.57 2.51,14.648 -1.118,8.372 -1.048,14.116 -4.683,22.171 -0.555,1.233 -1.262,2.378 -2.178,3.458 -2.305,2.717 -5.185,4.21 -8.443,4.779 -2.803,0.492 -5.796,0.255 -8.853,-0.471 -13.694,-3.251 -29.143,-13.526 -42.755,-26.146 -15.125,-14.021 -28.211,-31.172 -34.093,-44.777 -2.082,-4.817 -4.339,-13.222 -4.338,-20.795 0,-3.738 0.521,-7.35 1.813,-10.431 0.221,-0.529 0.465,-1.043 0.73,-1.54 0.234,-0.857 0.516,-1.684 0.848,-2.477 1.245,-2.967 3.15,-5.454 5.895,-7.18 -2.635,-1.603 -5.274,-3.107 -7.866,-4.46 -8.405,-4.387 -15.938,-7.162 -20.125,-6.122 -0.095,1.718 0.026,3.636 0.33,5.549 0.621,3.91 2.075,8.335 4.131,12.685 2.014,4.263 4.583,8.383 7.488,11.805 1.71,2.015 3.272,5.046 3.737,7.469 0.593,3.099 -0.861,5.45 -1.743,8.231 -1.424,4.5 -5.991,5.676 -10.151,4.096 -1.928,-0.733 -3.563,-1.641 -5.128,-3.013 -1.476,-1.294 -2.754,-2.884 -4.022,-5.019 -0.288,-0.483 0.114,-0.182 -0.061,-0.313 -0.493,-0.369 -1.217,-0.911 -2.465,-2.136 -4.718,-4.633 -12.921,-10.656 -22.476,-16.108 -5.907,-3.37 -12.276,-6.49 -18.592,-8.889 1.883,5.144 4.683,11.853 7.559,17.756 2.823,5.794 5.152,10.409 5.402,10.462 0.216,0.047 0.481,0.087 0.711,0.122 4.165,0.629 5.364,0.811 7.082,6.849 0.984,3.46 0.852,6.609 -0.028,9.149 1.48,0.145 2.77,0.721 3.878,1.618 h 0.022 c 0.636,0.513 1.211,1.163 1.724,1.907 l 1.108,1.606 0.859,1.262 c 0.062,0.059 0.497,0.331 1.346,0.86 0.511,0.32 1.14,0.713 2.131,1.35 l 0.149,0.097 c 9.816,6.319 19.512,12.561 30.021,16.1 0.27,0.09 0.781,0.235 1.267,0.373 0.941,0.265 1.81,0.511 2.823,0.974 4.478,2.049 6.667,4.945 3.658,11.52 -1.615,3.529 -2.692,7.322 -4.668,10.692 -2.074,3.533 -5.063,5.257 -8.464,5.729 -2.824,0.391 -5.752,-0.185 -8.481,-1.299 -1.101,-0.449 -2.239,-1.029 -3.368,-1.691 l -3.998,-2.347 c -1.459,0.389 -2.869,0.447 -4.238,0.238 -1.762,-0.268 -3.33,-0.962 -4.76,-1.943 -2.224,-1.526 -5.305,-5.109 -8.394,-9.191 -4.382,-5.791 -9.125,-12.96 -10.883,-15.847 l -0.872,-1.433 0.035,-1.212 c -0.809,-0.755 -1.38,-1.705 -1.748,-2.803 -0.436,-1.303 -0.47,-2.656 -0.219,-3.966 0.099,-0.516 0.254,-1.052 0.449,-1.585 -0.224,0.008 -0.45,0.01 -0.677,0.003 -2.315,-0.069 -4.72,-0.926 -6.947,-2.709 l 0.009,-0.011 c -4.013,-3.215 -8.741,-8.647 -13.414,-14.871 1.964,3.989 3.847,8.092 5.656,12.323 3.06,7.157 5.585,14.49 7.024,21.626 1.499,7.437 1.8,14.626 0.296,21.154 -0.514,2.228 -1.338,4.613 -2.417,6.991 -1.314,3.966 -3.457,8.182 -6.144,11.833 -3.119,4.237 -7.068,7.85 -11.497,9.728 -4.704,1.994 -10.068,3.103 -15.822,3.529 -6.188,0.459 -12.856,0.142 -19.637,-0.693 -20.894,-2.575 -44.934,-10.014 -68.282,-19.945 -25.519,-10.855 -50.278,-24.716 -69.201,-38.453 -6.289,-4.566 -8.22,-11.373 -10.097,-17.994 -0.304,-1.072 -0.606,-2.138 -1.044,-3.522 -0.722,-2.281 -1.407,-4.75 -2.052,-7.403 -0.633,-2.597 -1.164,-5.131 -1.593,-7.599 l -0.11,-0.637 0.044,-0.676 c 0.349,-5.337 3.243,-15.024 8.477,-17.445 2.342,-1.083 4.966,-1.197 7.885,-0.253 2.155,0.697 4.527,2.026 7.127,4.039 l 18.525,12.923 0.003,-0.005 c 4.018,2.769 5.591,5.549 5.188,8.347 -0.034,0.235 -0.076,0.461 -0.126,0.679 14.743,9.596 42.609,26.614 69.906,39.641 -15.902,-15.655 -37.294,-40.617 -52.144,-62.443 -12.918,-18.985 -20.979,-36.333 -17.116,-45.271 l 0.172,-0.398 0.674,-1.142 c 0.101,-0.557 0.233,-1.091 0.401,-1.602 -4.573,-0.23 -9.018,0.13 -13.592,1.17 -3.92,0.891 -7.987,2.291 -12.359,4.254 -3.547,1.593 -17.663,9.49 -20.951,6.995 -3.663,-2.781 2.908,-15.826 7.204,-21.14 l 1.263,-1.293 c -0.378,-2.94 -0.506,-6.252 -0.182,-9.343 0.312,-2.978 1.044,-5.854 2.357,-8.276 0.809,-2.96 2.176,-5.613 4.294,-7.542 12.455,-11.344 31.494,-10.643 51.493,-4.136 3.773,1.227 7.592,2.666 11.412,4.27 -0.652,-0.817 -1.298,-1.644 -1.937,-2.487 -14.734,-3.298 -29.434,-7.035 -44.378,-11.208 -15.698,-4.384 -31.715,-9.26 -48.354,-14.626 -6.906,-2.227 -10.358,-5.856 -13.937,-11.532 -3.018,-4.786 -5.077,-10.184 -7.055,-15.516 l -0.597,-1.589 c -1.52,-3.982 -3.537,-9.262 -3.383,-13.665 -0.167,-3.965 1.723,-7.735 5.572,-11.318 2.676,-1.54 6.54,-1.248 12.037,1.788 l 18.099,8.831 c 1.901,0.927 3.85,2.341 4.829,3.426 l 0.011,-0.009 c 1.062,1.183 1.68,2.582 1.718,4.143 0.004,0.149 0.004,0.295 0.001,0.439 l 0.46,0.225 c 13.022,6.39 26.349,12.189 39.998,17.592 2.362,0.935 4.719,1.852 7.074,2.756 -15.914,-23.991 -34.219,-53.317 -46.608,-78 -9.516,-18.956 -15.524,-35.569 -14.507,-45.94 0.52,-5.298 5.586,-14.931 8.145,-18.88 1.967,-3.035 4.188,-5.911 6.563,-8.315 2.089,-2.114 4.095,-3.483 5.872,-4.278 1.66,-0.743 3.243,-1.041 4.652,-0.996 2.114,0.071 3.879,0.855 5.177,2.138 0.637,0.629 1.143,1.364 1.51,2.18 v 0.022 c 0.341,0.77 0.476,1.742 0.677,3.246 0.449,3.351 1.46,10.92 1.942,12.605 5.633,19.684 13.69,39.955 23.144,60.513 7.724,16.796 16.447,33.913 25.571,51.113 1.594,-4.603 3.708,-8.178 6.195,-10.717 1.854,-1.894 3.925,-3.233 6.164,-4.02 -5.584,-9.636 -10.179,-19.294 -10.468,-25.714 -0.191,-4.213 1.389,-10.957 4.016,-16.902 0.83,-2.393 1.845,-4.777 3,-6.954 3.172,-5.976 7.647,-10.835 12.981,-11.641 l 0.267,-0.023 c 6.039,-0.627 14.822,5.479 24.095,14.34 4.97,4.748 10.248,10.358 15.334,16.076 0.238,-2.375 0.671,-4.76 1.325,-7.05 0.504,-1.764 1.139,-3.488 1.915,-5.128 1.114,-3.47 2.751,-6.743 5.003,-9.49 4.91,-5.994 9.551,-8.071 14.783,-7.547 4.585,0.46 8.7,3.011 13.644,6.603 8.587,6.239 19.737,19.33 31.049,34.229 2.415,3.18 4.832,6.433 7.227,9.71 0.38,-4.096 1.442,-8.336 3.111,-12.13 l 0.289,-0.639 c 0.378,-1.153 0.808,-2.284 1.289,-3.378 3.14,-7.141 8.495,-12.997 15.728,-14.335 l 0.064,-0.008 c 11.164,-2.021 20.899,9.091 27.228,16.659 -0.083,-0.998 -0.137,-2.002 -0.162,-3.006 -0.142,-5.885 0.753,-11.857 3.287,-17.164 0.47,-1.488 1.046,-2.943 1.74,-4.348 2.55,-5.176 5.323,-8.798 8.301,-11.169 3.505,-2.789 7.204,-3.883 11.093,-3.687 7.787,0.391 21.461,11.226 35.629,24.673 6.753,6.407 13.76,13.5 20.273,20.281 l 0.019,-0.152 c 0.31,-2.569 1.689,-7.077 3.583,-11.487 0.985,-2.76 2.255,-5.738 3.663,-8.389 2.539,-4.781 5.807,-8.902 9.411,-10.19 l 0.017,-0.006 h 0.022 c 10.712,-3.799 36.816,9.873 61.222,28.395 6.36,4.829 12.659,9.996 18.581,15.269 -0.263,-0.79 -0.466,-1.597 -0.621,-2.416 -0.861,-4.539 -0.325,-7.57 1.263,-9.531 0.508,-4.141 3.08,-6.106 6.966,-6.843 2.918,-0.555 5.969,0.201 9.284,1.024 l 0.204,0.051 c 2.802,0.694 5.102,1.568 6.817,3.629 1.875,2.253 2.467,4.865 1.342,8.268 l 0.154,0.148 c 2.385,2.304 3.726,4.318 4.241,6.014 0.75,2.471 0.279,4.573 -1.228,6.312 -0.018,1.575 -0.614,2.969 -1.724,4.18 -1.263,1.379 -2.921,2.104 -4.88,2.235 -2.093,0.14 -5.043,-0.509 -8.219,-1.765 L 5.884,13.678 c 11.164,11.176 19.757,22.155 22.832,30.755 v 0.022 l 0.022,0.064 c 0.959,2.704 1.243,4.857 0.995,6.506 -0.212,1.409 -0.727,2.569 -1.519,3.494 l -0.06,0.523 c -0.353,2.354 -1.555,4.013 -3.477,5.041 -1.622,0.867 -3.388,1.006 -5.248,0.496 -1.827,-0.502 -3.945,-1.796 -6.102,-3.647 -8.628,-7.402 -27.383,-19.27 -45.866,-29.436 -12.1,-6.655 -23.948,-12.52 -32.543,-15.819 l 11.815,23.54 -0.862,2.307 c -0.325,0.871 -0.671,1.733 -1.038,2.572 l -0.54,1.445 c -1.155,3.092 -3.315,7.433 -5.071,9.62 2.124,15.766 6.139,21.569 0.871,36.708 -0.345,0.99 -0.731,1.917 -1.155,2.785 l -0.423,1.232 c -1.609,4.618 -4.11,7.875 -7.228,10.051 -3.516,2.455 -7.592,3.382 -11.913,3.247 l -0.473,-0.016 -0.194,-0.029 c -3.835,-0.58 -7.733,-1.751 -11.658,-3.425 0.18,0.959 0.13,1.931 -0.168,2.903 -0.278,0.915 -0.712,1.707 -1.307,2.36 -0.012,0.55 -0.102,1.104 -0.271,1.656 -0.575,1.892 -1.813,3.25 -3.762,3.965 -1.161,0.424 -2.59,0.535 -4.275,0.233 -2.834,-0.51 -5.895,-1.315 -8.426,-2.719 -3.577,-1.984 -6.072,-4.954 -6.149,-9.451 -0.004,-0.328 -0.416,-0.486 -0.92,-0.68 -2.362,-0.908 -5.026,-1.934 -7.622,-5.054 -2.526,-3.035 -3.004,-6.668 -2.056,-9.47 0.28,-0.828 0.679,-1.595 1.189,-2.279 0.072,-0.604 0.202,-1.187 0.389,-1.738 0.339,-1.001 0.852,-1.912 1.522,-2.696 -5.631,-5.499 -11.314,-11.34 -17.085,-17.271 -16.671,-17.137 -34.103,-35.054 -52.525,-46.821 1.266,2.586 2.743,5.471 4.327,8.472 5.808,11 13.233,22.629 17.99,28.408 1.132,1.374 1.923,2.243 2.259,2.453 l 0.525,0.329 0.276,0.25 c 0.5,0.451 0.949,0.994 1.352,1.623 2.081,3.258 1.648,8.664 -0.286,13.986 -0.36,0.993 -0.773,2.003 -1.23,3.009 l -0.348,1.008 c -1.61,4.435 -4.273,9.217 -7.17,12.428 -1.125,1.248 -2.354,2.329 -3.663,3.165 l -0.284,0.182 c -3.79,2.264 -7.442,1.896 -10.803,-0.112 -2.394,-1.431 -4.477,-3.778 -6.189,-6.458 l -0.514,-0.822 c -9.434,-15.786 -31.165,-45.65 -51.863,-66.918 -11.167,-11.473 -21.678,-20.301 -28.926,-22.457 0.492,2.727 1.261,5.413 1.641,6.744 v 0.019 l 0.006,-0.001 c 1.303,4.558 3.374,8.145 6.584,13.708 l 1.994,3.454 0.005,-0.003 c 0.566,0.955 1.291,1.657 2.014,2.36 1.278,1.238 2.555,2.476 3.883,4.716 2.154,3.633 2.874,6.968 2.558,9.489 -0.562,4.501 -3.621,10.792 -8.927,11.03 -2.2,0.099 -4.705,-0.725 -7.179,-2.662 -3.419,-2.678 -6.459,-7.573 -9.235,-12.046 -0.78,-1.257 -1.538,-2.477 -2.185,-3.465 l -0.558,-0.631 c -3.018,-3.348 -19.592,-18.395 -33.558,-28.464 -2.116,-1.526 -4.153,-2.923 -6.045,-4.127 l 0.969,2.024 c 4.643,9.581 11.196,20.352 14.715,25.354 5.372,1.621 6.891,8.946 6.553,13.748 1.435,-0.081 2.941,0.148 4.482,0.75 0.356,0.14 0.732,0.31 1.126,0.513 2.5,1.287 5.014,3.402 7.579,5.562 1.837,1.546 3.707,3.122 5.318,4.117 3.599,2.222 5.63,3.947 6.687,5.504 1.266,1.862 1.749,3.432 1.637,4.821 0.249,0.178 0.501,0.371 0.754,0.581 3.296,2.746 5.201,6.46 1.903,12.139 -0.385,2.1 -1.602,4.537 -3.984,7.397 z m -67.1,16.89 c -3.081,-3.674 -6.099,-7.205 -8.92,-11.083 -30.535,-6.749 -61.167,-15.478 -94.309,-26.165 -9.57,-3.086 -13.614,-13.448 -17.39,-23.624 -2.397,-6.463 -8.795,-20.973 4.155,-13.704 l 18.167,8.862 c 2.992,1.46 5.594,4.036 0.449,2.092 l -10.358,-3.917 -3.731,-1.623 c 6.406,4.193 13.328,8.055 20.658,11.651 26.662,13.082 53.773,23.431 81.887,32.802 l -16.559,-10.654 c -29.877,-43.797 -77.028,-118.682 -68.943,-137.351 2.493,-5.759 6.388,-12.211 10.819,-16.697 4.202,-4.251 7.297,-4.149 7.981,-2.623 0.047,0.105 1.599,12.558 2.331,15.117 11.402,39.845 32.665,82.171 55.436,124.456 4.358,8.093 9.863,19.494 15.941,29.693 32.155,9.651 64.885,16.42 95.446,18.989 12.418,1.044 15.569,8.747 0.745,7.678 -29.968,-2.162 -57.867,-5.964 -85.474,-11.381 2.413,2.734 4.86,4.96 7.312,6.45 -5.305,11.998 -9.216,8.698 -15.643,1.032 m 246.395,122.902 c 2.636,2.194 5.396,4.332 8.211,6.429 2.749,2.049 5.591,4.081 8.429,6.095 1.258,0.891 2.395,1.621 3.408,2.19 -0.172,-0.534 -0.367,-1.093 -0.581,-1.679 -1.583,-4.335 -4.261,-9.135 -7.645,-14.115 -3.742,-5.508 -8.396,-11.274 -13.431,-16.912 -4.088,-2.149 -9.264,-4.782 -14.411,-7.007 -3.48,-1.505 -7.016,-2.864 -10.297,-3.821 0.679,0.979 1.429,2.022 2.23,3.108 7.912,10.715 20.547,22.765 24.087,25.712 m -5.203,8.376 c -5.853,-4.871 -35.52,-33.565 -31.421,-42.554 0.603,-1.323 2.348,-1.978 5.943,-1.446 10.05,1.484 24.16,8.609 32.633,13.087 10.186,11.31 19.136,23.457 22.853,33.636 5.476,14.991 -0.159,19.2 -13.035,10.068 -5.659,-4.016 -11.398,-8.151 -16.973,-12.791 M -83.377,65.812 c 13.28,8.71 9.485,3.847 2.275,-6.99 -13.203,-19.845 -34.948,-44.607 -51.951,-60.02 -12.77,-11.577 -9.231,-6.321 -2.84,5.244 7.797,14.106 18.643,28.633 25.793,37.044 8.452,9.941 18.239,19.159 26.723,24.722 m 13.87,13.46 c -8.532,5.712 -30.049,-11.135 -46.508,-30.496 -12.496,-14.699 -36.024,-47.657 -36.298,-65.677 -2.209,-21.516 92.727,80.146 82.806,96.173 m -391.191,48.293 c 1.115,-0.534 -1.185,-2.756 -1.88,-3.487 l -0.081,-0.082 c -1.916,-1.933 -3.463,-0.638 -3.127,1.147 0.093,0.485 0.323,1.007 0.724,1.51 0.331,0.413 0.777,0.813 1.354,1.17 l 0.411,0.234 0.149,0.076 0.157,0.077 0.016,0.021 c 0.122,0.171 0.241,0.322 0.357,0.456 l 0.048,0.056 c 1.356,1.526 2.203,0.57 1.872,-1.178 m 16.975,-20.431 c -1.704,-0.395 -3.467,0.185 -2.932,2.382 0.493,2.024 1.383,2.441 1.944,2.847 0.555,0.403 0.836,0.883 1.762,0.146 0.274,-0.218 0.515,0.137 1.222,0.511 1.264,0.668 2.536,0.919 2.396,-0.904 -0.166,-2.163 -2.597,-4.565 -4.392,-4.982 m -6.895,0.135 c -5.989,-4.74 -8.743,-2.603 -9.381,0.048 -0.6,2.495 0.706,5.352 1.909,6.262 2.853,7.822 6.426,9.106 8.725,7.127 5.597,-4.821 2.496,-9.186 -1.253,-13.437 m 15.674,-5.937 c 1.528,1.733 2.682,3.986 2.862,6.345 0.149,1.94 -1.414,6.987 -2.439,8.688 -0.923,1.532 -2.505,2.385 -4.503,2.742 -0.756,0.135 -1.507,0.128 -2.239,0.017 -0.744,1.98 -2.145,3.941 -4.388,5.874 -0.859,0.74 -1.817,1.313 -2.859,1.692 -1.678,0.612 -3.465,0.708 -5.295,0.189 l -0.122,0.319 c -0.575,1.387 -1.261,3.562 -1.944,4.765 -0.562,0.99 -1.36,1.797 -2.378,2.382 v 0.022 c -1.423,0.816 -3.013,1.061 -4.71,0.629 -1.301,-0.331 -2.601,-1.093 -3.768,-2.372 -0.544,-0.337 -1.024,-0.692 -1.446,-1.057 -0.47,-0.405 -0.908,-0.87 -1.314,-1.378 -0.481,-0.601 -0.863,-1.215 -1.156,-1.826 -0.354,-0.739 -0.591,-1.471 -0.725,-2.175 -0.448,-2.378 1.162,-6.827 2.24,-8.969 v -0.022 c 0.657,-1.307 1.675,-2.367 2.987,-3.062 0.425,-0.225 0.871,-0.406 1.334,-0.539 -0.168,-0.4 -0.318,-0.811 -0.446,-1.229 -0.586,-1.925 -0.789,-4.166 -0.262,-6.362 0.281,-1.164 2.791,-7.075 3.42,-7.869 1.042,-1.317 2.438,-2.363 4.228,-2.933 1.564,-0.498 3.34,-0.595 5.317,-0.12 1.779,0.427 3.786,1.351 6.005,2.949 0.439,-0.194 0.899,-0.348 1.374,-0.464 1.388,-0.338 2.895,-0.313 4.294,0.012 2.074,0.481 4.33,1.934 5.933,3.752 m 131.465,34.129 c -25.468,-22.215 -89.415,-61.157 -115.354,-37.532 -4.526,4.122 -3.755,15.419 -2.176,20.768 l -5.311,5.441 c -4.075,4.172 -7.738,9.682 1.532,4.662 15.214,-8.238 26.996,-10.771 40.064,-9.252 2.816,-2.726 7.922,-7.823 11.14,-6.63 2.704,1.003 2.833,6.235 3.152,8.806 -2.811,-4.724 -3.285,-6.886 -7.79,-1.84 -2.831,3.171 -5.121,7.371 -6.936,10.388 -6.829,15.804 42.852,77.48 70.876,104.167 7.088,6.75 11.605,10.13 19.86,14.011 8.357,3.933 4.747,-10.896 3.488,-14.368 -1.608,-4.44 -2.718,-3.665 -7.208,-4.069 -7.389,-7.289 -14.056,-14.562 -20.523,-22.463 -16.752,-20.47 -28.977,-41.501 -42.36,-66.752 -3.16,-6.09 -6.097,-12.406 -9.183,-18.45 7.677,2.355 15.492,5.905 23.796,10.324 39.886,24.655 75.796,62.042 88.805,107.867 2.413,8.5 3.439,16.048 1.213,19.49 -24.883,16.412 -119.121,-41.573 -144.029,-58.288 -1.385,-0.929 -3.324,-2.578 -0.487,-2.438 3.455,0.171 4.062,-0.77 0.038,-3.543 l -18.703,-13.047 c -8.301,-6.466 -12.24,-3.705 -12.841,5.457 0.849,4.879 2.005,9.628 3.468,14.246 2.117,6.689 3.319,14.463 9.051,18.624 35.555,25.812 92.107,52.087 134.835,57.353 12.232,1.507 23.921,1.252 32.568,-2.414 7.281,-3.086 13.393,-12.979 15.143,-20.576 2.628,-11.405 -1.139,-25.562 -7.007,-39.289 -13.865,-32.427 -32.109,-57.092 -59.121,-80.653"
             style="fill:#0057b8;fill-opacity:1;fill-rule:evenodd;stroke:none"
             id="path24" />
        </g>
        <g
           id="g26"
           transform="translate(374.7055,151.8087)">
          <path
             d="M 0,0 C 5.353,6.295 11.227,12.359 17.553,17.692 L 17.48,17.606 C 8.057,4.663 5.424,-2.842 -23.399,-32.977 c 2.94,5.033 6.219,10.073 9.513,14.804 C -8.868,-10.966 -3.869,-4.552 0,0 m 12.064,177.87 c -1.371,-1.071 -2.692,-2.131 -3.945,-3.174 -2.033,-1.692 -7.28,-6.606 -12.896,-12.6 -1.276,-1.363 -2.566,-2.776 -3.832,-4.212 1.34,0.624 2.695,1.276 4.032,1.934 2.153,1.059 4.225,2.124 6.099,3.105 2.315,2.61 4.59,5.306 6.773,8.055 2.172,2.734 4.144,5.385 5.849,7.894 l 0.81,1.211 c -1.003,-0.755 -1.97,-1.494 -2.89,-2.213 m -6.472,-0.135 c -3.54,-2.947 -16.175,-14.997 -24.087,-25.713 -0.801,-1.085 -1.551,-2.128 -2.23,-3.107 3.281,0.957 6.817,2.315 10.297,3.82 5.147,2.225 10.324,4.859 14.411,7.008 5.036,5.637 9.689,11.403 13.431,16.912 3.384,4.98 6.063,9.78 7.646,14.115 0.213,0.585 0.408,1.145 0.581,1.679 -1.014,-0.57 -2.151,-1.299 -3.409,-2.19 -2.837,-2.014 -5.68,-4.047 -8.429,-6.095 -2.815,-2.097 -5.574,-4.235 -8.211,-6.429 m -192.179,-30.85 c 13.845,16.818 24.68,35.852 30.586,56.656 1.117,3.938 1.909,7.588 2.154,10.555 -5.468,1.624 -13.81,0.506 -23.734,-2.375 l 0.178,-0.372 c 1.293,-2.828 2.688,-7.016 2.657,-10.005 -0.046,-4.378 -1.46,-9.72 -2.194,-11.746 -2.585,-7.136 -4.52,-7.357 -10.053,-7.659 -2.365,-2.367 -4.668,-4.752 -6.914,-7.157 -2.71,-2.902 -5.273,-5.766 -7.708,-8.604 l -0.243,-0.261 -0.018,-0.045 -0.617,-0.727 c -9.039,-10.645 -16.719,-21.368 -23.878,-32.711 -6.998,-11.09 -13.543,-22.847 -20.388,-35.73 1.551,0.778 3.136,1.6 4.756,2.462 l 0.002,-0.005 c 20.472,12.696 39.84,28.809 55.414,47.724 m 7.896,33.019 c -1.997,-1.313 -3.955,-1.642 -6.559,-1.825 l -2.392,-2.448 c -1.09,-1.129 -2.213,-2.312 -3.366,-3.547 -1.503,-1.609 -2.805,-3.029 -3.911,-4.264 -1.093,-1.22 -2.26,-2.552 -3.5,-3.995 l -1.051,-1.238 c -4.438,-5.226 -8.558,-10.492 -12.458,-15.861 -3.929,-5.408 -7.591,-10.85 -11.094,-16.401 -3.464,-5.489 -6.82,-11.15 -10.159,-17.037 -1.071,-1.889 -2.156,-3.831 -3.257,-5.826 7.643,5.143 15.077,10.78 22.152,16.872 8.908,7.672 17.225,16.051 24.645,25.063 6.943,8.433 13.115,17.447 18.263,26.983 4.849,8.982 8.775,18.41 11.564,28.231 0.565,1.994 1.036,3.864 1.378,5.543 l 0.136,0.691 c -1.476,0.091 -3.13,0.04 -4.939,-0.141 -2.724,-0.273 -5.752,-0.836 -9.02,-1.643 0.241,-0.718 0.464,-1.452 0.657,-2.181 0.502,-1.891 0.827,-3.828 0.809,-5.567 -0.021,-2.105 -0.303,-4.323 -0.681,-6.348 -0.525,-2.816 -1.262,-5.383 -1.746,-6.716 -1.609,-4.441 -3.186,-6.843 -5.471,-8.345 M -200.366,32.901 c -12.466,-2.728 -25.017,-5.977 -37.491,-9.668 -3.603,-6.204 -7.051,-12.88 -10.134,-18.852 -1.377,-2.668 -2.685,-5.201 -3.868,-7.43 11.646,-0.787 16.831,2.016 27.667,7.872 1.651,0.892 3.415,1.845 5.256,2.823 l 10.989,12.232 c 1.912,3.781 4.468,8.691 7.581,13.023 m -10.868,-10.753 c 0.722,1.422 1.548,3.019 2.522,4.784 -3.158,-0.75 -6.259,-1.518 -9.303,-2.303 -5.626,-1.45 -11.366,-3.035 -17.202,-4.745 -1.45,-2.545 -2.932,-5.267 -4.399,-8.025 -1.986,-3.733 -3.464,-6.594 -4.856,-9.292 l -0.861,-1.671 c 2.329,0.189 4.38,0.615 6.386,1.267 3.769,1.224 7.642,3.317 12.88,6.149 l 4.654,2.506 z m 143.021,101.299 c -0.96,-2.03 -1.778,-4.079 -2.429,-6.076 -0.636,-1.955 -1.104,-3.825 -1.377,-5.539 l -0.134,-0.977 c 0.796,0.153 1.68,0.379 2.638,0.671 3.341,1.016 7.316,2.789 11.556,5.002 0.951,0.496 1.974,1.053 3.059,1.66 -1.213,1.515 -2.175,3.174 -2.917,4.942 v 0.016 c -0.213,0.51 -0.397,0.989 -0.55,1.437 v 0.015 c -0.104,0.3 -0.214,0.658 -0.332,1.072 l -0.269,0.538 c -0.195,0.411 -0.336,0.721 -0.428,0.939 -0.736,1.755 -1.259,3.653 -1.605,5.639 -0.095,0.544 -0.175,1.093 -0.242,1.645 l -0.039,-0.047 c -1.296,-1.525 -2.535,-3.233 -3.694,-5.059 -1.209,-1.905 -2.296,-3.887 -3.237,-5.878 M -204.621,73.085 c 6.212,4.401 11.713,8.721 16.138,12.58 6.687,5.833 12.849,11.721 18.545,17.756 1.647,1.746 3.257,3.504 4.829,5.275 -0.422,-4.123 -0.482,-8.386 -0.016,-12.391 0.243,-2.083 0.631,-4.141 1.185,-6.14 0.507,-1.825 1.147,-3.572 1.936,-5.207 1.006,-3.178 2.459,-6.105 4.443,-8.62 1.966,-2.49 4.412,-4.545 7.409,-6.006 5.585,-2.722 12.518,-1.448 20.04,2.336 6.751,3.395 14.14,8.884 21.433,15.213 1.623,1.408 3.196,2.808 4.714,4.19 l 0.134,-0.788 c 0.41,-2.289 0.987,-4.666 1.692,-6.99 0.674,-2.216 1.476,-4.406 2.372,-6.446 0.409,-1.168 0.807,-2.222 1.191,-3.141 0.43,-1.029 0.894,-2.044 1.389,-3.028 1.348,-2.68 2.944,-5.081 4.752,-7.001 1.849,-1.961 3.935,-3.442 6.237,-4.26 5.697,-2.025 13.224,-0.739 21.806,3.097 8.509,3.802 18.309,10.196 28.484,18.34 5.157,4.128 10.47,8.718 15.793,13.642 3.107,2.873 6.199,5.838 9.249,8.87 0.126,-0.686 0.277,-1.374 0.455,-2.063 0.485,-1.886 1.143,-3.722 1.991,-5.506 0.577,-1.836 1.36,-3.684 2.371,-5.547 1.042,-1.92 2.32,-3.826 3.86,-5.722 l 0.03,-0.031 0.157,-0.195 C -0.837,83.958 0.299,82.686 1.479,81.503 2.618,80.364 3.785,79.314 5.029,78.375 4.582,78.336 4.121,78.274 3.646,78.189 2.068,77.906 0.435,77.542 -1.146,77.057 c -1.673,-0.513 -3.326,-1.17 -4.859,-2.021 -2.301,-1.275 -4.277,-2.901 -5.721,-4.976 -1.102,-1.585 -1.879,-3.398 -2.237,-5.472 -0.944,-0.386 -1.922,-0.832 -2.927,-1.426 -1.621,-0.957 -3.28,-2.266 -4.922,-4.24 -1.647,-1.979 -2.658,-4.147 -3.123,-6.29 -0.527,-2.426 -0.366,-4.852 0.354,-6.979 l 0.005,0.002 c 0.202,-0.594 0.453,-1.181 0.752,-1.754 0.137,-0.264 0.278,-0.516 0.423,-0.753 l 0.051,-0.242 c 0.109,-0.483 0.225,-0.907 0.347,-1.269 l 0.005,0.002 c 0.088,-0.259 0.185,-0.516 0.291,-0.77 -4.927,-4.873 -9.879,-9.962 -14.897,-15.121 L -37.651,25.7 C -46.005,17.113 -54.55,8.33 -63.103,0.415 c -4.221,-3.906 -8.491,-7.65 -12.81,-11.131 1.809,3.166 3.682,6.273 5.509,9.158 3.144,4.966 6.137,9.255 8.435,12.046 0.477,0.579 0.916,1.089 1.306,1.512 0.156,0.169 -0.175,0 -0.008,0.105 l 0.89,0.557 0.468,0.424 c 0.356,0.32 0.723,0.709 1.101,1.164 0.332,0.399 0.644,0.828 0.934,1.282 1.442,2.259 2.052,5.071 1.991,8.126 -0.061,2.95 -0.744,6.18 -1.889,9.332 -0.153,0.423 -0.367,0.968 -0.64,1.636 -0.255,0.624 -0.459,1.109 -0.612,1.455 l -0.117,0.361 h -0.016 l -0.193,0.564 c -0.894,2.462 -2.097,5.039 -3.486,7.448 -1.359,2.355 -2.881,4.533 -4.459,6.283 -0.659,0.731 -1.377,1.437 -2.15,2.104 -0.727,0.628 -1.503,1.211 -2.325,1.736 l 0.005,0.007 -0.283,0.182 -0.109,0.062 c -2.479,1.481 -4.962,2.134 -7.416,2.109 -2.632,-0.027 -5.121,-0.83 -7.448,-2.221 -1.465,-0.876 -2.811,-1.99 -4.036,-3.268 -1.263,-1.317 -2.419,-2.837 -3.456,-4.461 -0.463,-0.728 0.008,0.037 -0.338,-0.516 l -0.238,-0.399 c -5.107,-8.546 -13.893,-21.307 -24.184,-34.585 -8.446,-10.898 -17.891,-22.121 -27.121,-31.604 -5.76,-5.919 -11.318,-11.101 -16.289,-14.96 -1.301,-1.01 -2.552,-1.923 -3.747,-2.732 0.48,1.346 1.043,2.624 1.706,3.947 1.031,2.061 2.325,4.303 3.898,7.029 l 1.302,2.256 0.681,1.149 c 0.15,0.253 0.314,0.464 0.484,0.655 0.2,0.224 0.541,0.553 0.88,0.882 0.694,0.673 1.389,1.347 2.155,2.231 0.793,0.916 1.586,1.973 2.378,3.307 1.224,2.066 2.065,4.076 2.572,5.956 0.591,2.193 0.738,4.239 0.514,6.029 -0.391,3.134 -1.779,6.995 -4.112,9.877 -2.102,2.596 -4.956,4.463 -8.583,4.626 -1.662,0.074 -3.398,-0.192 -5.135,-0.836 -1.524,-0.565 -3.091,-1.444 -4.648,-2.663 -3.992,-3.127 -7.219,-8.323 -10.165,-13.07 l -0.418,-0.672 c -0.552,-0.889 -1.09,-1.748 -1.605,-2.539 l -0.294,-0.333 -0.007,0.006 c -1.697,-1.882 -7.982,-7.722 -15.693,-14.262 -3.044,-2.582 -6.288,-5.254 -9.534,-7.815 2.541,4.374 5,8.291 6.831,10.978 0.352,0.169 0.696,0.359 1.035,0.57 2.943,1.842 4.4,4.305 5.696,7.431 0.501,1.211 0.878,2.766 1.079,4.432 l 0.098,0.983 c 0.662,0.16 1.327,0.369 1.991,0.629 0.167,0.065 0.416,0.172 0.754,0.327 l 0.744,0.356 c 2.858,1.471 5.554,3.74 8.306,6.056 0.011,0.009 0.069,0.044 0.061,0.053 0.858,0.722 1.725,1.451 2.591,2.136 0.784,0.62 1.532,1.174 2.203,1.588 2,1.237 3.555,2.325 4.746,3.313 1.365,1.133 2.382,2.231 3.134,3.339 0.84,1.236 1.436,2.421 1.815,3.565 0.17,0.509 0.297,1.006 0.384,1.492 1.984,1.779 3.543,3.921 4.19,6.616 0.669,2.786 0.315,5.926 -1.624,9.507 -0.281,1.172 -0.735,2.389 -1.387,3.654 2.537,0.357 5.138,0.7 7.803,1.025 4.601,0.562 9.149,1.035 13.636,1.412 3.357,0.282 6.366,0.992 8.899,1.953 3.012,1.141 5.418,2.679 7.026,4.325 1.117,1.143 1.982,2.405 2.578,3.756 0.613,1.388 0.94,2.88 0.968,4.446 0.024,1.339 -0.168,2.619 -0.579,3.823 -0.29,0.846 -0.677,1.648 -1.164,2.402 -0.213,1.205 -0.625,2.358 -1.24,3.445 l -0.007,-0.003 c -0.779,1.375 -1.862,2.602 -3.258,3.65 -1.676,1.258 -3.989,2.252 -6.928,2.79 -2.407,0.439 -5.276,0.596 -8.6,0.356 -7.438,-0.537 -14.872,-1.189 -22.326,-1.956 -7.294,-0.749 -14.574,-1.613 -21.863,-2.589 -4.774,-0.64 -9.569,-1.332 -14.39,-2.078 -3.979,-0.614 -7.685,-1.215 -11.13,-1.8 -0.582,1.154 -1.179,2.214 -1.794,3.185 l -0.161,0.252 c 5.19,3.185 10.145,6.473 14.72,9.715 M -316.669,48.246 c -1.332,1.214 -2.435,2.64 -3.333,4.218 -0.831,1.46 -1.48,3.057 -1.973,4.739 -0.686,1.33 -1.229,2.743 -1.646,4.205 l -0.08,0.291 c -0.372,-0.535 -0.77,-1.044 -1.189,-1.519 -1.045,-1.184 -2.32,-2.26 -3.683,-3.122 -1.379,-0.872 -2.873,-1.529 -4.344,-1.87 -0.969,-0.226 -2.006,-0.345 -3.069,-0.348 -0.969,-0.003 -1.941,0.099 -2.878,0.314 -0.657,-0.403 -1.303,-0.758 -1.937,-1.07 -1.305,-0.641 -2.56,-1.09 -3.757,-1.378 -1.3,-0.312 -2.545,-0.442 -3.728,-0.415 -1.309,0.029 -2.542,0.245 -3.697,0.613 -1.269,0.404 -2.394,0.966 -3.384,1.652 -1.057,0.734 -1.972,1.613 -2.752,2.599 -0.528,0.667 -1.433,2.513 -2.242,4.374 v 0.016 c -0.859,1.977 -1.723,4.188 -1.921,5.013 -0.341,1.421 -0.459,2.835 -0.403,4.194 0.033,0.789 0.123,1.564 0.261,2.316 -0.429,0.326 -0.831,0.682 -1.206,1.067 -0.778,0.797 -1.435,1.726 -1.955,2.762 l -0.434,0.864 v 0.059 c -0.632,1.406 -1.323,3.259 -1.768,5.044 -0.478,1.913 -0.704,3.881 -0.395,5.52 0.095,0.497 0.235,1.033 0.425,1.603 0.174,0.523 0.382,1.042 0.626,1.549 0.228,0.475 0.473,0.922 0.734,1.336 0.243,0.383 0.542,0.8 0.902,1.25 0.322,0.403 0.61,0.739 0.859,1 0.297,0.311 0.615,0.614 0.951,0.905 0.313,0.27 0.625,0.52 0.935,0.746 h 0.015 l 0.524,0.374 c 0.705,0.713 1.455,1.311 2.235,1.802 1.027,0.647 2.077,1.094 3.117,1.359 1.317,0.336 2.628,0.407 3.916,0.235 1.341,-0.178 2.591,-0.608 3.74,-1.267 2.755,-1.579 3.858,-3.422 5.088,-6.639 l 0.194,-0.006 c 1.325,-0.047 2.609,-0.304 3.837,-0.752 0.766,-0.279 1.485,-0.62 2.156,-1.016 0.706,-0.419 1.355,-0.884 1.943,-1.39 v -0.015 c 1.345,-1.159 2.452,-2.345 3.345,-3.555 0.331,-0.447 0.632,-0.898 0.906,-1.352 l 0.469,-0.07 c 0.264,-0.047 0.525,-0.101 0.781,-0.162 -0.625,1.27 -1.199,2.557 -1.688,3.811 -2.173,5.576 -2.659,10.967 0.7,13.683 l 0.031,0.031 0.053,0.042 0.063,0.031 c 4.692,3.561 16.283,-2.221 22.461,-5.304 1.202,-0.599 2.186,-1.091 2.489,-1.226 2.011,-0.904 4.013,-1.699 6.023,-2.39 1.976,-0.68 3.834,-1.217 5.592,-1.617 2.065,-0.469 4.14,-0.788 6.253,-0.967 l 0.797,-0.061 c -1.172,4.92 -0.171,11.096 2.467,18.071 3.188,8.435 8.811,18.296 15.804,28.573 7.18,10.553 15.856,21.811 24.703,32.405 4,4.791 8.044,9.454 12.006,13.863 -4.541,-2.432 -8.989,-4.892 -13.276,-7.323 -13.442,-7.624 -25.388,-14.997 -33.786,-20.409 -0.083,-1.647 -0.594,-3.273 -1.568,-4.876 -1.139,-1.875 -2.912,-3.668 -5.384,-5.371 l -1.361,-0.939 -17.002,-11.861 c -1.439,-1.113 -2.828,-2.046 -4.165,-2.803 -1.43,-0.811 -2.82,-1.431 -4.166,-1.866 -1.881,-0.608 -3.703,-0.877 -5.464,-0.82 -1.875,0.06 -3.638,0.48 -5.289,1.243 -3.194,1.478 -5.628,4.575 -7.364,8.147 -2.031,4.18 -3.181,9.203 -3.407,12.648 l -0.075,1.144 0.188,1.082 c 0.209,1.202 0.459,2.498 0.75,3.887 0.263,1.253 0.564,2.579 0.904,3.976 0.338,1.389 0.681,2.71 1.028,3.962 0.404,1.459 0.766,2.693 1.086,3.705 0.479,1.513 0.746,2.452 1.013,3.397 0.986,3.478 1.986,7.005 3.643,10.419 1.766,3.642 4.198,6.996 7.944,9.714 9.628,6.99 20.784,14.029 32.807,20.71 11.805,6.559 24.404,12.748 37.168,18.177 12.152,5.169 24.526,9.681 36.593,13.206 11.401,3.33 22.471,5.767 32.759,7.034 3.521,0.434 7.097,0.732 10.694,0.859 3.362,0.119 6.613,0.079 9.702,-0.15 3.099,-0.229 6.134,-0.657 9.071,-1.312 2.812,-0.628 5.493,-1.462 8.006,-2.528 2.529,-1.072 4.888,-2.587 7.038,-4.405 2.262,-1.914 4.32,-4.181 6.119,-6.624 1.441,-1.959 2.743,-4.074 3.865,-6.236 1.134,-2.183 2.079,-4.397 2.796,-6.532 0.519,-1.163 1.004,-2.394 1.446,-3.672 0.466,-1.349 0.843,-2.639 1.12,-3.841 0.822,-3.573 1.152,-7.325 1.071,-11.197 -0.079,-3.785 -0.557,-7.674 -1.351,-11.616 -0.768,-3.81 -1.795,-7.577 -3.013,-11.27 -0.301,-0.912 -0.615,-1.827 -0.942,-2.744 0.893,0.562 1.804,1.019 2.722,1.377 h 0.016 c 0.374,0.146 0.75,0.276 1.127,0.389 l 0.017,0.509 c 0.053,0.982 0.235,1.974 0.565,2.96 0.29,0.863 0.657,1.664 1.11,2.389 0.124,0.198 0.254,0.392 0.391,0.581 l -0.025,0.85 1.481,2.434 c 1.032,1.696 3.036,4.785 5.373,8.187 1.81,2.635 3.815,5.458 5.726,7.985 1.71,2.259 3.428,4.384 5.028,6.136 1.522,1.667 2.983,3.038 4.297,3.939 0.931,0.639 1.917,1.188 2.969,1.626 1.089,0.453 2.232,0.785 3.434,0.967 0.915,0.14 1.872,0.189 2.876,0.137 0.417,-0.022 0.835,-0.062 1.254,-0.121 l 2.695,1.582 c 0.631,0.371 1.287,0.728 1.959,1.066 0.622,0.312 1.264,0.605 1.921,0.874 v 0.015 c 1.696,0.692 3.473,1.213 5.283,1.49 1.71,0.262 3.465,0.301 5.229,0.056 2.355,-0.326 4.573,-1.11 6.564,-2.458 v -0.016 c 1.842,-1.247 3.458,-2.947 4.767,-5.177 1.399,-2.385 2.34,-4.799 3.278,-7.209 0.513,-1.318 1.027,-2.636 1.577,-3.838 2.01,-4.394 2.194,-7.784 1.056,-10.589 -1.175,-2.897 -3.548,-4.744 -6.668,-6.172 -0.724,-0.331 -1.314,-0.557 -1.842,-0.732 -0.419,-0.139 -0.97,-0.294 -1.54,-0.455 l 0.001,-0.004 -0.045,-0.008 -1.051,-0.303 c -9.998,-3.366 -19.481,-9.464 -29.077,-15.643 l 0.003,-0.006 -0.064,-0.032 -0.149,-0.097 c -1.081,-0.695 -1.676,-1.068 -2.159,-1.369 l -0.631,-0.397 -0.398,-0.59 -0.031,-0.031 -1.108,-1.606 c -0.343,-0.498 -0.729,-0.987 -1.158,-1.461 -0.437,-0.484 -0.885,-0.915 -1.341,-1.284 l -1.093,-0.883 h -0.176 l -0.529,-0.306 c 0.053,-0.563 0.083,-1.137 0.084,-1.723 0.005,-1.871 -0.252,-3.84 -0.827,-5.855 -1.089,-3.834 -2.163,-5.934 -3.878,-7.39 -1.897,-1.61 -3.672,-1.879 -6.427,-2.295 -0.385,-0.058 0.141,0.034 -0.299,-0.038 l -0.242,-0.055 c -0.462,-0.108 -0.124,-0.116 0.315,-0.163 0.474,-0.051 1.064,-0.148 0.901,-0.464 -0.874,-1.691 -2.238,-4.448 -3.811,-7.678 -1.387,-2.846 -2.719,-5.791 -3.914,-8.599 l -0.016,-0.038 0.249,0.119 c 3.093,1.478 6.184,3.111 9.195,4.828 4.467,2.549 8.677,5.264 12.379,7.916 3.839,2.751 7.022,5.359 9.276,7.572 0.74,0.727 1.304,1.234 1.747,1.607 l 0.238,0.197 c 0.696,1.155 1.408,2.188 2.163,3.129 0.8,0.997 1.647,1.882 2.57,2.69 0.991,0.868 1.996,1.585 3.049,2.195 1.038,0.603 2.122,1.103 3.288,1.546 0.336,0.127 0.594,0.22 0.775,0.277 2.757,0.873 5.648,0.881 8.173,-0.055 l -0.002,-0.005 c 2.511,-0.934 4.61,-2.739 5.858,-5.477 0.69,2.39 1.461,4.547 2.215,6.291 3.073,7.111 7.972,15.075 14.033,23.035 6.035,7.926 13.252,15.904 20.989,23.076 7.288,6.756 15.107,12.868 22.937,17.656 7.31,4.47 14.646,7.799 21.601,9.45 1.717,0.408 3.456,0.682 5.205,0.786 1.793,0.107 3.549,0.03 5.246,-0.267 2.034,-0.356 3.983,-1.018 5.818,-2.034 1.83,-1.014 3.496,-2.363 4.966,-4.094 0.547,-0.645 1.062,-1.358 1.549,-2.137 0.491,-0.783 0.892,-1.53 1.218,-2.251 3.141,-6.964 3.723,-12.187 4.425,-18.485 0.185,-1.661 0.378,-3.393 0.567,-4.803 0.322,-2.419 0.226,-5.035 -0.249,-7.814 -0.216,-1.26 -0.512,-2.563 -0.882,-3.904 0.296,-0.093 0.588,-0.195 0.874,-0.308 1.61,-0.631 2.979,-1.524 4.133,-2.618 1.207,-1.145 2.151,-2.492 2.873,-3.979 0.275,-0.569 0.525,-1.199 0.75,-1.876 0.143,-0.432 0.267,-0.86 0.373,-1.281 l 0.057,-0.101 c 0.157,-0.282 0.289,-0.534 0.398,-0.759 0.484,-0.998 0.846,-2.015 1.104,-3.029 0.273,-1.077 0.443,-2.188 0.528,-3.294 0.181,-2.359 -0.187,-4.944 -0.776,-7.197 -0.81,-3.097 -2.235,-5.871 -3.362,-6.888 -0.641,-0.577 -1.535,-1.297 -2.611,-2.163 l -0.02,-0.015 c -1.192,-0.96 -2.697,-2.172 -4.72,-3.999 -1.289,-1.162 -3.699,-4.4 -6.45,-8.555 -2.453,-3.707 -5.088,-8.026 -7.394,-12.206 2.718,0.946 5.789,2.092 9.076,3.372 9.513,3.707 20.029,8.645 29.381,13.432 11.885,6.082 21.837,11.886 25.389,14.566 1.188,0.896 1.848,1.438 2.419,1.908 l -0.004,0.006 0.006,0.006 h 0.013 l 0.022,0.019 c 4.453,3.667 7.773,6.401 13.841,2.829 l 0.093,-0.046 -0.002,-0.009 c 3.967,-2.377 5.665,-6.3 5.831,-10.49 0.147,-3.71 -0.985,-7.67 -2.776,-10.734 l 0.009,-0.005 -0.034,-0.036 c -0.982,-1.669 -2.104,-3.099 -3.326,-4.438 -1.114,-1.22 -2.333,-2.386 -3.604,-3.601 l 0.007,-0.006 -0.078,-0.062 c -1.788,-1.708 -3.73,-3.563 -5.153,-5.53 l -0.822,-6.546 -3.123,-2.437 c -1.094,-0.854 -3.591,-2.857 -6.458,-5.159 l -0.042,-0.033 -0.048,-0.048 -0.005,0.005 C 77.154,102.493 38.799,71.726 17.505,73.544 c -0.882,0.075 -1.734,0.194 -2.56,0.353 0.519,-0.8 0.924,-1.685 1.217,-2.648 0.137,-0.446 0.24,-0.876 0.31,-1.288 0.142,-0.216 0.277,-0.44 0.405,-0.67 v -0.016 c 0.125,-0.225 0.241,-0.455 0.349,-0.688 0.573,0.189 1.146,0.368 1.718,0.537 2.126,0.624 4.212,1.097 6.251,1.405 l 0.326,0.049 0.805,0.025 c 2.606,0.083 5.16,-0.173 7.615,-0.842 2.356,-0.641 4.598,-1.659 6.687,-3.116 1.957,-1.367 3.712,-3.073 5.214,-5.163 1.4,-1.946 2.575,-4.211 3.485,-6.827 V 54.64 l 0.215,-0.62 0.016,-0.016 0.115,-0.338 c 0.196,-0.411 0.398,-0.868 0.607,-1.372 0.202,-0.485 0.41,-1.037 0.625,-1.655 5.344,-15.355 2.425,-23.54 0.285,-38.317 0.648,-0.956 1.238,-1.978 1.78,-3.041 C 53.723,7.8 54.425,6.127 55.075,4.389 L 55.552,3.111 C 55.754,2.65 55.942,2.2 56.119,1.762 l 0.534,-1.391 1.463,-3.916 -7.731,-15.406 c 1.396,0.649 2.839,1.336 4.318,2.055 5.597,2.719 11.711,5.913 17.928,9.332 9.391,5.165 18.842,10.765 26.968,15.981 7.693,4.937 14.17,9.504 18.232,12.99 1.252,1.074 2.517,2 3.756,2.74 1.308,0.782 2.614,1.365 3.881,1.713 1.399,0.384 2.785,0.519 4.149,0.391 1.385,-0.131 2.721,-0.53 3.997,-1.212 1.535,-0.821 2.791,-1.914 3.743,-3.293 0.847,-1.228 1.429,-2.637 1.725,-4.231 0.312,-0.478 0.585,-0.986 0.819,-1.525 0.394,-0.907 0.673,-1.876 0.829,-2.908 0.187,-1.229 0.177,-2.599 -0.053,-4.107 -0.172,-1.127 -0.474,-2.359 -0.915,-3.694 V 5.218 l -0.233,-0.651 c -1.611,-4.506 -4.569,-9.549 -8.524,-14.877 -1.88,-2.533 -3.991,-5.136 -6.293,-7.782 1.265,-0.135 2.466,-0.457 3.593,-0.972 1.281,-0.587 2.428,-1.419 3.424,-2.504 0.877,-0.959 1.557,-2.004 2.023,-3.135 0.293,-0.711 0.501,-1.451 0.62,-2.222 0.755,-1.121 1.269,-2.345 1.525,-3.669 0.323,-1.654 0.217,-3.416 -0.348,-5.281 -0.39,-1.281 -1.051,-2.619 -2.02,-3.992 -0.502,-0.711 -1.095,-1.45 -1.789,-2.213 0.23,-1.423 0.22,-2.769 -0.009,-4.057 -0.367,-2.065 -1.281,-3.886 -2.664,-5.548 -1.251,-1.502 -2.681,-2.556 -4.287,-3.349 -1.443,-0.712 -2.973,-1.189 -4.622,-1.597 l -0.204,-0.052 c -1.763,-0.436 -3.456,-0.856 -5.179,-1.105 -1.928,-0.278 -3.837,-0.334 -5.779,0.035 -2.66,0.504 -4.931,1.485 -6.703,3.122 -1.668,1.54 -2.806,3.534 -3.308,6.092 -0.764,1.198 -1.306,2.579 -1.602,4.169 l -1.832,-1.516 c -3.118,-2.561 -6.342,-5.106 -9.629,-7.6 -13.034,-9.893 -26.557,-18.433 -38.056,-23.766 -10.691,-4.96 -19.976,-7.222 -26.141,-5.451 h -0.117 l -0.667,0.237 c -2.326,0.831 -4.465,2.428 -6.389,4.512 -1.953,2.115 -3.702,4.749 -5.192,7.554 -0.69,1.298 -1.383,2.758 -2.054,4.296 -0.699,1.6 -1.307,3.13 -1.808,4.528 -0.748,1.75 -1.422,3.528 -1.991,5.216 -1.695,-1.736 -3.414,-3.481 -5.15,-5.222 -3.456,-3.468 -6.924,-6.871 -10.303,-10.078 -7.189,-6.822 -14.285,-13.007 -20.626,-17.573 -6.752,-4.863 -12.818,-7.948 -17.546,-8.185 -2.406,-0.121 -4.768,0.161 -7.085,0.91 -2.309,0.746 -4.53,1.937 -6.658,3.629 -1.736,1.381 -3.408,3.121 -5.009,5.262 -1.542,2.058 -3.003,4.465 -4.378,7.256 -0.388,0.785 -0.742,1.585 -1.067,2.396 -0.318,0.797 -0.591,1.544 -0.82,2.245 -1.294,2.769 -2.195,5.697 -2.769,8.697 -0.178,0.925 -0.323,1.86 -0.438,2.799 -1.748,-1.743 -3.633,-3.439 -5.65,-4.956 -5.287,-3.971 -11.352,-6.584 -18.034,-5.538 h -0.06 c -0.125,0.022 -0.365,0.084 -0.481,0.084 -4.217,0.78 -7.877,2.777 -10.948,5.574 -3.254,2.966 -5.835,6.827 -7.695,11.056 v 0.016 c -0.302,0.686 -0.555,1.298 -0.758,1.83 -0.203,0.53 -0.408,1.112 -0.616,1.737 l -0.189,0.418 -0.016,0.016 c -0.594,1.351 -1.123,2.776 -1.582,4.248 l -1.981,-2.619 c -5.778,-7.611 -11.468,-14.706 -16.732,-20.609 -5.452,-6.113 -10.596,-11.14 -15.139,-14.441 -2.601,-1.889 -5.012,-3.52 -7.468,-4.785 -2.64,-1.362 -5.272,-2.262 -8.113,-2.546 -3.351,-0.336 -6.522,0.166 -9.652,1.717 -2.948,1.46 -5.772,3.816 -8.588,7.255 -1.252,1.529 -2.347,3.212 -3.291,5.005 -0.923,1.751 -1.693,3.605 -2.322,5.517 -0.372,0.804 -0.73,1.668 -1.072,2.582 -0.34,0.912 -0.628,1.768 -0.867,2.566 -0.925,-0.995 -1.86,-1.988 -2.801,-2.974 -2.506,-2.628 -5,-5.142 -7.426,-7.46 -5.081,-4.855 -10.081,-8.948 -14.679,-11.685 -4.514,-2.685 -8.746,-4.093 -12.47,-3.732 v -0.007 l -0.267,0.022 -0.263,0.031 c -3.316,0.501 -6.317,2.131 -8.96,4.501 -2.733,2.451 -5.065,5.675 -6.936,9.202 -0.614,1.155 -1.194,2.375 -1.736,3.631 -0.463,1.072 -0.929,2.279 -1.39,3.59 -1.409,3.188 -2.536,6.581 -3.286,9.736 -0.781,3.293 -1.168,6.426 -1.054,8.929 0.168,3.73 1.505,8.208 3.559,13.031 1.472,3.459 3.325,7.137 5.377,10.858 -1.239,0.818 -2.408,1.784 -3.5,2.9 -1.296,1.323 -2.495,2.862 -3.581,4.615 -3.324,-6.336 -6.531,-12.553 -9.569,-18.599 -4.249,-8.453 -8.338,-16.887 -12.198,-25.281 -4.691,-10.199 -9.037,-20.334 -12.912,-30.366 -3.835,-9.93 -7.214,-19.801 -10.015,-29.588 -0.188,-0.656 -0.527,-2.793 -0.876,-5.166 -0.462,-3.16 -0.77,-5.46 -0.958,-6.866 -0.118,-0.883 -0.216,-1.606 -0.317,-2.131 -0.084,-0.44 -0.185,-0.854 -0.314,-1.259 v -0.183 l -0.356,-0.796 c -0.286,-0.635 -0.623,-1.237 -1.012,-1.797 -0.395,-0.572 -0.841,-1.104 -1.335,-1.591 -1.015,-1.004 -2.223,-1.812 -3.6,-2.381 -1.281,-0.528 -2.698,-0.838 -4.228,-0.889 -1.052,-0.033 -2.142,0.058 -3.243,0.293 -1.01,0.217 -2.063,0.56 -3.145,1.044 -1.154,0.517 -2.383,1.225 -3.657,2.153 -1.134,0.826 -2.285,1.808 -3.424,2.961 -1.232,1.247 -2.446,2.64 -3.625,4.135 -1.229,1.557 -2.378,3.172 -3.434,4.802 -1.589,2.452 -4.061,6.903 -5.934,11.244 -1.432,3.319 -2.566,6.708 -2.831,9.418 -0.54,5.503 0.627,12.373 3.096,20.189 2.6,8.237 6.711,17.728 11.813,27.89 5.666,11.287 12.515,23.469 19.789,35.642 6.579,11.01 13.496,22.008 20.196,32.329 -5.338,-2.157 -10.531,-4.338 -15.569,-6.548 -6.164,-2.703 -12.204,-5.484 -18.113,-8.357 -0.123,-0.532 -0.289,-1.047 -0.496,-1.545 -0.467,-1.128 -1.133,-2.163 -1.969,-3.095 l -2.636,-2.937 -0.418,0.375 c -0.955,-0.659 -1.991,-1.279 -2.995,-1.769 l -18.088,-8.823 c -3.118,-1.704 -5.875,-2.655 -8.312,-2.974 -2.898,-0.379 -5.357,0.118 -7.441,1.317 l -0.427,0.246 -0.302,0.282 c -2.275,2.117 -3.995,4.338 -5.145,6.663 -1.209,2.446 -1.778,4.974 -1.687,7.587 -0.069,2.639 0.454,5.398 1.207,8.043 0.722,2.531 1.64,4.934 2.429,7 l 0.005,-0.002 0.204,0.538 0.005,-0.002 0.38,1.018 -0.013,0.005 c 0.973,2.625 1.978,5.291 3.23,8.164 1.211,2.78 2.569,5.5 4.197,8.081 3.455,5.48 4.448,6.914 10.061,10.413 1.809,1.127 3.804,2.065 6.015,2.778 8.723,2.813 16.928,5.39 24.592,7.712 6.49,1.966 13.111,3.908 19.908,5.833 -5.249,1.571 -10.034,4.157 -14.193,7.945 m -8.335,20.899 c 0.149,1.939 -1.414,6.986 -2.44,8.688 -0.923,1.532 -2.505,2.385 -4.503,2.742 -0.756,0.134 -1.507,0.128 -2.239,0.016 -0.744,1.981 -2.145,3.942 -4.388,5.874 -0.859,0.741 -1.817,1.314 -2.859,1.693 -1.678,0.612 -3.465,0.708 -5.295,0.189 l -0.122,0.319 c -0.575,1.387 -1.261,3.562 -1.943,4.765 -0.562,0.989 -1.361,1.797 -2.378,2.382 v 0.022 c -1.424,0.816 -3.014,1.061 -4.711,0.628 -1.301,-0.331 -2.601,-1.092 -3.767,-2.371 -0.544,-0.338 -1.025,-0.693 -1.447,-1.057 -0.469,-0.406 -0.908,-0.87 -1.314,-1.378 -0.481,-0.601 -0.862,-1.216 -1.156,-1.826 -0.354,-0.739 -0.591,-1.471 -0.725,-2.175 -0.448,-2.379 1.163,-6.827 2.24,-8.969 v -0.022 c 0.657,-1.307 1.676,-2.368 2.987,-3.062 0.425,-0.226 0.871,-0.406 1.334,-0.54 -0.168,-0.399 -0.318,-0.81 -0.446,-1.228 -0.586,-1.925 -0.789,-4.167 -0.261,-6.362 0.28,-1.164 2.79,-7.075 3.419,-7.869 1.042,-1.317 2.438,-2.363 4.228,-2.933 1.564,-0.499 3.34,-0.595 5.317,-0.12 1.779,0.427 3.786,1.35 6.005,2.949 0.439,-0.194 0.899,-0.348 1.374,-0.464 1.388,-0.338 2.895,-0.313 4.294,0.011 2.074,0.482 4.33,1.934 5.933,3.753 1.528,1.733 2.682,3.986 2.863,6.345 m 133.917,19.497 c -8.26,-7.204 -20.465,-16.123 -34.144,-24.194 1.854,-1.826 3.595,-4.557 5.275,-8.357 l 0.258,-0.582 c 9.292,1.63 18.717,3.091 28.343,4.38 14.39,1.926 28.97,3.432 43.957,4.514 6.33,0.456 10.583,-0.632 12.877,-2.355 1.939,-1.456 2.941,-3.321 3.074,-5.437 1.105,-1.348 1.624,-2.926 1.593,-4.656 -0.036,-2.026 -0.87,-3.909 -2.43,-5.504 -2.319,-2.374 -7.098,-4.555 -13.413,-5.085 -9.161,-0.771 -18.523,-1.924 -28.006,-3.424 l 0.553,-0.645 c 2.382,-2.86 3.599,-5.297 3.984,-7.398 3.298,-5.678 1.394,-9.393 -1.903,-12.138 -0.253,-0.211 -0.505,-0.404 -0.754,-0.581 0.113,-1.389 -0.371,-2.959 -1.636,-4.822 -1.058,-1.556 -3.088,-3.281 -6.688,-5.504 -1.611,-0.995 -3.481,-2.57 -5.318,-4.116 -2.565,-2.16 -5.078,-4.275 -7.579,-5.562 -0.394,-0.203 -0.769,-0.373 -1.126,-0.513 -1.54,-0.602 -3.047,-0.831 -4.482,-0.75 0.339,-4.803 -1.181,-12.127 -6.553,-13.748 -3.519,-5.002 -10.072,-15.773 -14.715,-25.354 l -0.969,-2.024 c 1.892,1.204 3.929,2.601 6.045,4.127 13.966,10.068 30.54,25.116 33.558,28.464 l 0.558,0.631 c 0.647,0.988 1.405,2.208 2.185,3.465 2.776,4.472 5.816,9.368 9.235,12.046 2.474,1.937 4.979,2.761 7.179,2.662 5.306,-0.239 8.365,-6.53 8.927,-11.031 0.316,-2.52 -0.404,-5.855 -2.558,-9.488 -1.328,-2.24 -2.605,-3.478 -3.883,-4.717 -0.723,-0.702 -1.448,-1.404 -2.014,-2.359 l -0.005,0.003 -1.994,-3.454 c -3.21,-5.563 -5.281,-9.151 -6.584,-13.708 l -0.006,0.001 v -0.019 c -0.38,-1.331 -1.149,-4.017 -1.641,-6.744 7.248,2.155 17.76,10.983 28.926,22.457 20.698,21.268 42.429,51.131 51.863,66.918 l 0.514,0.822 c 1.712,2.679 3.795,5.027 6.189,6.458 3.361,2.008 7.013,2.376 10.803,0.112 l 0.284,-0.182 c 1.309,-0.836 2.538,-1.917 3.663,-3.165 2.897,-3.211 5.56,-7.993 7.17,-12.428 l 0.348,-1.008 c 0.457,-1.006 0.87,-2.016 1.231,-3.009 1.933,-5.323 2.366,-10.728 0.285,-13.986 -0.403,-0.629 -0.852,-1.173 -1.352,-1.623 l -0.276,-0.25 -0.525,-0.329 C -63.1,15.243 -63.891,14.374 -65.022,13 -69.78,7.221 -77.205,-4.408 -83.013,-15.408 c -1.584,-3.001 -3.061,-5.886 -4.327,-8.472 18.422,11.767 35.854,29.684 52.526,46.821 5.77,5.931 11.453,11.772 17.085,17.271 -0.67,0.784 -1.184,1.695 -1.523,2.696 -0.186,0.551 -0.316,1.134 -0.389,1.738 -0.509,0.684 -0.909,1.451 -1.189,2.279 -0.948,2.802 -0.47,6.434 2.057,9.47 2.595,3.12 5.259,4.146 7.622,5.054 0.504,0.194 0.915,0.352 0.92,0.68 0.076,4.497 2.571,7.467 6.148,9.451 2.531,1.403 5.592,2.209 8.426,2.718 1.685,0.303 3.114,0.192 4.275,-0.233 1.949,-0.714 3.187,-2.072 3.762,-3.964 0.169,-0.553 0.259,-1.106 0.271,-1.656 0.595,-0.653 1.029,-1.445 1.307,-2.361 0.298,-0.971 0.349,-1.943 0.168,-2.902 3.925,1.673 7.823,2.845 11.658,3.425 l 0.195,0.029 0.472,0.015 c 4.321,0.136 8.397,-0.792 11.913,-3.246 3.118,-2.176 5.619,-5.433 7.228,-10.051 l 0.424,-1.232 c 0.423,-0.868 0.809,-1.795 1.154,-2.786 5.268,-15.138 1.253,-20.941 -0.871,-36.708 1.756,-2.187 3.916,-6.527 5.071,-9.619 l 0.54,-1.446 c 0.367,-0.838 0.713,-1.701 1.038,-2.571 l 0.863,-2.307 -11.816,-23.54 c 8.595,3.298 20.443,9.164 32.543,15.819 18.483,10.166 37.238,22.034 45.866,29.435 2.158,1.851 4.275,3.145 6.102,3.648 1.86,0.51 3.626,0.371 5.248,-0.496 1.922,-1.028 3.124,-2.687 3.477,-5.041 l 0.06,-0.524 c 0.792,-0.924 1.308,-2.084 1.52,-3.493 0.248,-1.649 -0.037,-3.803 -0.996,-6.507 L 135.793,5.923 V 5.9 c -3.075,-8.599 -11.668,-19.579 -22.832,-30.754 l 2.754,1.088 c 3.177,1.257 6.126,1.906 8.22,1.766 1.959,-0.131 3.616,-0.856 4.879,-2.235 1.11,-1.211 1.707,-2.605 1.724,-4.18 1.507,-1.739 1.979,-3.841 1.229,-6.313 -0.516,-1.695 -1.857,-3.709 -4.242,-6.013 l -0.154,-0.149 c 1.125,-3.402 0.533,-6.014 -1.342,-8.267 -1.715,-2.061 -4.015,-2.935 -6.817,-3.629 l -0.204,-0.051 c -3.315,-0.823 -6.365,-1.579 -9.283,-1.024 -3.887,0.737 -6.458,2.702 -6.967,6.842 -1.588,1.961 -2.124,4.993 -1.263,9.532 0.155,0.819 0.359,1.626 0.621,2.416 C 96.194,-40.345 89.896,-45.512 83.535,-50.34 59.129,-68.862 33.025,-82.534 22.313,-78.735 h -0.022 l -0.017,0.006 c -3.604,1.288 -6.872,5.409 -9.411,10.19 -1.408,2.65 -2.677,5.629 -3.663,8.389 -1.894,4.41 -3.273,8.918 -3.583,11.487 l -0.018,0.152 c -6.514,-6.781 -13.521,-13.874 -20.274,-20.281 -14.168,-13.447 -27.842,-24.282 -35.629,-24.673 -3.888,-0.196 -7.588,0.898 -11.092,3.687 -2.979,2.371 -5.751,5.993 -8.302,11.169 -0.694,1.405 -1.27,2.86 -1.74,4.348 -2.534,5.307 -3.429,11.279 -3.287,17.163 0.025,1.005 0.079,2.009 0.162,3.007 -6.329,-7.568 -16.064,-18.68 -27.228,-16.659 l -0.063,0.008 c -7.234,1.338 -12.588,7.194 -15.729,14.335 -0.48,1.094 -0.911,2.224 -1.289,3.378 l -0.289,0.638 c -1.669,3.794 -2.731,8.035 -3.11,12.131 -2.396,-3.277 -4.813,-6.53 -7.228,-9.711 -11.312,-14.898 -22.461,-27.989 -31.048,-34.228 -4.945,-3.592 -9.06,-6.143 -13.644,-6.603 -5.233,-0.524 -9.873,1.553 -14.784,7.547 -2.252,2.747 -3.889,6.02 -5.003,9.489 -0.775,1.641 -1.411,3.365 -1.915,5.128 -0.653,2.29 -1.087,4.676 -1.325,7.051 -5.086,-5.719 -10.364,-11.328 -15.334,-16.076 -9.273,-8.861 -18.055,-14.967 -24.094,-14.34 l -0.268,0.023 c -5.334,0.806 -9.809,5.665 -12.981,11.641 -1.155,2.177 -2.169,4.561 -3,6.954 -2.627,5.945 -4.207,12.689 -4.016,16.902 0.289,6.42 4.884,16.078 10.469,25.713 -2.24,0.788 -4.311,2.126 -6.165,4.021 -2.487,2.539 -4.601,6.114 -6.195,10.717 -9.124,-17.2 -17.847,-34.318 -25.571,-51.113 -9.454,-20.558 -17.511,-40.83 -23.144,-60.513 -0.482,-1.685 -1.493,-9.254 -1.942,-12.606 -0.201,-1.504 -0.336,-2.475 -0.677,-3.245 v -0.022 c -0.366,-0.817 -0.873,-1.551 -1.51,-2.18 -1.298,-1.283 -3.062,-2.067 -5.177,-2.139 -1.409,-0.045 -2.992,0.253 -4.652,0.996 -1.776,0.795 -3.783,2.165 -5.872,4.279 -2.375,2.404 -4.596,5.28 -6.563,8.315 -2.559,3.948 -7.625,13.581 -8.145,18.88 -1.017,10.371 4.991,26.984 14.507,45.94 12.389,24.683 30.694,54.008 46.608,78 -2.354,-0.904 -4.712,-1.821 -7.074,-2.756 -13.649,-5.404 -26.976,-11.202 -39.998,-17.592 l -0.46,-0.226 c 0.003,-0.143 0.003,-0.29 -0.001,-0.438 -0.038,-1.562 -0.655,-2.96 -1.717,-4.144 l -0.012,0.01 c -0.979,-1.085 -2.927,-2.499 -4.829,-3.427 l -18.099,-8.83 c -5.496,-3.036 -9.361,-3.328 -12.037,-1.788 -3.849,3.583 -5.739,7.353 -5.572,11.318 -0.154,4.403 1.863,9.683 3.384,13.665 l 0.596,1.588 c 1.978,5.332 4.037,10.731 7.055,15.517 3.579,5.675 7.031,9.305 13.937,11.532 16.64,5.365 32.656,10.241 48.354,14.626 14.944,4.173 29.644,7.909 44.378,11.208 0.639,0.843 1.285,1.67 1.937,2.487 -3.82,-1.604 -7.639,-3.043 -11.412,-4.27 -19.999,-6.507 -39.038,-7.208 -51.492,4.136 -2.119,1.929 -3.486,4.581 -4.294,7.542 -1.313,2.422 -2.046,5.298 -2.358,8.276 -0.324,3.091 -0.196,6.403 0.182,9.342 l -1.263,1.294 c -4.296,5.314 -10.867,18.359 -7.203,21.14 3.287,2.495 17.403,-5.402 20.95,-6.996 4.372,-1.962 8.439,-3.362 12.36,-4.253 4.573,-1.04 9.018,-1.4 13.591,-1.17 -0.168,0.51 -0.3,1.045 -0.401,1.602 l -0.674,1.142 -0.172,0.398 c -3.862,8.938 4.199,26.285 17.116,45.271 14.85,21.825 36.242,46.788 52.144,62.443 -27.297,-13.027 -55.163,-30.045 -69.906,-39.641 0.05,-0.218 0.093,-0.444 0.126,-0.679 0.404,-2.798 -1.17,-5.578 -5.188,-8.347 l -0.003,0.005 -18.525,-12.923 c -2.6,-2.013 -4.972,-3.342 -7.127,-4.039 -2.918,-0.944 -5.543,-0.831 -7.885,0.253 -5.234,2.42 -8.128,12.107 -8.477,17.445 l -0.044,0.676 0.11,0.637 c 0.429,2.468 0.961,5.002 1.593,7.599 0.645,2.653 1.33,5.121 2.052,7.403 0.438,1.384 0.74,2.45 1.044,3.522 1.878,6.621 3.808,13.427 10.097,17.993 18.923,13.738 43.682,27.598 69.201,38.453 23.349,9.932 47.388,17.371 68.282,19.946 6.781,0.835 13.449,1.152 19.637,0.693 5.754,-0.426 11.119,-1.536 15.822,-3.53 4.429,-1.877 8.379,-5.49 11.497,-9.727 2.687,-3.652 4.83,-7.867 6.144,-11.834 1.079,-2.378 1.904,-4.762 2.417,-6.99 1.504,-6.528 1.203,-13.717 -0.296,-21.154 -1.439,-7.136 -3.964,-14.469 -7.024,-21.627 -1.809,-4.231 -3.691,-8.334 -5.656,-12.322 4.673,6.224 9.401,11.655 13.414,14.871 l -0.009,0.011 c 2.227,1.783 4.632,2.64 6.947,2.708 0.227,0.008 0.453,0.006 0.677,-0.002 -0.195,0.533 -0.35,1.069 -0.449,1.584 -0.251,1.31 -0.217,2.663 0.219,3.967 0.368,1.098 0.939,2.048 1.748,2.802 l -0.035,1.212 0.872,1.434 c 1.758,2.887 6.501,10.056 10.883,15.847 3.089,4.082 6.17,7.665 8.394,9.191 1.43,0.981 2.998,1.674 4.76,1.942 1.369,0.209 2.779,0.151 4.238,-0.237 l 3.998,2.347 c 1.129,0.662 2.267,1.241 3.369,1.691 2.728,1.114 5.656,1.69 8.48,1.299 3.401,-0.472 6.39,-2.196 8.464,-5.729 1.976,-3.37 3.054,-7.163 4.668,-10.692 3.009,-6.575 0.82,-9.471 -3.658,-11.52 -1.013,-0.463 -1.882,-0.709 -2.823,-0.974 -0.486,-0.138 -0.997,-0.283 -1.267,-0.374 -10.509,-3.538 -20.205,-9.78 -30.021,-16.099 l -0.149,-0.097 c -0.991,-0.638 -1.62,-1.031 -2.131,-1.35 -0.849,-0.53 -1.284,-0.802 -1.346,-0.86 l -0.859,-1.262 -1.107,-1.606 c -0.514,-0.744 -1.089,-1.394 -1.725,-1.908 h -0.022 c -1.108,-0.896 -2.398,-1.472 -3.877,-1.617 0.879,-2.54 1.011,-5.689 0.027,-9.149 -1.718,-6.038 -2.917,-6.22 -7.082,-6.849 -0.23,-0.035 -0.495,-0.075 -0.711,-0.122 -0.25,-0.054 -2.579,-4.668 -5.401,-10.462 -2.876,-5.903 -5.677,-12.613 -7.56,-17.756 6.316,2.399 12.686,5.519 18.592,8.888 9.555,5.453 17.759,11.476 22.476,16.108 1.248,1.226 1.972,1.768 2.465,2.137 0.175,0.13 -0.226,-0.17 0.061,0.313 1.268,2.134 2.547,3.725 4.022,5.019 1.566,1.372 3.2,2.28 5.128,3.012 4.16,1.58 8.727,0.405 10.151,-4.095 0.882,-2.782 2.336,-5.132 1.743,-8.231 -0.465,-2.423 -2.027,-5.454 -3.737,-7.469 -2.905,-3.422 -5.474,-7.543 -7.488,-11.805 -2.056,-4.35 -3.51,-8.776 -4.131,-12.685 -0.304,-1.913 -0.425,-3.831 -0.33,-5.549 4.188,-1.04 11.72,1.735 20.125,6.122 2.592,1.352 5.232,2.857 7.866,4.459 -2.745,1.726 -4.65,4.214 -5.895,7.181 -0.332,0.793 -0.613,1.62 -0.848,2.477 -0.264,0.497 -0.509,1.011 -0.73,1.54 -1.292,3.081 -1.813,6.693 -1.813,10.431 -0.001,7.573 2.256,15.978 4.338,20.795 5.882,13.605 18.968,30.756 34.093,44.777 13.612,12.62 29.061,22.895 42.755,26.146 3.057,0.726 6.051,0.962 8.853,0.471 3.258,-0.57 6.138,-2.062 8.444,-4.78 0.916,-1.079 1.622,-2.225 2.177,-3.457 3.635,-8.055 3.565,-13.799 4.683,-22.171 0.544,-4.079 -0.386,-9.05 -2.51,-14.648 1.767,0.213 3.339,-0.009 4.734,-0.557 2.318,-0.909 3.88,-2.567 4.881,-4.628 0.45,-0.926 0.765,-1.917 0.972,-2.929 0.222,-0.347 0.424,-0.711 0.607,-1.088 0.739,-1.523 1.115,-3.221 1.244,-4.897 0.334,-4.328 -1.683,-9.804 -2.836,-10.844 -0.622,-0.56 -1.452,-1.228 -2.452,-2.033 -1.26,-1.015 -2.85,-2.294 -4.9,-4.145 -3.025,-2.731 -10.417,-13.815 -15.688,-23.703 -1.355,-2.541 -2.662,-4.782 -3.705,-6.532 4.049,0.801 10.865,3.158 18.703,6.212 21.946,8.55 49.178,23.582 55.731,28.524 1.115,0.842 1.895,1.483 2.576,2.045 3.234,2.662 5.643,4.649 9.334,2.475 5.394,-3.171 4.62,-10.966 1.711,-15.909 -1.619,-2.75 -3.864,-4.894 -6.319,-7.239 -2.159,-2.062 -4.525,-4.323 -6.225,-6.947 l -0.739,-5.882 -1.84,-1.436 C 99.678,125.645 97.278,123.719 94.526,121.51 75.167,105.974 37.584,75.811 17.83,77.497 13.818,77.84 10.639,79.203 7.783,81.268 5.297,83.066 3.208,85.331 0.99,87.891 l -0.11,0.132 c -2.774,3.416 -4.574,6.818 -5.606,10.244 -1.627,3.334 -2.444,6.677 -2.637,10.065 -0.106,1.842 -0.021,3.669 0.222,5.492 C -17.457,103.012 -28.232,93.055 -38.373,84.939 -57.529,69.607 -75.18,60.705 -84.881,64.153 c -3.49,1.241 -6.491,4.777 -8.771,9.307 -0.892,1.772 -1.71,3.748 -2.425,5.81 -1.725,3.881 -3.102,8.46 -3.863,12.711 -0.542,3.021 -0.675,5.954 -0.491,8.828 -3.546,-3.406 -7.204,-6.784 -10.837,-9.936 -14.135,-12.266 -28.486,-21.197 -37.148,-16.976 -5.124,2.498 -8.242,7.07 -9.916,12.563 -1.515,3.058 -2.422,6.58 -2.855,10.295 -1.132,9.707 1.082,21.144 3.895,27.669 l 0.064,0.147 c -9.585,-12.728 -20.71,-24.46 -33.859,-35.929 M 23.7,27.28 C 15.216,21.717 5.429,12.499 -3.022,2.558 c -7.151,-8.412 -17.997,-22.938 -25.793,-37.044 -6.392,-11.565 -9.931,-16.822 2.839,-5.244 17.003,15.413 38.748,40.174 51.952,60.02 7.21,10.837 11.004,15.7 -2.276,6.99"
             style="fill:#ffffff;fill-opacity:1;fill-rule:evenodd;stroke:none"
             id="path28" />
        </g>
      </g>
    </g>
  </g>
</svg>
