<svg xmlns="http://www.w3.org/2000/svg" xmlns:xlink="http://www.w3.org/1999/xlink" version="1.1" width="515.566pt" height="402.18pt" viewBox="0 0 515.566 402.18">
<defs>
<clipPath id="clip_0">
<path transform="matrix(1,0,0,-1,0,402.18)" d="M0 402.18H515.566V0H0Z"/>
</clipPath>
</defs>
<g id="layer_1" data-name="">
<g clip-path="url(#clip_0)">
<path transform="matrix(1,0,0,-1,365.7674,240.12679)" d="M0 0C16.459 19.36 37.977 36.208 46.508 30.495 56.429 14.468-38.507-87.193-36.298-65.678-36.024-47.657-12.495-14.699 0 0M-3.794 26.907C9.191 39.498 22.92 48.822 35.566 50.735 41.541 50.925 46.649 48.48 49.17 41.241 52.221 32.474 54.489 25.839 54.089 19.729 53.782 15.063 48.272 1.602 46.005-2.545 47.367-1.306 46.431-.903 48.323-.725 51.054-.465 53.271-4.609 54.992-9.215L53.122-12.942 41.763-35.569C39.809-40.438 34.847-46.969 43.82-45.228 61.608-41.772 115.988-10.783 133.034 3.841 137.199 7.414 139.991 7.785 137.815 1.648 127.704-26.862 49.174-85.9 31.547-79.597 26.654-77.849 20.812-63.279 20.204-58.241 19.591-53.161 20.685-48.316 23.342-42.577 24.139-40.854 25.077-39.052 26.152-37.138 30.312-29.729 27.935-34.928 31.802-27.332 17.525-43.169-28.336-93.795-43.211-94.021-48.261-94.275-52.922-91.097-57.245-82.324-62.229-72.214-59.943-58.592-56.453-49.646-53.191-41.285-47.167-30.61-42.739-22.615-41.306-20.239-39.372-17.302-36.498-13.28-44.871-23.753-45.036-24.376-48.83-29.354-55.636-37.489-63.07-46.663-69.357-54.061-74.637-60.272-84.271-73.054-93.431-71.395-103.752-69.526-109.354-53.218-107.462-42.989-104.655-32.814-99.386-18.478-95.371-8.843-113.467-35.13-140.312-74.044-156.524-85.822-164.965-91.954-170.157-94.491-177.211-85.88-181.42-80.743-183.004-72.998-182.815-66.265-182.666-60.944-179.24-50.641-175.549-41.788-189.839-60.086-218.691-93.622-228.708-92.581-236.139-91.457-242.63-74.243-242.302-66.973-241.775-55.313-223.043-28.59-215.37-17.086L-224.463-27.208C-233.316-35.877-242.351-33.153-246.631-18.664-227.478-20.754-223.411-15.783-202.705-5.211L-202.706-5.229C-196.682-2.522-196.214-12.668-197.444-15.637-198.436-18.032-199.025-18.954-200.657-18.373-205.399-24.062-225.333-56.885-222.711-63.878-219.145-73.387-173.336-32.458-168.101-26.624L-167.234-25.646C-164.128-20.968-160.346-13.911-156.878-11.195-152.206-7.536-149.41-11.123-153.293-17.674-155.187-20.867-157.296-21.555-159.19-24.749-163.814-32.865-166.605-37.135-168.352-43.243-169.428-47.008-173.458-61.063-167.39-61.696-145.233-64.013-93.476 3.798-77.289 30.883-74.659 35.284-71.083 38.566-67.417 36.225-61.414 32.392-55.036 17.07-58.406 14.029-65.354 9.675-94.863-39.188-88.504-44.425-87.09-45.588-83.562-43.843-79.495-41.465-52.084-25.44-27.329 4.088-3.794 26.907M-171.17 11.353C-169.781 10.225-170.021 9.003-175.767 5.452-179.916 2.891-184.565-2.088-188.287-4.003-191.504-5.66-194.32-3.854-195.413-1.062-196.092 .675-196.106 2.795-195.138 4.7-190.5 13.826-179.746 36.848-168.571 23.427-160.155 13.322-176.064 15.326-171.17 11.353M-250.192-7.872C-245.833 .22-240.329 11.621-234.25 21.82-202.095 31.471-169.366 38.24-138.805 40.809-126.387 41.853-123.236 49.557-138.06 48.487-168.028 46.325-195.927 42.524-223.534 37.106-221.121 39.84-218.674 42.066-216.222 43.556-221.527 55.554-225.437 52.254-231.865 44.588-234.946 40.915-237.963 37.383-240.784 33.505-271.32 26.756-301.952 18.027-335.094 7.341-344.664 4.255-348.708-6.107-352.483-16.283-354.881-22.746-361.279-37.258-348.329-29.987L-330.162-21.125C-327.169-19.665-324.568-17.089-329.712-19.033L-340.071-22.95-343.802-24.573C-337.396-20.38-330.474-16.519-323.143-12.922-296.482 .159-269.371 10.508-241.257 19.879L-257.815 9.226C-287.692-34.571-334.844-109.456-326.759-128.125-324.266-133.885-320.371-140.336-315.939-144.822-311.738-149.073-308.643-148.973-307.959-147.445-307.912-147.341-306.36-134.888-305.628-132.329-294.226-92.483-272.962-50.158-250.192-7.872M-5.477 42.526C-8.688 38.666-4.955 33.67 .193 39.748 .541 40.158 3.062 45.702 3.648 46.845 4.383 48.275 1.486 45.732 14.553 56.352 16.269 57.748 16.544 58.878 14.281 58.471 9.633 57.636 4.448 55.944 4.378 51.796 4.26 44.778-1.422 47.398-5.477 42.526M122.553-40.961C118.308-42.641 116.637-45.499 116.015-48.777 114.604-56.215 119.451-54.927 125.215-53.499 128.71-52.632 130.677-51.646 128.859-47.742 127.555-44.941 128.324-45.411 130.948-42.876 136.689-37.33 132.865-36.882 126.744-39.303Z" fill="#ffd700" fill-rule="evenodd"/>
<path transform="matrix(1,0,0,-1,343.6737,106.8143)" d="M0 0C.604-1.323 2.349-1.979 5.943-1.447 15.993 .038 30.103 7.163 38.576 11.641 48.763 22.951 57.712 35.098 61.43 45.277 66.905 60.268 61.271 64.477 48.395 55.344 42.735 51.329 36.995 47.194 31.421 42.554 25.568 37.683-4.099 8.989 0 0M-116.811-13.012C-109.481 .19-96.585 19.157-88.138 25.917-83.363 29.74-78.42 25.678-80.471 18.465-81.347 15.386-81.733 15.988-83.994 15.499-89.395 14.329-102.592-18.163-103.637-24.819-104.644-31.229-105.206-31.739-99.436-30.054-79.845-24.334-58.38-10.432-49.126-1.349-46.606 1.126-47.113-.138-45.688 2.258-43.771 5.482-42.049 6.87-39.43 7.864-34.8 9.624-36.736 3.961-39.188 1.071-45.725-6.626-50.68-17.404-52.075-26.198-53.105-32.687-52.39-39.446-49.079-41.212-34.502-48.985 6.966-17.471 19.985-5.169 12.667-8.885-3.722-18.788-9.928-18.788-25.613-18.79-20.939 4.936-16.976 14.104-6.444 38.464 28.994 75.329 55.979 81.736 60.681 82.852 64.897 82.514 67.628 79.296 70.608 75.783 70.413 69.659 71.619 60.62 72.743 52.195 65.022 37.165 52.889 20.265 56.051 22.389 59.418 24.768 63.27 27.547 66.715 31.18 70.179 34.096 73.555 35.853 84.021 41.299 81.569 26.92 80.535 25.989 79.044 24.645 76.625 22.918 73.184 19.812 67.262 14.464 47.412-17.557 50.877-22.036 58.949-32.468 126.025 3.232 137.031 11.532 141.47 14.88 145.108 18.961 140.756 11.566 138.064 6.995 131.479 3.187 127.634-3.564L127.033-8.337C111.986-20.082 67.666-58.072 47.751-56.372 42.039-55.883 38.658-52.463 34.736-47.936 27.603-39.148 28.409-30.765 31.944-21.633 36.42-10.069 44.546 2.589 51.642 12.843 48.781 10.878 45.868 8.987 42.913 7.165 11.753-34.256-37.761-75.635-53.537-70.026-57.759-68.527-61.839-58.874-63.326-50.576-65.673-37.488-58.694-25.318-52.783-11.842-67.328-27.763-104.327-66.446-116.472-60.528-128.13-54.845-125.391-31.486-121.033-21.379-120.053-19.106-118.598-16.23-116.811-13.012M-67.029 39.443C-56.878 45.978-46.858 52.446-35.592 56.24-32.378 57.322-29.333 57.286-31.201 61.368-31.969 63.045-32.784 64.724-33.468 66.396-35.86 72.256-41.817 71.039-46.575 68.246L-52.545 64.742-54.102 65.024C-56.052 65.838-57.729 65.43-59.237 64.395-63.426 61.521-74.085 45.665-76.869 41.091L-76.758 37.367C-80.295 38.313-78.906 34.52-77.564 32.859-76.145 31.104-74.933 31.562-74.073 32.808-70.864 37.46-72.244 36.086-67.029 39.443M-312.509-74.821C-318.499-79.56-321.252-77.423-321.89-74.772-322.49-72.277-321.185-69.42-319.981-68.511-317.128-60.688-313.555-59.405-311.256-61.383-305.659-66.205-308.76-70.57-312.509-74.821M-324.469-58.011C-323.774-57.281-321.474-55.058-322.589-54.523-322.258-52.776-323.105-51.82-324.461-53.347L-324.509-53.402C-324.625-53.536-324.744-53.687-324.866-53.858L-324.881-53.879-325.04-53.956-325.188-54.033-325.599-54.266C-326.176-54.623-326.622-55.023-326.953-55.436-327.354-55.938-327.584-56.46-327.677-56.947-328.013-58.731-326.466-60.026-324.55-58.093ZM-306.602-69.726C-307.163-70.132-308.053-70.549-308.546-72.573-309.082-74.77-307.318-75.35-305.614-74.955-303.819-74.538-301.388-72.136-301.222-69.973-301.082-68.15-302.354-68.4-303.618-69.069-304.325-69.443-304.566-69.798-304.84-69.58-305.766-68.843-306.047-69.323-306.602-69.726M-262.314 19.652C-237.405 36.366-143.168 94.352-118.285 77.939-116.059 74.498-117.086 66.949-119.498 58.45-132.507 12.625-168.417-24.763-208.302-49.417-216.607-53.836-224.421-57.387-232.099-59.742-229.013-53.697-226.076-47.382-222.916-41.291-209.533-16.041-197.308 4.991-180.556 25.46-174.089 33.362-167.422 40.635-160.033 47.924-155.543 48.329-154.433 47.553-152.824 51.993-151.566 55.465-147.956 70.293-156.313 66.361-164.568 62.48-169.085 59.1-176.173 52.35-204.197 25.664-253.878-36.013-247.049-51.817-245.234-54.834-242.944-59.034-240.112-62.205-235.608-67.25-235.133-65.089-232.323-60.365-232.642-62.936-232.771-68.168-235.476-69.171-238.693-70.364-243.799-65.267-246.615-62.541-259.683-64.06-271.465-61.527-286.679-53.289-295.949-48.269-292.286-53.779-288.211-57.952L-282.9-63.392C-284.479-68.742-285.25-80.038-280.724-84.161-254.785-107.786-190.838-68.843-165.37-46.628-138.358-23.067-120.113 1.598-106.25 34.025-100.381 47.752-96.613 61.909-99.241 73.314-100.991 80.911-107.104 90.803-114.385 93.89-123.032 97.556-134.72 97.812-146.953 96.304-189.681 91.038-246.233 64.763-281.789 38.951-287.52 34.79-288.722 27.016-290.839 20.327-292.302 15.709-293.458 10.96-294.307 6.081-293.707-3.081-289.767-5.843-281.465 .624L-262.763 13.67C-258.739 16.443-259.346 17.385-262.801 17.214-265.637 17.074-263.699 18.723-262.314 19.652" fill="#0057b8" fill-rule="evenodd"/>
<path transform="matrix(1,0,0,-1,481.7821,288.90419)" d="M0 0C.622 3.278 2.293 6.137 6.538 7.816L10.729 9.475C16.851 11.896 20.675 11.447 14.934 5.901 12.31 3.366 11.54 3.836 12.845 1.035 14.662-2.869 12.695-3.854 9.2-4.722 3.437-6.149-1.411-7.437 0 0M-293.664 185.418C-279.818 202.236-268.983 221.27-263.078 242.074-261.96 246.011-261.169 249.663-260.923 252.628-266.391 254.253-274.734 253.135-284.658 250.254L-284.479 249.882C-283.187 247.054-281.792 242.866-281.822 239.877-281.868 235.499-283.282 230.157-284.016 228.131-286.602 220.995-288.537 220.774-294.069 220.472-296.435 218.104-298.737 215.72-300.984 213.314-303.694 210.413-306.257 207.549-308.691 204.711L-308.935 204.45-308.952 204.405-309.569 203.678C-318.609 193.033-326.289 182.31-333.447 170.967-340.445 159.876-346.991 148.12-353.835 135.237-352.285 136.015-350.7 136.837-349.08 137.699L-349.077 137.694C-328.606 150.39-309.237 166.503-293.664 185.418M-169.31 243.458C-167.441 239.375-170.486 239.412-173.7 238.33-184.967 234.536-194.986 228.068-205.138 221.533-210.353 218.176-208.973 219.55-212.182 214.898-213.041 213.652-214.253 213.193-215.673 214.949-217.015 216.609-218.403 220.403-214.866 219.457L-214.978 223.181C-212.193 227.754-201.534 243.611-197.346 246.484-195.837 247.52-194.16 247.928-192.21 247.114L-190.653 246.832-184.684 250.336C-179.926 253.128-173.969 254.346-171.576 248.486-170.893 246.813-170.077 245.135-169.31 243.458M-254.919 169.078C-256.706 165.859-258.162 162.983-259.142 160.71-263.5 150.604-266.239 127.245-254.58 121.562-242.436 115.644-205.437 154.327-190.892 170.248-196.803 156.772-203.781 144.602-201.435 131.514-199.947 123.216-195.867 113.563-191.646 112.063-175.869 106.455-126.355 147.833-95.195 189.255-92.24 191.077-89.327 192.968-86.467 194.933-93.563 184.679-101.688 172.021-106.164 160.457-109.699 151.325-110.506 142.941-103.372 134.154-99.45 129.627-96.069 126.207-90.357 125.718-70.442 124.018-26.122 162.008-11.075 173.753L-10.475 178.525C-6.63 185.277-.044 189.085 2.647 193.656 7 201.051 3.361 196.97-1.077 193.622-12.083 185.322-79.159 149.622-87.231 160.054-90.696 164.533-70.847 196.554-64.925 201.901-61.483 205.008-59.064 206.734-57.573 208.079-56.539 209.01-54.088 223.389-64.554 217.943-67.93 216.186-71.394 213.27-74.839 209.637-78.69 206.858-82.058 204.479-85.22 202.355-73.086 219.254-65.365 234.285-66.489 242.709-67.695 251.749-67.5 257.873-70.48 261.386-73.211 264.604-77.428 264.942-82.129 263.826-109.114 257.418-144.553 220.554-155.084 196.194-159.048 187.025-163.722 163.3-148.036 163.302-141.83 163.302-125.441 173.205-118.123 176.92-131.143 164.619-172.61 133.104-187.187 140.878-190.498 142.644-191.214 149.403-190.184 155.892-188.788 164.686-183.833 175.463-177.297 183.161-174.845 186.051-172.908 191.713-177.538 189.954-180.157 188.959-181.88 187.572-183.797 184.348-185.222 181.952-184.715 183.216-187.234 180.741-196.488 171.658-217.953 157.756-237.544 152.036-243.314 150.351-242.752 150.861-241.745 157.271-240.7 163.927-227.503 196.419-222.103 197.588-219.842 198.078-219.455 197.476-218.579 200.555-216.528 207.768-221.472 211.83-226.246 208.007-234.693 201.247-247.59 182.28-254.919 169.078M-311.427 47.715C-310.334 44.923-307.519 43.117-304.301 44.774-300.58 46.689-295.93 51.668-291.782 54.229-286.035 57.78-285.795 59.002-287.185 60.13-292.079 64.104-276.17 62.1-284.585 72.205-295.761 85.625-306.514 62.604-311.152 53.478-312.121 51.572-312.106 49.452-311.427 47.715M-344.934 61.767C-332.46 65.457-319.908 68.706-307.443 71.434-310.555 67.102-313.111 62.192-315.024 58.411L-326.013 46.179C-327.854 45.201-329.618 44.248-331.268 43.355-342.104 37.5-347.29 34.697-358.936 35.484-357.753 37.713-356.445 40.245-355.067 42.913-351.984 48.886-348.537 55.562-344.934 61.767M-111.637 100.573C-111.566 104.722-106.382 106.413-101.733 107.249-99.471 107.655-99.746 106.525-101.462 105.129-114.528 94.509-111.632 97.053-112.366 95.623-112.953 94.479-115.474 88.936-115.821 88.525-120.97 82.447-124.703 87.443-121.491 91.303-117.437 96.176-111.755 93.555-111.637 100.573M-283.405-12.919C-289.473-12.286-285.443 1.77-284.366 5.534-282.62 11.643-279.829 15.912-275.205 24.028-273.311 27.223-271.202 27.91-269.308 31.104-265.424 37.654-268.221 41.241-272.893 37.582-276.36 34.866-280.143 27.81-283.249 23.131L-284.116 22.153C-289.351 16.319-335.16-24.609-338.726-15.101-341.348-8.107-321.414 24.716-316.672 30.404-315.04 29.823-314.451 30.745-313.458 33.141-312.229 36.109-312.696 46.255-318.721 43.549L-318.719 43.566C-339.426 32.994-343.492 28.023-362.646 30.113-358.365 15.624-349.331 12.9-340.478 21.569L-331.384 31.691C-339.058 20.187-357.79-6.535-358.317-18.195-358.645-25.466-352.154-42.68-344.723-43.804-334.706-44.845-305.854-11.309-291.564 6.989-295.255-1.863-298.681-12.167-298.83-17.487-299.019-24.221-297.435-31.966-293.226-37.103-286.171-45.714-280.98-43.177-272.539-37.045-256.327-25.267-229.481 13.647-211.386 39.935-215.4 30.3-220.67 15.963-223.477 5.788-225.368-4.44-219.767-20.749-209.445-22.617-200.286-24.276-190.651-11.495-185.372-5.283-179.085 2.114-171.65 11.288-164.845 19.424-161.051 24.401-160.886 25.024-152.513 35.497-155.387 31.476-157.32 28.538-158.754 26.162-163.182 18.167-169.206 7.492-172.468-.869-175.958-9.814-178.244-23.437-173.26-33.547-168.937-42.319-164.275-45.498-159.226-45.244-144.351-45.018-98.489 5.608-84.213 21.445-88.08 13.85-85.702 19.049-89.862 11.64-90.938 9.726-91.876 7.923-92.673 6.2-95.33 .461-96.424-4.384-95.811-9.464-95.202-14.502-89.36-29.071-84.468-30.819-66.841-37.123 11.689 21.915 21.801 50.426 23.977 56.563 21.185 56.191 17.02 52.618-.026 37.994-54.406 7.005-72.194 3.55-81.168 1.809-76.206 8.34-74.252 13.208L-62.893 35.835-61.022 39.563C-62.743 44.168-64.961 48.313-67.691 48.053-69.584 47.874-68.647 47.472-70.01 46.232-67.742 50.379-62.232 63.841-61.926 68.507-61.525 74.616-63.794 81.251-66.845 90.018-69.365 97.258-74.474 99.702-80.448 99.513-93.095 97.6-106.823 88.275-119.809 75.684-143.344 52.865-168.099 23.337-195.51 7.312-199.576 4.935-203.104 3.189-204.519 4.353-210.878 9.589-181.369 58.452-174.421 62.807-171.051 65.847-177.429 81.169-183.432 85.002-187.098 87.344-190.674 84.062-193.304 79.661-209.49 52.575-261.248-15.235-283.405-12.919M-280.78 76.476C-271.296 77.975-261.935 79.128-252.774 79.898-246.459 80.429-241.68 82.61-239.36 84.983-237.801 86.579-236.967 88.461-236.931 90.488-236.899 92.217-237.419 93.796-238.523 95.144-238.656 97.26-239.658 99.125-241.598 100.581-243.893 102.304-248.146 103.393-254.475 102.936-269.461 101.854-284.041 100.349-298.431 98.421-308.058 97.132-317.482 95.672-326.775 94.042L-327.032 94.624C-328.712 98.423-330.454 101.154-332.308 102.981-318.629 111.052-306.423 119.97-298.164 127.174-285.015 138.644-273.89 150.376-264.304 163.104L-264.368 162.957C-267.181 156.432-269.395 144.995-268.264 135.288-267.831 131.573-266.923 128.05-265.408 124.993-263.735 119.5-260.616 114.928-255.492 112.43-246.831 108.209-232.479 117.14-218.344 129.406-214.712 132.558-211.053 135.936-207.508 139.342-207.691 136.468-207.559 133.536-207.017 130.514-206.255 126.263-204.879 121.684-203.154 117.803-202.438 115.741-201.62 113.765-200.729 111.993-198.448 107.462-195.448 103.926-191.958 102.686-182.256 99.238-164.606 108.14-145.449 123.472-135.309 131.588-124.533 141.545-114.218 152.356-114.46 150.534-114.546 148.707-114.439 146.865-114.246 143.477-113.43 140.134-111.802 136.8-110.771 133.374-108.97 129.972-106.197 126.557L-106.086 126.423C-103.868 123.864-101.78 121.599-99.294 119.801-96.438 117.736-93.258 116.373-89.246 116.03-69.492 114.344-31.91 144.506-12.551 160.043-9.798 162.251-7.399 164.177-6.005 165.266L-4.164 166.702-3.425 172.583C-1.727 175.208 .641 177.468 2.799 179.531 5.255 181.876 7.5 184.02 9.119 186.771 12.028 191.713 12.801 199.507 7.408 202.68 3.716 204.853 1.308 202.866-1.926 200.204-2.607 199.643-3.387 199-4.503 198.159-11.056 193.217-38.288 178.186-60.233 169.635-68.072 166.581-74.888 164.224-78.937 163.423-77.895 165.173-76.586 167.414-75.231 169.955-69.961 179.843-62.568 190.927-59.543 193.659-57.494 195.509-55.904 196.788-54.644 197.803-53.645 198.607-52.814 199.275-52.191 199.836-51.038 200.875-49.021 206.353-49.355 210.68-49.485 212.356-49.86 214.054-50.6 215.577-50.783 215.954-50.985 216.317-51.207 216.666-51.414 217.677-51.729 218.668-52.179 219.594-53.179 221.655-54.741 223.312-57.061 224.223-58.454 224.77-60.026 224.992-61.793 224.778-59.669 230.376-58.74 235.348-59.284 239.426-60.401 247.799-60.332 253.543-63.966 261.598-64.521 262.83-65.228 263.976-66.144 265.056-68.45 267.772-71.33 269.265-74.587 269.835-77.391 270.326-80.384 270.089-83.44 269.363-97.134 266.112-112.583 255.838-126.196 243.218-141.321 229.197-154.406 212.046-160.288 198.44-162.371 193.624-164.628 185.219-164.627 177.646-164.627 173.908-164.105 170.296-162.813 167.215-162.592 166.686-162.349 166.172-162.083 165.674-161.849 164.818-161.567 163.991-161.235 163.198-159.991 160.23-158.085 157.744-155.34 156.017-157.976 154.415-160.614 152.91-163.206 151.558-171.612 147.171-179.144 144.396-183.331 145.436-183.426 147.154-183.305 149.072-183.001 150.985-182.381 154.895-180.926 159.319-178.871 163.67-176.856 167.933-174.287 172.053-171.382 175.475-169.672 177.49-168.11 180.521-167.646 182.944-167.052 186.042-168.507 188.393-169.388 191.175-170.813 195.675-175.379 196.851-179.539 195.27-181.468 194.538-183.102 193.629-184.667 192.257-186.144 190.964-187.421 189.373-188.69 187.239-188.977 186.756-188.576 187.056-188.75 186.926-189.243 186.557-189.968 186.015-191.215 184.789-195.934 180.157-204.136 174.134-213.691 168.681-219.599 165.312-225.968 162.191-232.283 159.792-230.4 164.936-227.6 171.646-224.725 177.549-221.901 183.342-219.572 187.957-219.323 188.011-219.107 188.058-218.841 188.098-218.611 188.133-214.447 188.762-213.247 188.943-211.53 194.981-210.546 198.441-210.677 201.59-211.558 204.131-210.077 204.276-208.787 204.852-207.68 205.748H-207.657C-207.022 206.262-206.447 206.912-205.933 207.656L-204.825 209.262-203.966 210.524C-203.904 210.582-203.47 210.854-202.621 211.384-202.11 211.703-201.481 212.096-200.49 212.734L-200.341 212.831C-190.524 219.15-180.829 225.392-170.32 228.93-170.05 229.021-169.538 229.166-169.053 229.303-168.112 229.569-167.243 229.814-166.229 230.278-161.751 232.327-159.562 235.223-162.571 241.798-164.187 245.327-165.263 249.12-167.239 252.489-169.313 256.023-172.303 257.747-175.703 258.218-178.528 258.61-181.456 258.034-184.184 256.92-185.285 256.47-186.424 255.891-187.552 255.229L-191.55 252.882C-193.009 253.271-194.42 253.328-195.788 253.12-197.55 252.851-199.119 252.158-200.548 251.177-202.772 249.651-205.854 246.068-208.943 241.985-213.325 236.194-218.068 229.025-219.825 226.139L-220.698 224.705-220.662 223.494C-221.471 222.738-222.042 221.789-222.41 220.691-222.846 219.388-222.88 218.034-222.63 216.725-222.53 216.209-222.376 215.673-222.181 215.14-222.404 215.148-222.63 215.15-222.857 215.143-225.172 215.073-227.577 214.217-229.805 212.434L-229.796 212.422C-233.809 209.207-238.537 203.776-243.209 197.551-241.245 201.54-239.362 205.643-237.554 209.874-234.493 217.031-231.968 224.365-230.529 231.501-229.03 238.938-228.729 246.126-230.234 252.655-230.747 254.882-231.571 257.268-232.65 259.645-233.965 263.612-236.107 267.828-238.794 271.479-241.913 275.716-245.863 279.329-250.292 281.206-254.995 283.201-260.359 284.31-266.113 284.736-272.301 285.195-278.97 284.878-285.75 284.042-306.644 281.468-330.684 274.029-354.032 264.097-379.552 253.242-404.311 239.381-423.233 225.644-429.523 221.078-431.453 214.271-433.331 207.651-433.634 206.579-433.936 205.513-434.375 204.129-435.097 201.848-435.782 199.379-436.427 196.726-437.059 194.128-437.59 191.595-438.019 189.126L-438.13 188.489-438.086 187.814C-437.736 182.477-434.842 172.789-429.609 170.369-427.267 169.285-424.642 169.172-421.724 170.116-419.569 170.813-417.196 172.142-414.597 174.154L-396.071 187.078-396.068 187.073C-392.05 189.842-390.477 192.622-390.881 195.42-390.914 195.654-390.957 195.88-391.006 196.099-376.264 205.695-348.398 222.713-321.1 235.739-337.002 220.084-358.395 195.123-373.245 173.297-386.162 154.312-394.223 136.964-390.361 128.026L-390.189 127.627-389.515 126.486C-389.414 125.929-389.282 125.394-389.114 124.884-393.687 124.654-398.131 125.014-402.705 126.053-406.625 126.944-410.693 128.344-415.065 130.308-418.612 131.901-432.728 139.797-436.015 137.303-439.678 134.522-433.107 121.477-428.812 116.163L-427.549 114.869C-427.926 111.93-428.055 108.618-427.73 105.526-427.418 102.549-426.686 99.673-425.373 97.251-424.565 94.291-423.197 91.638-421.079 89.708-408.624 78.365-389.585 79.066-369.586 85.572-365.813 86.8-361.995 88.239-358.175 89.842-358.826 89.025-359.472 88.199-360.111 87.356-374.845 84.057-389.546 80.321-404.489 76.148-420.187 71.763-436.204 66.887-452.844 61.521-459.75 59.295-463.202 55.665-466.78 49.989-469.799 45.203-471.857 39.806-473.836 34.474L-474.432 32.885C-475.953 28.903-477.969 23.623-477.815 19.22-477.982 15.255-476.093 11.485-472.243 7.901-469.568 6.361-465.703 6.654-460.207 9.69L-442.107 18.521C-440.206 19.448-438.257 20.862-437.278 21.947L-437.267 21.937C-436.205 23.121-435.588 24.52-435.549 26.08-435.546 26.229-435.545 26.375-435.548 26.52L-435.089 26.745C-422.066 33.134-408.739 38.933-395.09 44.337-392.729 45.271-390.371 46.189-388.017 47.093-403.931 23.102-422.235-6.224-434.625-30.907-444.141-49.863-450.148-66.476-449.131-76.847-448.612-82.146-443.545-91.778-440.986-95.727-439.02-98.762-436.799-101.638-434.423-104.042-432.334-106.156-430.328-107.525-428.552-108.32-426.892-109.063-425.309-109.361-423.9-109.316-421.785-109.245-420.021-108.462-418.723-107.178-418.085-106.549-417.579-105.815-417.213-104.998V-104.976C-416.872-104.207-416.736-103.234-416.536-101.731-416.087-98.379-415.075-90.81-414.593-89.125-408.96-69.441-400.903-49.17-391.449-28.612-383.726-11.816-375.002 5.301-365.878 22.501-364.284 17.897-362.17 14.322-359.684 11.783-357.829 9.89-355.759 8.55-353.519 7.763-359.104-1.873-363.698-11.53-363.988-17.951-364.178-22.163-362.599-28.907-359.972-34.852-359.141-37.245-358.127-39.63-356.972-41.806-353.799-47.782-349.325-52.641-343.99-53.447L-343.723-53.47C-337.684-54.097-328.901-47.991-319.628-39.131-314.659-34.383-309.38-28.773-304.295-23.054-304.057-25.429-303.623-27.814-302.969-30.104-302.465-31.869-301.83-33.592-301.054-35.232-299.941-38.703-298.303-41.975-296.052-44.723-291.141-50.717-286.5-52.793-281.268-52.269-276.684-51.81-272.569-49.258-267.624-45.666-259.037-39.427-247.888-26.336-236.576-11.438-234.16-8.257-231.743-5.004-229.348-1.727-228.968-5.824-227.906-10.064-226.237-13.857L-225.948-14.496C-225.57-15.65-225.14-16.78-224.659-17.874-221.52-25.015-216.165-30.871-208.931-32.209L-208.867-32.217C-197.704-34.238-187.968-23.127-181.64-15.559-181.722-16.556-181.776-17.56-181.801-18.565-181.943-24.449-181.048-30.421-178.515-35.729-178.044-37.217-177.469-38.671-176.775-40.077-174.224-45.252-171.452-48.875-168.473-51.245-164.968-54.034-161.27-55.128-157.381-54.933-149.593-54.541-135.92-43.706-121.751-30.26-114.999-23.852-107.991-16.759-101.478-9.979L-101.459-10.131C-101.149-12.699-99.771-17.207-97.876-21.617-96.892-24.377-95.621-27.356-94.214-30.006-91.674-34.787-88.406-38.909-84.802-40.196L-84.786-40.202H-84.764C-74.051-44.002-47.948-30.329-23.542-11.807-17.182-6.979-10.883-1.812-4.96 3.462-5.223 2.671-5.426 1.864-5.582 1.046-6.443-3.494-5.906-6.525-4.318-8.486-3.811-12.626-1.238-14.592 2.648-15.329 5.566-15.883 8.616-15.127 11.932-14.305L12.136-14.254C14.938-13.559 17.237-12.685 18.952-10.624 20.828-8.371 21.42-5.759 20.294-2.356L20.448-2.208C22.833 .096 24.175 2.11 24.689 3.806 25.439 6.277 24.969 8.379 23.462 10.117 23.444 11.693 22.848 13.086 21.738 14.298 20.475 15.677 18.817 16.402 16.858 16.533 14.765 16.673 11.814 16.024 8.639 14.768L5.885 13.678C17.048 24.854 25.642 35.834 28.717 44.434V44.456L28.739 44.519C29.698 47.223 29.981 49.377 29.733 51.026 29.522 52.435 29.007 53.595 28.215 54.52L28.155 55.043C27.802 57.396 26.6 59.056 24.677 60.084 23.055 60.951 21.289 61.09 19.43 60.579 17.603 60.077 15.484 58.783 13.328 56.933 4.7 49.53-14.055 37.662-32.538 27.496-44.638 20.842-56.487 14.977-65.082 11.678L-53.267 35.217-54.129 37.524C-54.453 38.396-54.799 39.257-55.166 40.096L-55.707 41.542C-56.861 44.634-59.021 48.975-60.777 51.161-58.653 66.928-54.639 72.731-59.906 87.869-60.251 88.859-60.637 89.787-61.062 90.654L-61.485 91.886C-63.093 96.505-65.594 99.761-68.712 101.938-72.229 104.392-76.304 105.32-80.626 105.184L-81.098 105.169-81.293 105.14C-85.127 104.56-89.025 103.388-92.951 101.715-92.771 102.674-92.821 103.646-93.118 104.617-93.396 105.533-93.831 106.324-94.426 106.978-94.438 107.528-94.527 108.081-94.696 108.634-95.272 110.525-96.51 111.884-98.459 112.599-99.619 113.023-101.048 113.134-102.734 112.831-105.568 112.322-108.628 111.517-111.16 110.113-114.736 108.129-117.232 105.159-117.308 100.662-117.313 100.334-117.725 100.176-118.228 99.982-120.59 99.073-123.254 98.048-125.85 94.928-128.377 91.892-128.854 88.26-127.906 85.458-127.626 84.63-127.227 83.863-126.717 83.179-126.646 82.575-126.515 81.992-126.328 81.441-125.99 80.44-125.476 79.529-124.806 78.745-130.438 73.246-136.12 67.405-141.891 61.474-158.562 44.337-175.995 26.419-194.416 14.653-193.151 17.238-191.673 20.124-190.089 23.125-184.282 34.125-176.856 45.754-172.1 51.532-170.968 52.907-170.176 53.775-169.84 53.986L-169.316 54.314-169.039 54.564C-168.539 55.016-168.09 55.559-167.688 56.188-165.607 59.445-166.04 64.852-167.973 70.174-168.333 71.167-168.747 72.177-169.203 73.183L-169.552 74.191C-171.162 78.626-173.824 83.407-176.721 86.619-177.846 87.867-179.075 88.948-180.385 89.784L-180.668 89.966C-184.458 92.23-188.111 91.862-191.471 89.854-193.865 88.422-195.948 86.076-197.66 83.396L-198.174 82.574C-207.608 66.788-229.34 36.924-250.038 15.656-261.204 4.183-271.715-4.646-278.963-6.801-278.471-4.074-277.703-1.388-277.322-.057V-.038L-277.317-.04C-276.014 4.519-273.942 8.106-270.732 13.669L-268.738 17.123-268.733 17.12C-268.167 18.075-267.443 18.777-266.719 19.479-265.442 20.717-264.165 21.956-262.836 24.195-260.683 27.829-259.963 31.164-260.278 33.685-260.841 38.186-263.899 44.477-269.206 44.715-271.406 44.813-273.911 43.99-276.384 42.053-279.804 39.375-282.843 34.479-285.62 30.006-286.4 28.75-287.157 27.529-287.805 26.541L-288.362 25.91C-291.38 22.562-307.955 7.516-321.92-2.554-324.037-4.079-326.073-5.477-327.965-6.68L-326.997-4.656C-322.353 4.925-315.801 15.695-312.281 20.698-306.909 22.318-305.39 29.644-305.729 34.446-304.293 34.364-302.787 34.594-301.247 35.196-300.89 35.335-300.515 35.506-300.121 35.708-297.62 36.996-295.106 39.111-292.542 41.271-290.705 42.817-288.834 44.392-287.224 45.388-283.624 47.61-281.594 49.335-280.536 50.892-279.271 52.754-278.787 54.323-278.899 55.713-278.65 55.891-278.398 56.083-278.145 56.294-274.849 59.039-272.945 62.754-276.242 68.432-276.628 70.533-277.845 72.97-280.227 75.83ZM-347.88 93.366C-350.96 89.692-353.978 86.16-356.799 82.283-387.335 75.534-417.966 66.804-451.109 56.118-460.679 53.032-464.723 42.67-468.498 32.494-470.896 26.031-477.293 11.52-464.343 18.79L-446.177 27.652C-443.184 29.112-440.583 31.688-445.727 29.744L-456.086 25.827-459.816 24.204C-453.41 28.397-446.488 32.259-439.158 35.855-412.497 48.937-385.386 59.285-357.271 68.656L-373.83 58.003C-403.707 14.206-450.858-60.679-442.774-79.348-440.28-85.107-436.385-91.559-431.954-96.045-427.753-100.296-424.657-100.195-423.974-98.668-423.927-98.563-422.375-86.11-421.643-83.552-410.241-43.706-388.977-1.381-366.207 40.905-361.848 48.997-356.344 60.398-350.265 70.598-318.11 80.248-285.38 87.018-254.819 89.586-242.401 90.63-239.251 98.334-254.074 97.265-284.042 95.103-311.941 91.301-339.548 85.884-337.135 88.617-334.689 90.844-332.236 92.333-337.542 104.332-341.452 101.031-347.88 93.366M-101.484 216.268C-98.848 218.462-96.089 220.6-93.273 222.697-90.525 224.745-87.683 226.778-84.844 228.792-83.586 229.683-82.449 230.412-81.436 230.982-81.609 230.448-81.803 229.888-82.017 229.302-83.6 224.968-86.278 220.167-89.662 215.187-93.404 209.679-98.059 203.914-103.094 198.275-107.181 196.127-112.357 193.494-117.504 191.269-120.984 189.764-124.521 188.405-127.801 187.448-127.122 188.427-126.373 189.47-125.572 190.555-117.66 201.271-105.024 213.321-101.484 216.268M-106.688 224.644C-112.54 219.773-142.207 191.079-138.108 182.09-137.505 180.767-135.76 180.111-132.165 180.643-122.115 182.127-108.006 189.252-99.532 193.731-89.346 205.041-80.396 217.187-76.679 227.367-71.203 242.358-76.838 246.566-89.714 237.434-95.373 233.419-101.113 229.284-106.688 224.644M-83.376 65.813C-70.096 74.523-73.892 69.66-81.101 58.823-94.304 38.977-116.049 14.216-133.052-1.197-145.823-12.774-142.284-7.518-135.892 4.047-128.096 18.153-117.25 32.68-110.099 41.091-101.647 51.031-91.86 60.25-83.376 65.813M-69.507 79.272C-78.038 84.985-99.556 68.137-116.015 48.777-128.51 34.078-152.039 1.12-152.312-16.9-154.521-38.416-59.586 63.245-69.507 79.272M-460.698 127.566C-459.582 127.032-461.882 124.809-462.578 124.079L-462.659 123.997C-464.574 122.063-466.122 123.359-465.785 125.143-465.693 125.629-465.463 126.151-465.061 126.654-464.73 127.067-464.284 127.467-463.707 127.824L-463.297 128.057-463.148 128.134-462.99 128.211-462.975 128.232C-462.852 128.403-462.733 128.554-462.617 128.688L-462.57 128.743C-461.214 130.27-460.367 129.314-460.698 127.566M-443.723 107.135C-445.427 106.74-447.19 107.32-446.654 109.517-446.162 111.541-445.271 111.958-444.71 112.364-444.156 112.767-443.875 113.247-442.948 112.51-442.674 112.292-442.433 112.646-441.726 113.021-440.462 113.689-439.19 113.939-439.331 112.117-439.496 109.954-441.928 107.552-443.723 107.135M-450.618 107.269C-456.607 102.53-459.361 104.667-459.998 107.318-460.598 109.813-459.293 112.67-458.09 113.579-455.237 121.402-451.663 122.685-449.364 120.707-443.767 115.885-446.868 111.52-450.618 107.269M-434.943 101.333C-433.415 103.065-432.262 105.319-432.081 107.677-431.932 109.618-433.495 114.664-434.521 116.366-435.443 117.898-437.026 118.751-439.023 119.107-439.78 119.242-440.53 119.235-441.262 119.124-442.006 121.105-443.407 123.066-445.65 124.999-446.509 125.738-447.468 126.312-448.509 126.691-450.187 127.303-451.975 127.399-453.804 126.88L-453.926 127.198C-454.502 128.585-455.188 130.761-455.87 131.964-456.432 132.953-457.231 133.761-458.248 134.346V134.368C-459.671 135.184-461.261 135.429-462.958 134.996-464.259 134.665-465.56 133.903-466.726 132.625-467.27 132.287-467.751 131.933-468.173 131.568-468.642 131.162-469.081 130.697-469.487 130.189-469.967 129.589-470.349 128.975-470.643 128.364-470.997 127.625-471.234 126.893-471.367 126.188-471.816 123.811-470.205 119.362-469.127 117.22V117.197C-468.47 115.891-467.452 114.83-466.14 114.136-465.715 113.91-465.27 113.729-464.807 113.597-464.975 113.197-465.125 112.786-465.252 112.368-465.839 110.442-466.042 108.201-465.514 106.006-465.234 104.842-462.724 98.931-462.095 98.137-461.052 96.819-459.656 95.773-457.866 95.204-456.302 94.706-454.526 94.608-452.549 95.083-450.771 95.511-448.764 96.435-446.545 98.033-446.105 97.839-445.646 97.685-445.171 97.569-443.783 97.23-442.275 97.256-440.877 97.58-438.802 98.062-436.546 99.515-434.943 101.333M-303.479 135.461C-328.947 113.247-392.894 74.304-418.833 97.929-423.358 102.052-422.587 113.348-421.008 118.698L-426.32 124.138C-430.394 128.311-434.057 133.821-424.787 128.801-409.573 120.563-397.792 118.03-384.723 119.549-381.907 116.823-376.802 111.726-373.584 112.918-370.879 113.921-370.75 119.154-370.432 121.725-373.242 117-373.716 114.839-378.221 119.885-381.052 123.056-383.343 127.256-385.157 130.273-391.986 146.077-342.306 207.753-314.282 234.439-307.193 241.19-302.676 244.57-294.422 248.451-286.064 252.383-289.674 237.555-290.933 234.083-292.541 229.643-293.652 230.418-298.142 230.014-305.53 222.725-312.198 215.452-318.664 207.55-335.416 187.081-347.642 166.049-361.024 140.799-364.185 134.708-367.121 128.393-370.207 122.348-362.53 124.703-354.716 128.254-346.411 132.672-306.526 157.327-270.615 194.715-257.606 240.54-255.194 249.039-254.167 256.588-256.394 260.029-281.276 276.441-375.514 218.456-400.422 201.742-401.807 200.812-403.746 199.164-400.91 199.304-397.454 199.475-396.847 198.533-400.871 195.76L-419.574 182.714C-427.875 176.247-431.815 179.009-432.415 188.17-431.566 193.05-430.411 197.799-428.948 202.417-426.83 209.106-425.628 216.88-419.897 221.041-384.341 246.853-327.789 273.128-285.061 278.394-272.829 279.901-261.14 279.646-252.493 275.98-245.213 272.893-239.1 263.001-237.35 255.404-234.722 243.999-238.489 229.842-244.358 216.115-258.222 183.688-276.467 159.022-303.479 135.461" fill-rule="evenodd"/>
<path transform="matrix(1,0,0,-1,374.7059,250.37099)" d="M0 0C5.352 6.295 11.227 12.358 17.552 17.691L17.48 17.606C8.056 4.663 5.424-2.842-23.399-32.977-20.46-27.945-17.18-22.904-13.886-18.174-8.868-10.967-3.87-4.552 0 0M12.064 177.87C10.693 176.799 9.372 175.739 8.118 174.696 6.085 173.004 .839 168.09-4.777 162.096-6.054 160.733-7.343 159.32-8.609 157.884-7.269 158.508-5.914 159.159-4.577 159.817-2.424 160.877-.352 161.941 1.522 162.922 3.837 165.533 6.111 168.229 8.295 170.978 10.466 173.712 12.438 176.362 14.143 178.871L14.954 180.083C13.951 179.328 12.984 178.588 12.064 177.87M5.592 177.734C2.052 174.788-10.584 162.737-18.496 152.022-19.297 150.937-20.046 149.894-20.725 148.915-17.444 149.872-13.908 151.23-10.428 152.735-5.281 154.96-.104 157.594 3.982 159.742 9.018 165.38 13.672 171.146 17.414 176.654 20.798 181.634 23.477 186.435 25.06 190.769 25.273 191.355 25.467 191.915 25.641 192.449 24.627 191.879 23.49 191.15 22.232 190.258 19.394 188.245 16.551 186.212 13.803 184.164 10.987 182.067 8.229 179.929 5.592 177.734M-186.588 146.885C-172.742 163.703-161.907 182.736-156.002 203.541-154.884 207.478-154.093 211.129-153.847 214.095-159.315 215.72-167.658 214.602-177.582 211.721L-177.403 211.349C-176.11 208.521-174.715 204.333-174.746 201.344-174.792 196.966-176.206 191.624-176.94 189.598-179.526 182.462-181.46 182.241-186.993 181.938-189.359 179.571-191.661 177.187-193.908 174.781-196.618 171.879-199.181 169.016-201.615 166.178L-201.859 165.917-201.875 165.872-202.493 165.145C-211.533 154.5-219.213 143.776-226.371 132.434-233.369 121.343-239.915 109.586-246.759 96.704-245.208 97.482-243.624 98.304-242.003 99.166L-242 99.161C-221.53 111.856-202.161 127.97-186.588 146.885M-178.691 179.904C-180.688 178.591-182.647 178.262-185.25 178.079L-187.643 175.63C-188.732 174.502-189.855 173.319-191.009 172.083-192.511 170.475-193.813 169.055-194.919 167.82-196.012 166.6-197.179 165.268-198.419 163.825L-199.47 162.587C-203.909 157.361-208.028 152.094-211.929 146.726-215.858 141.318-219.52 135.876-223.022 130.325-226.486 124.836-229.842 119.175-233.181 113.288-234.252 111.399-235.338 109.456-236.438 107.461-228.796 112.605-221.361 118.241-214.286 124.334-205.379 132.006-197.061 140.385-189.641 149.396-182.699 157.829-176.526 166.843-171.378 176.379-166.529 185.361-162.603 194.789-159.815 204.61-159.249 206.604-158.778 208.474-158.436 210.153L-158.3 210.844C-159.776 210.936-161.43 210.884-163.239 210.703-165.964 210.431-168.992 209.868-172.26 209.061-172.019 208.342-171.795 207.609-171.602 206.879-171.1 204.989-170.776 203.052-170.793 201.313-170.815 199.208-171.096 196.99-171.474 194.965-172 192.148-172.737 189.581-173.22 188.249-174.829 183.808-176.407 181.406-178.691 179.904M-200.367 32.9C-212.832 30.173-225.384 26.924-237.858 23.233-241.46 17.028-244.908 10.353-247.991 4.38-249.369 1.712-250.677-.82-251.859-3.049-240.214-3.836-235.028-1.033-224.192 4.822-222.542 5.715-220.778 6.668-218.937 7.646L-207.948 19.878C-206.035 23.659-203.479 28.569-200.367 32.9M-211.235 22.148C-210.513 23.569-209.686 25.166-208.712 26.932-211.87 26.182-214.972 25.414-218.016 24.629-223.641 23.179-229.382 21.594-235.217 19.884-236.667 17.339-238.149 14.616-239.616 11.859-241.602 8.126-243.08 5.265-244.473 2.566L-245.333 .896C-243.004 1.085-240.953 1.511-238.947 2.163-235.179 3.387-231.306 5.479-226.068 8.311L-221.414 10.818ZM-68.214 123.447C-69.173 121.416-69.992 119.367-70.642 117.371-71.278 115.415-71.747 113.546-72.019 111.832L-72.153 110.855C-71.357 111.008-70.474 111.234-69.516 111.525-66.174 112.542-62.2 114.314-57.959 116.528-57.009 117.024-55.985 117.58-54.9 118.188-56.114 119.703-57.076 121.362-57.817 123.13V123.146C-58.031 123.656-58.214 124.134-58.368 124.582V124.598C-58.471 124.898-58.581 125.256-58.699 125.669L-58.969 126.208C-59.163 126.618-59.305 126.929-59.396 127.147-60.132 128.902-60.655 130.8-61.001 132.786-61.096 133.33-61.177 133.878-61.244 134.43L-61.283 134.384C-62.578 132.859-63.818 131.15-64.977 129.325-66.185 127.419-67.272 125.438-68.214 123.447M-204.622 73.084C-198.41 77.485-192.909 81.805-188.483 85.665-181.796 91.498-175.634 97.386-169.938 103.421-168.291 105.167-166.682 106.924-165.109 108.696-165.531 104.573-165.592 100.31-165.125 96.305-164.883 94.222-164.494 92.163-163.94 90.165-163.434 88.339-162.793 86.593-162.005 84.958-160.999 81.78-159.545 78.852-157.562 76.338-155.596 73.848-153.149 71.792-150.152 70.332-144.567 67.61-137.635 68.884-130.112 72.667-123.362 76.063-115.972 81.552-108.679 87.881-107.056 89.289-105.483 90.689-103.966 92.071L-103.832 91.283C-103.422 88.994-102.845 86.617-102.139 84.292-101.466 82.077-100.664 79.887-99.767 77.847-99.359 76.678-98.961 75.625-98.577 74.705-98.147 73.676-97.683 72.662-97.188 71.677-95.839 68.998-94.243 66.597-92.435 64.677-90.587 62.716-88.5 61.235-86.198 60.417-80.501 58.392-72.975 59.678-64.392 63.514-55.883 67.316-46.084 73.71-35.908 81.854-30.751 85.982-25.439 90.571-20.115 95.495-17.009 98.369-13.917 101.333-10.867 104.366-10.74 103.68-10.589 102.992-10.411 102.303-9.926 100.417-9.269 98.581-8.42 96.797-7.843 94.961-7.061 93.113-6.049 91.25-5.007 89.33-3.729 87.423-2.19 85.527L-2.159 85.497-2.002 85.301C-.837 83.957 .298 82.686 1.479 81.503 2.618 80.364 3.784 79.314 5.028 78.375 4.582 78.336 4.12 78.274 3.645 78.189 2.068 77.906 .434 77.542-1.147 77.057-2.819 76.543-4.472 75.887-6.006 75.036-8.306 73.761-10.282 72.135-11.726 70.06-12.829 68.475-13.605 66.662-13.964 64.587-14.907 64.201-15.886 63.755-16.891 63.161-18.511 62.204-20.171 60.896-21.812 58.922-23.46 56.943-24.47 54.775-24.935 52.631-25.462 50.205-25.302 47.78-24.582 45.653L-24.577 45.655C-24.375 45.06-24.123 44.473-23.824 43.901-23.687 43.636-23.546 43.385-23.402 43.147L-23.35 42.906C-23.242 42.423-23.126 41.998-23.003 41.637L-22.998 41.638C-22.91 41.379-22.813 41.123-22.707 40.869-27.634 35.996-32.586 30.906-37.605 25.748L-37.651 25.699C-46.005 17.112-54.55 8.33-63.104 .415-67.324-3.491-71.594-7.235-75.913-10.717-74.104-7.55-72.231-4.443-70.404-1.558-67.26 3.408-64.268 7.697-61.969 10.488-61.493 11.066-61.053 11.576-60.663 12-60.508 12.169-60.839 12-60.671 12.104L-59.782 12.662-59.313 13.086C-58.957 13.406-58.59 13.795-58.213 14.249-57.88 14.649-57.569 15.077-57.278 15.531-55.836 17.79-55.226 20.603-55.288 23.658-55.348 26.608-56.032 29.838-57.176 32.99-57.329 33.413-57.543 33.958-57.816 34.625-58.072 35.25-58.275 35.734-58.428 36.081L-58.546 36.442H-58.561L-58.755 37.006C-59.648 39.468-60.851 42.044-62.24 44.453-63.599 46.808-65.121 48.987-66.699 50.737-67.359 51.468-68.077 52.173-68.85 52.841-69.576 53.469-70.352 54.051-71.174 54.577L-71.169 54.584-71.452 54.766-71.562 54.828C-74.04 56.309-76.523 56.962-78.978 56.937-81.609 56.909-84.099 56.106-86.426 54.715-87.89 53.84-89.236 52.725-90.461 51.447-91.724 50.13-92.88 48.61-93.917 46.986-94.381 46.259-93.909 47.024-94.255 46.471L-94.493 46.071C-99.601 37.526-108.387 24.765-118.677 11.487-127.123 .589-136.568-10.634-145.799-20.118-151.559-26.036-157.116-31.218-162.088-35.078-163.388-36.087-164.639-37.001-165.834-37.81-165.354-36.463-164.791-35.185-164.129-33.862-163.098-31.802-161.803-29.56-160.23-26.833L-158.928-24.577-158.247-23.428C-158.097-23.175-157.933-22.964-157.764-22.774-157.563-22.55-157.222-22.22-156.883-21.892-156.189-21.218-155.494-20.544-154.729-19.66-153.936-18.744-153.142-17.688-152.35-16.353-151.126-14.287-150.285-12.277-149.778-10.397-149.187-8.204-149.04-6.158-149.265-4.368-149.656-1.234-151.044 2.626-153.377 5.508-155.478 8.104-158.332 9.972-161.959 10.135-163.622 10.209-165.357 9.942-167.095 9.299-168.619 8.733-170.185 7.854-171.742 6.636-175.735 3.509-178.961-1.688-181.908-6.434L-182.325-7.107C-182.878-7.995-183.416-8.854-183.931-9.645L-184.225-9.979-184.231-9.972C-185.928-11.854-192.213-17.694-199.924-24.234-202.968-26.816-206.213-29.489-209.458-32.049-206.918-27.675-204.458-23.758-202.627-21.071-202.276-20.902-201.931-20.712-201.592-20.501-198.649-18.659-197.192-16.196-195.896-13.07-195.396-11.859-195.019-10.304-194.817-8.638L-194.719-7.656C-194.057-7.495-193.393-7.286-192.729-7.026-192.561-6.962-192.312-6.854-191.974-6.699L-191.231-6.344C-188.373-4.872-185.676-2.603-182.925-.287-182.913-.278-182.856-.244-182.863-.235-182.005 .487-181.138 1.217-180.272 1.902-179.489 2.521-178.74 3.076-178.07 3.49-176.07 4.726-174.514 5.815-173.323 6.803-171.958 7.936-170.942 9.034-170.189 10.142-169.349 11.378-168.753 12.563-168.374 13.707-168.205 14.216-168.078 14.713-167.99 15.199-166.006 16.978-164.448 19.119-163.8 21.815-163.131 24.601-163.485 27.741-165.425 31.322-165.706 32.494-166.159 33.711-166.812 34.976-164.275 35.333-161.673 35.675-159.008 36.001-154.408 36.563-149.859 37.036-145.373 37.413-142.015 37.694-139.007 38.405-136.474 39.365-133.462 40.507-131.056 42.044-129.447 43.691-128.33 44.834-127.466 46.096-126.869 47.447-126.257 48.834-125.929 50.326-125.901 51.893-125.878 53.232-126.069 54.512-126.48 55.716-126.77 56.562-127.157 57.364-127.645 58.117-127.857 59.322-128.27 60.476-128.885 61.563L-128.892 61.56C-129.671 62.934-130.754 64.162-132.149 65.21-133.826 66.468-136.138 67.461-139.077 68-141.485 68.439-144.354 68.595-147.678 68.355-155.115 67.819-162.549 67.167-170.004 66.4-177.298 65.65-184.577 64.786-191.866 63.811-196.64 63.171-201.436 62.479-206.257 61.733-210.235 61.118-213.942 60.518-217.387 59.932-217.968 61.087-218.566 62.147-219.18 63.118L-219.341 63.37C-214.152 66.555-209.196 69.842-204.622 73.084M-316.669 48.246C-318.002 49.459-319.104 50.886-320.002 52.464-320.833 53.924-321.483 55.521-321.975 57.202-322.661 58.533-323.205 59.946-323.621 61.407L-323.702 61.699C-324.073 61.163-324.472 60.655-324.89 60.18-325.936 58.995-327.21 57.92-328.573 57.058-329.953 56.186-331.447 55.528-332.917 55.187-333.886 54.962-334.923 54.843-335.986 54.84-336.956 54.837-337.927 54.939-338.865 55.153-339.522 54.75-340.168 54.395-340.802 54.084-342.107 53.443-343.362 52.993-344.559 52.706-345.858 52.393-347.103 52.264-348.287 52.291-349.596 52.32-350.829 52.536-351.984 52.903-353.252 53.308-354.377 53.87-355.368 54.556-356.424 55.289-357.339 56.169-358.119 57.154-358.648 57.821-359.553 59.667-360.361 61.529V61.544C-361.22 63.522-362.084 65.733-362.282 66.558-362.624 67.978-362.741 69.393-362.685 70.752-362.652 71.541-362.562 72.315-362.424 73.067-362.853 73.394-363.256 73.75-363.63 74.134-364.409 74.932-365.065 75.861-365.585 76.897L-366.02 77.76V77.82C-366.651 79.226-367.342 81.079-367.788 82.863-368.265 84.777-368.491 86.745-368.182 88.384-368.088 88.881-367.947 89.417-367.757 89.986-367.583 90.509-367.375 91.028-367.132 91.536-366.904 92.01-366.658 92.458-366.397 92.872-366.155 93.255-365.855 93.671-365.496 94.121-365.173 94.524-364.885 94.861-364.636 95.122-364.339 95.433-364.022 95.735-363.686 96.027-363.372 96.297-363.06 96.547-362.751 96.773H-362.735L-362.211 97.147C-361.506 97.86-360.756 98.458-359.977 98.949-358.949 99.596-357.9 100.043-356.859 100.308-355.542 100.644-354.231 100.715-352.943 100.543-351.602 100.364-350.352 99.934-349.203 99.276-346.449 97.697-345.346 95.853-344.115 92.636L-343.922 92.631C-342.597 92.584-341.313 92.326-340.084 91.878-339.318 91.6-338.599 91.259-337.929 90.862-337.222 90.444-336.573 89.979-335.985 89.473V89.458C-334.641 88.299-333.533 87.113-332.64 85.903-332.31 85.456-332.009 85.005-331.734 84.55L-331.265 84.481C-331.001 84.434-330.741 84.38-330.484 84.319-331.109 85.589-331.684 86.876-332.172 88.13-334.346 93.706-334.832 99.097-331.472 101.813L-331.441 101.844-331.388 101.885-331.326 101.917C-326.634 105.478-315.043 99.695-308.864 96.613-307.663 96.013-306.678 95.522-306.376 95.386-304.365 94.483-302.362 93.688-300.353 92.997-298.376 92.317-296.518 91.78-294.76 91.38-292.695 90.911-290.62 90.592-288.507 90.413L-287.711 90.352C-288.882 95.272-287.881 101.448-285.244 108.423-282.055 116.857-276.432 126.718-269.439 136.996-262.259 147.549-253.583 158.807-244.737 169.401-240.736 174.191-236.693 178.855-232.729 183.264-237.271 180.831-241.719 178.372-246.006 175.941-259.449 168.317-271.394 160.944-279.792 155.532-279.876 153.885-280.387 152.259-281.36 150.656-282.5 148.781-284.272 146.988-286.744 145.285L-288.106 144.346-305.108 132.485C-306.547 131.372-307.936 130.439-309.272 129.682-310.703 128.871-312.092 128.251-313.438 127.815-315.319 127.208-317.141 126.939-318.903 126.995-320.777 127.055-322.541 127.476-324.192 128.239-327.386 129.716-329.82 132.814-331.555 136.385-333.586 140.566-334.737 145.589-334.962 149.033L-335.037 150.178-334.85 151.26C-334.641 152.462-334.39 153.758-334.099 155.147-333.836 156.4-333.535 157.725-333.195 159.123-332.857 160.512-332.515 161.833-332.167 163.085-331.764 164.544-331.401 165.778-331.081 166.79-330.602 168.303-330.336 169.241-330.068 170.187-329.082 173.665-328.082 177.191-326.426 180.605-324.66 184.248-322.228 187.601-318.482 190.32-308.853 197.31-297.697 204.349-285.674 211.03-273.87 217.589-261.271 223.778-248.506 229.207-236.354 234.376-223.98 238.888-211.913 242.412-200.512 245.743-189.442 248.179-179.155 249.447-175.634 249.881-172.058 250.179-168.461 250.306-165.099 250.424-161.847 250.385-158.758 250.156-155.659 249.926-152.625 249.499-149.687 248.843-146.875 248.216-144.195 247.382-141.681 246.316-139.152 245.244-136.793 243.729-134.644 241.91-132.381 239.996-130.323 237.73-128.525 235.286-127.083 233.327-125.781 231.213-124.659 229.051-123.525 226.867-122.58 224.653-121.863 222.519-121.345 221.355-120.859 220.125-120.418 218.847-119.951 217.497-119.575 216.208-119.298 215.005-118.475 211.433-118.146 207.681-118.227 203.808-118.306 200.024-118.783 196.135-119.577 192.193-120.346 188.383-121.372 184.616-122.591 180.922-122.891 180.01-123.205 179.096-123.533 178.179-122.639 178.74-121.729 179.198-120.811 179.556H-120.795C-120.421 179.702-120.045 179.831-119.668 179.945L-119.65 180.454C-119.597 181.436-119.415 182.428-119.085 183.413-118.796 184.277-118.428 185.077-117.975 185.803-117.852 186.001-117.721 186.195-117.584 186.384L-117.609 187.234-116.129 189.667C-115.096 191.364-113.092 194.453-110.756 197.855-108.946 200.49-106.94 203.313-105.029 205.839-103.32 208.099-101.601 210.224-100.001 211.976-98.479 213.643-97.019 215.013-95.704 215.915-94.774 216.554-93.787 217.103-92.736 217.541-91.646 217.994-90.503 218.326-89.301 218.508-88.386 218.648-87.429 218.697-86.426 218.645-86.008 218.623-85.59 218.583-85.171 218.523L-82.477 220.105C-81.845 220.476-81.19 220.834-80.517 221.172-79.895 221.484-79.253 221.777-78.597 222.045V222.061C-76.9 222.753-75.124 223.274-73.313 223.551-71.604 223.813-69.848 223.852-68.085 223.607-65.729 223.281-63.512 222.497-61.52 221.149V221.133C-59.678 219.886-58.062 218.186-56.753 215.956-55.354 213.571-54.413 211.157-53.476 208.746-52.962 207.429-52.449 206.111-51.898 204.908-49.889 200.514-49.705 197.125-50.843 194.319-52.018 191.423-54.391 189.576-57.51 188.148-58.235 187.817-58.824 187.59-59.352 187.416-59.772 187.277-60.322 187.122-60.892 186.96V186.957L-60.936 186.948-61.988 186.646C-71.986 183.279-81.468 177.182-91.064 171.003L-91.062 170.997-91.125 170.964-91.274 170.868C-92.355 170.172-92.951 169.8-93.434 169.499L-94.064 169.102-94.463 168.512-94.494 168.481-95.602 166.875C-95.945 166.377-96.331 165.888-96.76 165.414-97.196 164.93-97.645 164.499-98.101 164.13L-99.193 163.247H-99.369L-99.898 162.94C-99.845 162.378-99.816 161.804-99.814 161.218-99.809 159.347-100.067 157.378-100.641 155.363-101.731 151.528-102.805 149.429-104.52 147.973-106.416 146.362-108.191 146.093-110.946 145.677-111.331 145.62-110.805 145.712-111.245 145.64L-111.487 145.585C-111.95 145.477-111.611 145.469-111.172 145.422-110.699 145.371-110.108 145.274-110.271 144.958-111.145 143.267-112.509 140.509-114.083 137.28-115.47 134.433-116.802 131.488-117.996 128.681L-118.013 128.643-117.763 128.761C-114.671 130.239-111.58 131.872-108.569 133.59-104.102 136.138-99.892 138.854-96.19 141.506-92.351 144.257-89.167 146.865-86.913 149.077-86.174 149.805-85.609 150.312-85.166 150.684L-84.928 150.882C-84.233 152.037-83.52 153.07-82.765 154.011-81.966 155.007-81.119 155.892-80.195 156.701-79.204 157.568-78.2 158.286-77.147 158.896-76.109 159.499-75.024 159.999-73.858 160.442-73.523 160.569-73.264 160.662-73.084 160.719-70.327 161.592-67.435 161.6-64.91 160.664L-64.912 160.659C-62.401 159.725-60.302 157.92-59.055 155.182-58.364 157.572-57.594 159.729-56.84 161.473-53.766 168.583-48.867 176.547-42.807 184.507-36.771 192.434-29.554 200.412-21.817 207.583-14.529 214.339-6.71 220.452 1.119 225.24 8.429 229.71 15.765 233.039 22.721 234.69 24.438 235.098 26.177 235.371 27.925 235.476 29.718 235.583 31.474 235.506 33.171 235.208 35.206 234.853 37.154 234.191 38.989 233.174 40.819 232.161 42.486 230.812 43.955 229.08 44.502 228.435 45.018 227.722 45.505 226.944 45.995 226.161 46.396 225.413 46.722 224.692 49.863 217.729 50.446 212.506 51.147 206.208 51.333 204.547 51.526 202.815 51.714 201.405 52.037 198.985 51.94 196.37 51.466 193.591 51.25 192.331 50.954 191.028 50.583 189.687 50.88 189.594 51.172 189.491 51.458 189.379 53.067 188.748 54.437 187.855 55.591 186.76 56.797 185.616 57.742 184.268 58.463 182.782 58.739 182.213 58.989 181.583 59.214 180.906 59.356 180.473 59.481 180.046 59.586 179.625L59.643 179.524C59.8 179.242 59.933 178.99 60.042 178.765 60.526 177.766 60.888 176.749 61.146 175.735 61.419 174.659 61.588 173.548 61.673 172.441 61.855 170.082 61.486 167.497 60.897 165.245 60.088 162.147 58.663 159.374 57.536 158.357 56.895 157.779 56 157.06 54.925 156.194L54.905 156.178C53.713 155.218 52.208 154.007 50.184 152.18 48.896 151.018 46.485 147.78 43.735 143.625 41.282 139.918 38.646 135.598 36.341 131.419 39.059 132.364 42.13 133.51 45.416 134.791 54.93 138.498 65.446 143.436 74.797 148.222 86.682 154.305 96.634 160.109 100.186 162.788 101.374 163.684 102.035 164.227 102.606 164.697L102.602 164.703 102.608 164.709H102.621L102.643 164.727C107.096 168.395 110.415 171.129 116.483 167.557L116.576 167.51 116.574 167.502C120.541 165.125 122.24 161.201 122.406 157.012 122.553 153.302 121.421 149.341 119.629 146.278L119.639 146.272 119.605 146.237C118.623 144.568 117.5 143.137 116.279 141.799 115.165 140.578 113.946 139.413 112.675 138.198L112.682 138.192 112.604 138.129C110.816 136.422 108.874 134.567 107.451 132.599L106.629 126.054 103.505 123.617C102.411 122.763 99.915 120.759 97.048 118.458L97.006 118.425 96.957 118.376 96.953 118.382C77.154 102.493 38.798 71.726 17.505 73.544 16.623 73.619 15.771 73.738 14.945 73.897 15.464 73.097 15.869 72.211 16.162 71.248 16.298 70.803 16.401 70.373 16.472 69.961 16.613 69.745 16.749 69.521 16.877 69.291V69.275C17.001 69.05 17.117 68.82 17.226 68.586 17.799 68.775 18.371 68.955 18.944 69.123 21.069 69.747 23.155 70.22 25.194 70.528L25.521 70.578 26.326 70.603C28.932 70.686 31.485 70.43 33.941 69.761 36.296 69.12 38.539 68.102 40.627 66.645 42.584 65.278 44.339 63.572 45.842 61.481 47.241 59.535 48.417 57.27 49.327 54.655V54.64L49.542 54.02 49.557 54.004 49.673 53.666C49.868 53.255 50.071 52.798 50.28 52.294 50.481 51.808 50.69 51.256 50.905 50.638 56.249 35.283 53.33 27.099 51.19 12.322 51.838 11.366 52.428 10.344 52.969 9.281 53.723 7.8 54.425 6.127 55.074 4.389L55.552 3.111C55.753 2.65 55.942 2.199 56.118 1.762L56.652 .371 58.116-3.545 50.385-18.951C51.781-18.302 53.223-17.616 54.702-16.896 60.299-14.177 66.413-10.983 72.631-7.564 82.021-2.399 91.472 3.201 99.598 8.416 107.291 13.354 113.768 17.921 117.831 21.407 119.083 22.481 120.348 23.406 121.586 24.146 122.895 24.929 124.201 25.512 125.468 25.859 126.866 26.244 128.253 26.379 129.617 26.25 131.002 26.12 132.338 25.721 133.614 25.039 135.148 24.218 136.405 23.124 137.356 21.746 138.204 20.518 138.786 19.109 139.081 17.515 139.394 17.037 139.667 16.528 139.901 15.989 140.295 15.082 140.573 14.114 140.729 13.082 140.917 11.853 140.907 10.483 140.676 8.975 140.504 7.847 140.203 6.616 139.762 5.281V5.218L139.528 4.567C137.917 .061 134.96-4.983 131.005-10.31 129.124-12.843 127.013-15.446 124.712-18.092 125.976-18.228 127.178-18.549 128.304-19.065 129.585-19.651 130.732-20.483 131.729-21.569 132.605-22.527 133.285-23.572 133.752-24.704 134.045-25.414 134.252-26.154 134.372-26.925 135.126-28.047 135.641-29.27 135.897-30.594 136.219-32.249 136.114-34.01 135.548-35.875 135.159-37.157 134.497-38.494 133.528-39.868 133.026-40.579 132.433-41.317 131.739-42.08 131.97-43.503 131.96-44.849 131.73-46.137 131.364-48.203 130.449-50.023 129.067-51.685 127.816-53.188 126.385-54.241 124.779-55.034 123.337-55.747 121.807-56.223 120.157-56.632L119.953-56.683C118.19-57.12 116.497-57.54 114.775-57.788 112.847-58.066 110.938-58.122 108.996-57.753 106.336-57.249 104.065-56.269 102.292-54.631 100.624-53.091 99.486-51.098 98.984-48.54 98.221-47.342 97.678-45.96 97.383-44.37L95.551-45.886C92.433-48.448 89.209-50.992 85.922-53.487 72.887-63.379 59.365-71.92 47.866-77.253 37.174-82.212 27.89-84.474 21.725-82.704H21.608L20.941-82.466C18.615-81.635 16.476-80.038 14.552-77.954 12.598-75.84 10.85-73.205 9.359-70.4 8.67-69.102 7.977-67.643 7.306-66.104 6.606-64.504 5.998-62.975 5.497-61.577 4.75-59.826 4.076-58.048 3.507-56.361 1.812-58.096 .092-59.842-1.644-61.582-5.099-65.05-8.567-68.454-11.946-71.66-19.135-78.482-26.232-84.667-32.573-89.233-39.324-94.096-45.391-97.182-50.118-97.418-52.524-97.54-54.887-97.258-57.204-96.508-59.513-95.762-61.733-94.572-63.861-92.879-65.598-91.498-67.269-89.758-68.871-87.618-70.412-85.559-71.873-83.152-73.249-80.362-73.636-79.577-73.991-78.776-74.315-77.966-74.634-77.169-74.907-76.421-75.136-75.72-76.429-72.951-77.33-70.023-77.904-67.023-78.082-66.098-78.228-65.164-78.343-64.225-80.09-65.968-81.975-67.664-83.992-69.18-89.279-73.151-95.344-75.765-102.026-74.719H-102.086C-102.211-74.696-102.452-74.634-102.567-74.634-106.784-73.854-110.445-71.857-113.515-69.06-116.769-66.095-119.351-62.233-121.211-58.004V-57.988C-121.513-57.302-121.766-56.69-121.969-56.159-122.171-55.628-122.377-55.047-122.584-54.421L-122.773-54.003-122.789-53.987C-123.383-52.636-123.912-51.212-124.371-49.739L-126.353-52.358C-132.131-59.969-137.82-67.064-143.085-72.968-148.536-79.081-153.68-84.107-158.223-87.408-160.824-89.298-163.235-90.928-165.691-92.194-168.332-93.555-170.963-94.455-173.805-94.739-177.155-95.075-180.326-94.574-183.456-93.022-186.404-91.563-189.228-89.206-192.044-85.767-193.297-84.238-194.391-82.555-195.336-80.762-196.258-79.012-197.029-77.157-197.657-75.245-198.03-74.441-198.388-73.578-198.729-72.663-199.07-71.752-199.358-70.896-199.597-70.097-200.522-71.092-201.456-72.085-202.397-73.072-204.903-75.699-207.397-78.213-209.823-80.532-214.905-85.387-219.904-89.479-224.502-92.216-229.017-94.902-233.249-96.31-236.972-95.948L-236.973-95.956-237.239-95.934-237.502-95.902C-240.818-95.401-243.819-93.771-246.463-91.401-249.195-88.951-251.527-85.726-253.399-82.199-254.012-81.044-254.593-79.825-255.134-78.569-255.597-77.496-256.063-76.289-256.524-74.979-257.933-71.791-259.06-68.398-259.81-65.242-260.592-61.95-260.978-58.816-260.865-56.313-260.697-52.583-259.359-48.106-257.306-43.282-255.833-39.823-253.98-36.146-251.928-32.424-253.167-31.607-254.337-30.64-255.429-29.524-256.725-28.201-257.923-26.662-259.009-24.91-262.333-31.245-265.54-37.463-268.579-43.508-272.827-51.961-276.917-60.395-280.777-68.789-285.468-78.989-289.814-89.124-293.688-99.155-297.523-109.085-300.903-118.956-303.703-128.743-303.891-129.399-304.231-131.537-304.579-133.909-305.042-137.07-305.349-139.37-305.537-140.775-305.655-141.658-305.753-142.382-305.854-142.906-305.938-143.346-306.04-143.76-306.168-144.165V-144.348L-306.525-145.144C-306.81-145.779-307.147-146.381-307.536-146.941-307.932-147.513-308.377-148.045-308.872-148.532-309.887-149.536-311.095-150.345-312.472-150.913-313.752-151.441-315.169-151.751-316.699-151.803-317.752-151.836-318.842-151.744-319.943-151.509-320.952-151.292-322.006-150.95-323.088-150.466-324.242-149.949-325.47-149.24-326.745-148.312-327.878-147.486-329.029-146.504-330.168-145.351-331.4-144.104-332.614-142.711-333.794-141.217-335.023-139.659-336.171-138.045-337.228-136.414-338.816-133.963-341.289-129.511-343.161-125.17-344.593-121.851-345.727-118.462-345.993-115.752-346.532-110.249-345.365-103.38-342.897-95.563-340.296-87.326-336.185-77.836-331.083-67.673-325.418-56.387-318.568-44.204-311.295-32.031-304.715-21.021-297.799-10.023-291.099 .298-296.436-1.859-301.63-4.04-306.667-6.25-312.832-8.954-318.871-11.735-324.78-14.607-324.903-15.139-325.07-15.654-325.276-16.152-325.744-17.28-326.409-18.315-327.246-19.247L-329.882-22.184-330.299-21.81C-331.254-22.469-332.291-23.089-333.295-23.578L-351.382-32.401C-354.5-34.105-357.257-35.056-359.695-35.375-362.593-35.755-365.052-35.258-367.136-34.058L-367.562-33.812-367.865-33.53C-370.14-31.413-371.859-29.192-373.009-26.868-374.219-24.422-374.787-21.893-374.697-19.28-374.765-16.641-374.242-13.882-373.489-11.237-372.768-8.707-371.849-6.304-371.061-4.237L-371.056-4.239-370.851-3.701-370.846-3.703-370.466-2.685-370.48-2.68C-369.506-.056-368.501 2.611-367.25 5.484-366.038 8.264-364.68 10.983-363.053 13.564-359.598 19.045-358.604 20.479-352.992 23.978-351.182 25.104-349.187 26.043-346.977 26.756-338.253 29.569-330.049 32.146-322.385 34.468-315.895 36.434-309.274 38.376-302.477 40.301-307.725 41.871-312.51 44.458-316.669 48.246M-325.005 69.144C-324.855 71.084-326.419 76.131-327.444 77.833-328.367 79.365-329.95 80.218-331.947 80.574-332.704 80.709-333.454 80.702-334.186 80.591-334.93 82.572-336.331 84.533-338.574 86.465-339.433 87.205-340.392 87.778-341.433 88.158-343.111 88.77-344.898 88.866-346.728 88.347L-346.85 88.665C-347.426 90.052-348.112 92.228-348.794 93.431-349.356 94.42-350.155 95.228-351.172 95.813V95.834C-352.595 96.65-354.185 96.896-355.882 96.463-357.183 96.132-358.483 95.37-359.65 94.092-360.194 93.754-360.675 93.399-361.097 93.035-361.566 92.629-362.004 92.164-362.411 91.656-362.891 91.056-363.273 90.441-363.566 89.831-363.92 89.091-364.158 88.359-364.291 87.655-364.74 85.277-363.129 80.829-362.051 78.687V78.664C-361.394 77.357-360.376 76.297-359.064 75.603-358.639 75.377-358.193 75.196-357.73 75.063-357.898 74.664-358.048 74.252-358.176 73.835-358.763 71.909-358.965 69.668-358.437 67.473-358.158 66.309-355.647 60.398-355.019 59.604-353.976 58.286-352.58 57.24-350.79 56.67-349.226 56.172-347.45 56.075-345.473 56.55-343.694 56.978-341.687 57.901-339.469 59.5-339.029 59.306-338.569 59.151-338.095 59.036-336.707 58.697-335.199 58.723-333.801 59.047-331.726 59.529-329.47 60.981-327.867 62.8-326.339 64.532-325.186 66.786-325.005 69.144M-191.088 88.641C-199.347 81.437-211.553 72.519-225.232 64.448-223.377 62.621-221.636 59.89-219.956 56.091L-219.699 55.509C-210.406 57.139-200.981 58.599-191.355 59.888-176.965 61.815-162.385 63.321-147.398 64.403-141.069 64.859-136.816 63.771-134.521 62.047-132.582 60.591-131.58 58.727-131.447 56.611-130.343 55.263-129.823 53.684-129.854 51.955-129.891 49.928-130.725 48.046-132.284 46.45-134.604 44.077-139.383 41.896-145.698 41.365-154.859 40.595-164.22 39.442-173.704 37.942L-173.15 37.296C-170.769 34.437-169.552 32-169.166 29.899-165.869 24.221-167.772 20.506-171.069 17.761-171.322 17.55-171.574 17.357-171.823 17.18-171.711 15.79-172.195 14.221-173.46 12.358-174.518 10.802-176.548 9.077-180.147 6.854-181.758 5.858-183.628 4.284-185.465 2.738-188.03 .578-190.543-1.537-193.044-2.825-193.438-3.027-193.814-3.198-194.17-3.337-195.711-3.939-197.217-4.169-198.653-4.087-198.313-8.89-199.833-16.215-205.205-17.835-208.725-22.838-215.277-33.608-219.92-43.189L-220.889-45.213C-218.997-44.01-216.96-42.612-214.844-41.087-200.878-31.018-184.304-15.971-181.286-12.623L-180.729-11.992C-180.081-11.004-179.324-9.783-178.543-8.527-175.767-4.055-172.728 .842-169.308 3.52-166.834 5.457-164.33 6.28-162.129 6.182-156.823 5.943-153.765-.348-153.202-4.849-152.887-7.369-153.606-10.704-155.76-14.338-157.088-16.577-158.366-17.816-159.643-19.054-160.367-19.756-161.091-20.458-161.657-21.413L-161.662-21.41-163.656-24.864C-166.866-30.427-168.937-34.015-170.241-38.573L-170.246-38.571V-38.59C-170.626-39.921-171.395-42.607-171.887-45.334-164.639-43.179-154.128-34.351-142.962-22.877-122.264-1.609-100.532 28.254-91.098 44.041L-90.584 44.863C-88.872 47.542-86.789 49.889-84.395 51.32-81.035 53.329-77.382 53.697-73.592 51.433L-73.309 51.251C-71.999 50.415-70.77 49.333-69.645 48.086-66.748 44.874-64.086 40.093-62.476 35.658L-62.127 34.65C-61.671 33.644-61.257 32.633-60.896 31.641-58.964 26.318-58.531 20.912-60.612 17.655-61.014 17.025-61.463 16.482-61.963 16.031L-62.24 15.781-62.764 15.453C-63.1 15.242-63.892 14.374-65.023 12.999-69.78 7.221-77.206-4.408-83.013-15.408-84.597-18.409-86.075-21.295-87.34-23.88-68.919-12.114-51.486 5.804-34.814 22.94-29.044 28.872-23.362 34.713-17.729 40.211-18.399 40.996-18.914 41.907-19.252 42.908-19.438 43.458-19.569 44.042-19.641 44.646-20.15 45.33-20.55 46.097-20.83 46.925-21.778 49.727-21.301 53.359-18.773 56.395-16.178 59.515-13.514 60.54-11.151 61.449-10.648 61.643-10.237 61.801-10.231 62.128-10.156 66.625-7.66 69.596-4.084 71.58-1.552 72.983 1.508 73.789 4.342 74.298 6.028 74.601 7.457 74.49 8.617 74.065 10.566 73.351 11.804 71.992 12.38 70.101 12.549 69.548 12.639 68.995 12.65 68.444 13.245 67.791 13.68 67 13.958 66.084 14.255 65.113 14.306 64.141 14.125 63.182 18.051 64.855 21.949 66.026 25.783 66.606L25.979 66.636 26.45 66.651C30.772 66.787 34.848 65.859 38.364 63.404 41.482 61.228 43.983 57.972 45.591 53.353L46.015 52.121C46.439 51.253 46.825 50.326 47.17 49.336 52.438 34.198 48.423 28.395 46.299 12.628 48.055 10.441 50.215 6.101 51.369 3.009L51.91 1.562C52.277 .724 52.623-.138 52.947-1.009L53.81-3.316 41.994-26.855C50.589-23.557 62.438-17.691 74.538-11.037 93.021-.871 111.776 10.997 120.404 18.399 122.561 20.25 124.679 21.544 126.506 22.046 128.365 22.557 130.131 22.418 131.753 21.551 133.676 20.522 134.878 18.863 135.231 16.51L135.291 15.986C136.083 15.062 136.599 13.901 136.81 12.493 137.058 10.844 136.774 8.689 135.815 5.985L135.793 5.923V5.9C132.718-2.699 124.124-13.679 112.961-24.855L115.715-23.766C118.891-22.509 121.841-21.86 123.935-22 125.894-22.131 127.551-22.856 128.814-24.235 129.924-25.447 130.521-26.84 130.538-28.416 132.045-30.154 132.516-32.256 131.766-34.728 131.251-36.423 129.909-38.438 127.524-40.741L127.37-40.89C128.496-44.292 127.904-46.904 126.028-49.157 124.313-51.218 122.014-52.092 119.212-52.787L119.008-52.838C115.692-53.66 112.643-54.416 109.725-53.862 105.838-53.125 103.266-51.159 102.758-47.02 101.17-45.059 100.633-42.027 101.494-37.487 101.65-36.669 101.854-35.862 102.116-35.071 96.193-40.345 89.895-45.513 83.534-50.34 59.128-68.862 33.025-82.535 22.312-78.735H22.29L22.274-78.729C18.67-77.442 15.402-73.32 12.862-68.539 11.455-65.89 10.185-62.91 9.2-60.15 7.306-55.74 5.927-51.232 5.617-48.664L5.599-48.512C-.915-55.292-7.923-62.385-14.675-68.793-28.844-82.239-42.517-93.074-50.305-93.466-54.193-93.661-57.892-92.567-61.396-89.778-64.376-87.408-67.147-83.785-69.699-78.61-70.393-77.204-70.968-75.75-71.438-74.262-73.972-68.954-74.867-62.982-74.725-57.099-74.7-56.093-74.646-55.089-74.563-54.092-80.892-61.66-90.628-72.771-101.791-70.75L-101.854-70.742C-109.089-69.404-114.443-63.548-117.583-56.407-118.063-55.313-118.494-54.184-118.872-53.029L-119.161-52.391C-120.83-48.598-121.892-44.357-122.271-40.26-124.667-43.537-127.084-46.79-129.5-49.972-140.812-64.869-151.961-77.96-160.548-84.199-165.493-87.791-169.607-90.343-174.192-90.802-179.424-91.326-184.065-89.25-188.976-83.256-191.227-80.508-192.865-77.236-193.978-73.766-194.754-72.125-195.389-70.402-195.893-68.638-196.547-66.348-196.98-63.962-197.219-61.587-202.304-67.307-207.583-72.916-212.552-77.664-221.825-86.524-230.607-92.63-236.647-92.003L-236.914-91.98C-242.249-91.174-246.723-86.315-249.896-80.339-251.051-78.163-252.065-75.778-252.896-73.385-255.522-67.44-257.102-60.696-256.912-56.484-256.622-50.063-252.028-40.406-246.443-30.771-248.683-29.983-250.753-28.644-252.607-26.75-255.094-24.211-257.208-20.636-258.802-16.032-267.926-33.232-276.649-50.35-284.373-67.146-293.827-87.703-301.884-107.975-307.517-127.658-307.999-129.343-309.011-136.912-309.459-140.265-309.66-141.768-309.795-142.74-310.137-143.509V-143.531C-310.503-144.349-311.009-145.082-311.646-145.711-312.944-146.995-314.709-147.778-316.824-147.85-318.232-147.895-319.815-147.597-321.476-146.854-323.252-146.059-325.258-144.689-327.347-142.575-329.723-140.171-331.943-137.295-333.91-134.26-336.469-130.312-341.536-120.679-342.055-115.38-343.072-105.009-337.064-88.396-327.549-69.44-315.159-44.757-296.854-15.432-280.94 8.56-283.294 7.656-285.653 6.738-288.014 5.804-301.663 .399-314.99-5.399-328.013-11.788L-328.472-12.014C-328.469-12.158-328.47-12.304-328.473-12.453-328.512-14.014-329.128-15.412-330.191-16.596L-330.202-16.586C-331.181-17.671-333.13-19.085-335.031-20.013L-353.13-28.843C-358.627-31.879-362.492-32.172-365.167-30.632-369.017-27.048-370.906-23.278-370.739-19.313-370.893-14.91-368.876-9.63-367.356-5.648L-366.76-4.06C-364.781 1.272-362.723 6.67-359.704 11.456-356.125 17.132-352.674 20.762-345.768 22.988-329.128 28.354-313.111 33.23-297.413 37.615-282.47 41.788-267.769 45.524-253.035 48.823-252.396 49.666-251.75 50.492-251.099 51.309-254.918 49.706-258.737 48.267-262.51 47.039-282.509 40.533-301.548 39.832-314.003 51.175-316.121 53.104-317.489 55.757-318.296 58.718-319.609 61.14-320.342 64.016-320.654 66.993-320.979 70.085-320.85 73.396-320.473 76.336L-321.735 77.629C-326.031 82.943-332.602 95.989-328.938 98.77-325.651 101.264-311.536 93.368-307.989 91.774-303.617 89.811-299.549 88.411-295.629 87.52-291.055 86.481-286.61 86.121-282.038 86.351-282.206 86.861-282.337 87.396-282.438 87.953L-283.113 89.094-283.285 89.493C-287.147 98.431-279.086 115.778-266.168 134.764-251.318 156.589-229.926 181.551-214.024 197.206-241.322 184.18-269.187 167.162-283.93 157.565-283.88 157.347-283.838 157.121-283.805 156.887-283.401 154.089-284.974 151.309-288.992 148.54L-288.995 148.544-307.521 135.621C-310.12 133.609-312.493 132.28-314.647 131.583-317.566 130.639-320.19 130.752-322.533 131.835-327.766 134.256-330.66 143.943-331.01 149.281L-331.054 149.956-330.943 150.593C-330.514 153.062-329.982 155.595-329.351 158.193-328.706 160.846-328.021 163.314-327.298 165.596-326.86 166.979-326.558 168.046-326.254 169.118-324.377 175.738-322.447 182.545-316.157 187.111-297.234 200.848-272.476 214.709-246.956 225.564-223.608 235.496-199.568 242.935-178.674 245.509-171.894 246.345-165.225 246.662-159.037 246.203-153.283 245.776-147.919 244.667-143.216 242.673-138.787 240.795-134.837 237.183-131.718 232.945-129.031 229.294-126.889 225.079-125.574 221.112-124.495 218.734-123.671 216.349-123.158 214.122-121.653 207.593-121.954 200.405-123.453 192.968-124.892 185.832-127.417 178.498-130.478 171.341-132.286 167.11-134.169 163.007-136.133 159.018-131.461 165.243-126.732 170.674-122.72 173.889L-122.729 173.9C-120.501 175.684-118.096 176.54-115.781 176.609-115.554 176.617-115.328 176.615-115.104 176.607-115.3 177.14-115.454 177.676-115.554 178.191-115.804 179.501-115.77 180.854-115.334 182.158-114.966 183.255-114.395 184.205-113.586 184.96L-113.622 186.172-112.749 187.606C-110.992 190.492-106.249 197.661-101.867 203.452-98.778 207.535-95.696 211.118-93.472 212.644-92.043 213.625-90.474 214.318-88.712 214.586-87.344 214.795-85.933 214.737-84.474 214.349L-80.476 216.696C-79.348 217.358-78.209 217.937-77.107 218.387-74.38 219.501-71.452 220.077-68.627 219.685-65.227 219.213-62.237 217.49-60.163 213.956-58.187 210.587-57.11 206.794-55.495 203.265-52.486 196.689-54.675 193.794-59.153 191.745-60.167 191.281-61.036 191.036-61.977 190.77-62.462 190.633-62.974 190.488-63.244 190.397-73.753 186.859-83.448 180.617-93.265 174.297L-93.414 174.201C-94.405 173.563-95.034 173.17-95.545 172.851-96.394 172.321-96.828 172.049-96.89 171.991L-97.749 170.729-98.856 169.123C-99.371 168.378-99.946 167.729-100.581 167.215H-100.604C-101.711 166.319-103.001 165.743-104.481 165.598-103.601 163.057-103.47 159.908-104.454 156.448-106.171 150.41-107.371 150.229-111.535 149.6-111.765 149.564-112.031 149.525-112.247 149.478-112.496 149.424-114.825 144.809-117.648 139.016-120.523 133.113-123.324 126.403-125.207 121.259-118.892 123.658-112.522 126.778-106.615 130.148-97.06 135.601-88.857 141.624-84.139 146.256-82.892 147.481-82.167 148.023-81.674 148.393-81.5 148.523-81.9 148.223-81.614 148.706-80.345 150.84-79.067 152.431-77.591 153.724-76.025 155.096-74.392 156.004-72.463 156.737-68.303 158.317-63.737 157.142-62.312 152.642-61.431 149.86-59.976 147.509-60.569 144.411-61.034 141.988-62.596 138.957-64.306 136.941-67.211 133.52-69.78 129.399-71.795 125.137-73.85 120.786-75.305 116.361-75.925 112.452-76.229 110.539-76.35 108.621-76.255 106.902-72.067 105.863-64.536 108.638-56.13 113.025-53.538 114.377-50.899 115.882-48.264 117.484-51.009 119.21-52.915 121.697-54.159 124.665-54.491 125.458-54.772 126.285-55.007 127.141-55.272 127.639-55.516 128.152-55.737 128.682-57.029 131.763-57.551 135.375-57.551 139.113-57.552 146.686-55.295 155.09-53.212 159.907-47.33 173.513-34.245 190.664-19.12 204.685-5.507 217.305 9.942 227.579 23.636 230.83 26.692 231.556 29.686 231.793 32.489 231.302 35.746 230.732 38.626 229.239 40.933 226.522 41.849 225.442 42.555 224.297 43.11 223.065 46.744 215.01 46.675 209.266 47.792 200.893 48.336 196.815 47.407 191.843 45.283 186.245 47.05 186.459 48.622 186.236 50.016 185.689 52.335 184.779 53.897 183.122 54.897 181.061 55.348 180.135 55.662 179.144 55.869 178.132 56.091 177.784 56.293 177.421 56.477 177.044 57.216 175.521 57.591 173.823 57.721 172.147 58.055 167.819 56.038 162.342 54.885 161.303 54.262 160.742 53.432 160.074 52.433 159.27 51.172 158.255 49.582 156.976 47.533 155.125 44.508 152.394 37.115 141.31 31.845 131.421 30.49 128.881 29.182 126.64 28.14 124.89 32.188 125.69 39.004 128.048 46.843 131.102 68.788 139.652 96.021 154.684 102.573 159.625 103.689 160.467 104.469 161.109 105.15 161.67 108.384 164.333 110.792 166.319 114.484 164.146 119.877 160.974 119.104 153.18 116.195 148.237 114.576 145.487 112.331 143.343 109.875 140.998 107.717 138.935 105.35 136.675 103.651 134.05L102.912 128.169 101.071 126.732C99.677 125.644 97.278 123.718 94.525 121.51 75.166 105.973 37.584 75.811 17.83 77.497 13.818 77.839 10.639 79.203 7.782 81.268 5.296 83.066 3.208 85.331 .99 87.89L.879 88.023C-1.894 91.439-3.695 94.84-4.726 98.267-6.354 101.601-7.17 104.944-7.363 108.332-7.47 110.174-7.384 112-7.142 113.823-17.457 103.012-28.232 93.055-38.373 84.939-57.53 69.607-75.18 60.705-84.882 64.153-88.372 65.393-91.372 68.929-93.653 73.46-94.544 75.231-95.362 77.208-96.078 79.27-97.803 83.151-99.179 87.729-99.94 91.98-100.482 95.002-100.615 97.935-100.432 100.809-103.977 97.402-107.636 94.024-111.268 90.873-125.403 78.606-139.755 69.676-148.416 73.897-153.54 76.395-156.659 80.966-158.332 86.459-159.847 89.517-160.755 93.04-161.187 96.754-162.319 106.461-160.105 117.899-157.292 124.423L-157.228 124.57C-166.813 111.843-177.939 100.11-191.088 88.641M23.7 27.28C15.216 21.717 5.429 12.498-3.022 2.558-10.174-5.854-21.02-20.38-28.815-34.486-35.208-46.051-38.747-51.308-25.976-39.73-8.973-24.317 12.772 .443 25.976 20.29 33.185 31.127 36.98 35.99 23.7 27.28" fill="#ffffff" fill-rule="evenodd"/>
</g>
</g>
</svg>
