<?xml version="1.0" encoding="UTF-8" standalone="no"?>
<!-- Created with Inkscape (http://www.inkscape.org/) -->

<svg
   version="1.1"
   id="svg2"
   width="687.42267"
   height="536.23999"
   viewBox="0 0 687.42267 536.23999"
   sodipodi:docname="2.ai"
   xmlns:inkscape="http://www.inkscape.org/namespaces/inkscape"
   xmlns:sodipodi="http://sodipodi.sourceforge.net/DTD/sodipodi-0.dtd"
   xmlns="http://www.w3.org/2000/svg"
   xmlns:svg="http://www.w3.org/2000/svg">
  <defs
     id="defs6">
    <clipPath
       clipPathUnits="userSpaceOnUse"
       id="clipPath16">
      <path
         d="M 0,402.18 H 515.567 V 0 H 0 Z"
         id="path14" />
    </clipPath>
  </defs>
  <sodipodi:namedview
     id="namedview4"
     pagecolor="#ffffff"
     bordercolor="#000000"
     borderopacity="0.25"
     inkscape:showpageshadow="2"
     inkscape:pageopacity="0.0"
     inkscape:pagecheckerboard="0"
     inkscape:deskcolor="#d1d1d1" />
  <g
     id="g8"
     inkscape:groupmode="layer"
     inkscape:label="2"
     transform="matrix(1.3333333,0,0,-1.3333333,0,536.24)">
    <g
       id="g10">
      <g
         id="g12"
         clip-path="url(#clipPath16)">
        <g
           id="g18"
           transform="translate(366.0965,309.6933)">
          <path
             d="m 0,0 c 1.267,1.436 2.556,2.849 3.832,4.211 5.616,5.995 10.863,10.909 12.897,12.601 1.252,1.043 2.574,2.103 3.945,3.174 0.92,0.719 1.887,1.458 2.889,2.213 -0.265,-0.404 -0.536,-0.808 -0.81,-1.212 C 21.049,18.479 19.076,15.828 16.904,13.094 14.722,10.345 12.446,7.649 10.132,5.038 8.258,4.058 6.186,2.993 4.032,1.934 2.696,1.275 1.341,0.624 0,0 m -212.804,-147.066 -4.654,-2.508 c -5.238,-2.831 -9.111,-4.924 -12.879,-6.147 -2.007,-0.653 -4.058,-1.078 -6.387,-1.267 l 0.861,1.67 c 1.392,2.697 2.87,5.56 4.857,9.293 1.466,2.757 2.948,5.48 4.399,8.026 5.835,1.709 11.575,3.294 17.201,4.744 3.044,0.785 6.145,1.552 9.303,2.302 -0.973,-1.765 -1.8,-3.361 -2.522,-4.783 z m 238.894,6.788 c -9.424,-12.943 -12.057,-20.448 -40.88,-50.583 2.94,5.031 6.22,10.072 9.514,14.803 5.017,7.207 10.016,13.622 13.885,18.174 5.353,6.295 11.227,12.358 17.553,17.692 z M -163.65,51.177 c 3.268,0.807 6.296,1.37 9.02,1.642 1.81,0.181 3.463,0.233 4.94,0.141 l -0.136,-0.69 c -0.343,-1.68 -0.814,-3.55 -1.38,-5.544 -2.788,-9.821 -6.714,-19.248 -11.563,-28.23 -5.148,-9.537 -11.32,-18.551 -18.263,-26.983 -7.42,-9.013 -15.738,-17.391 -24.645,-25.063 -7.074,-6.093 -14.51,-11.729 -22.152,-16.872 1.1,1.994 2.186,3.937 3.257,5.826 3.339,5.887 6.696,11.548 10.159,17.037 3.503,5.551 7.164,10.993 11.094,16.401 3.9,5.368 8.02,10.635 12.459,15.861 l 1.05,1.237 c 1.24,1.444 2.408,2.776 3.5,3.996 1.106,1.235 2.408,2.655 3.911,4.264 1.153,1.235 2.276,2.418 3.366,3.546 0.8,0.829 1.597,1.645 2.392,2.449 2.603,0.183 4.562,0.512 6.559,1.825 2.285,1.501 3.862,3.904 5.472,8.345 0.483,1.332 1.22,3.9 1.746,6.716 0.378,2.024 0.658,4.243 0.68,6.348 0.018,1.738 -0.307,3.676 -0.809,5.567 -0.193,0.729 -0.416,1.462 -0.657,2.181 m 60.772,-63.476 0.316,-0.163 c -0.44,0.047 -0.778,0.055 -0.316,0.163 m 50.486,-12.799 c 0.346,-1.986 0.871,-3.884 1.606,-5.639 0.092,-0.218 0.232,-0.529 0.428,-0.94 0.07,-0.148 0.16,-0.327 0.268,-0.537 0.118,-0.414 0.23,-0.772 0.332,-1.073 v -0.015 c 0.154,-0.448 0.336,-0.927 0.55,-1.436 v -0.016 c 0.741,-1.768 1.704,-3.427 2.917,-4.942 -1.085,-0.608 -2.107,-1.164 -3.059,-1.66 -4.24,-2.213 -8.214,-3.986 -11.555,-5.003 -0.959,-0.291 -1.843,-0.517 -2.639,-0.67 0.039,0.329 0.084,0.655 0.136,0.977 0.271,1.714 0.739,3.583 1.376,5.538 0.65,1.997 1.469,4.046 2.428,6.077 0.941,1.991 2.029,3.973 3.238,5.877 1.158,1.827 2.398,3.535 3.693,5.06 l 0.039,0.046 c 0.068,-0.551 0.148,-1.1 0.242,-1.644 m 64.647,-54.597 c -1.577,-0.283 -3.211,-0.647 -4.792,-1.132 -1.673,-0.513 -3.325,-1.17 -4.859,-2.021 -2.3,-1.275 -4.277,-2.901 -5.72,-4.977 -1.104,-1.585 -1.88,-3.397 -2.238,-5.471 -0.944,-0.387 -1.922,-0.833 -2.926,-1.427 -1.62,-0.957 -3.281,-2.266 -4.922,-4.239 -1.648,-1.979 -2.658,-4.147 -3.123,-6.291 -0.528,-2.426 -0.366,-4.851 0.353,-6.977 l 0.005,0.001 c 0.202,-0.595 0.453,-1.182 0.752,-1.754 0.138,-0.265 0.279,-0.516 0.422,-0.754 l 0.053,-0.242 c 0.108,-0.482 0.224,-0.907 0.346,-1.269 l 0.005,0.002 c 0.088,-0.258 0.185,-0.515 0.291,-0.77 -4.926,-4.872 -9.879,-9.962 -14.897,-15.121 l -0.047,-0.048 c -8.354,-8.586 -16.898,-17.369 -25.451,-25.284 -4.222,-3.906 -8.491,-7.651 -12.811,-11.132 1.811,3.167 3.682,6.273 5.509,9.159 3.146,4.966 6.138,9.255 8.436,12.045 0.476,0.579 0.916,1.089 1.305,1.513 0.157,0.169 -0.175,0 -0.008,0.104 l 0.89,0.558 0.469,0.424 c 0.355,0.32 0.723,0.709 1.1,1.163 0.332,0.4 0.644,0.828 0.934,1.282 1.443,2.259 2.054,5.071 1.991,8.127 -0.06,2.95 -0.744,6.18 -1.888,9.331 -0.154,0.423 -0.368,0.97 -0.641,1.637 -0.255,0.624 -0.458,1.109 -0.611,1.455 l -0.118,0.361 h -0.015 l -0.194,0.565 c -0.894,2.461 -2.096,5.038 -3.486,7.446 -1.358,2.355 -2.881,4.534 -4.459,6.284 -0.659,0.731 -1.377,1.437 -2.15,2.105 -0.727,0.627 -1.502,1.209 -2.324,1.735 l 0.004,0.007 -0.283,0.181 -0.108,0.063 c -2.48,1.481 -4.963,2.134 -7.416,2.108 -2.633,-0.027 -5.121,-0.829 -7.448,-2.22 -1.465,-0.876 -2.812,-1.991 -4.037,-3.269 -1.262,-1.317 -2.418,-2.836 -3.456,-4.46 -0.463,-0.728 0.008,0.037 -0.338,-0.516 l -0.238,-0.399 c -5.106,-8.546 -13.892,-21.308 -24.183,-34.585 -8.447,-10.898 -17.892,-22.121 -27.122,-31.605 -5.76,-5.918 -11.317,-11.1 -16.29,-14.96 -1.299,-1.009 -2.551,-1.923 -3.746,-2.732 0.48,1.347 1.044,2.625 1.705,3.947 1.032,2.061 2.326,4.304 3.899,7.03 l 1.303,2.256 0.68,1.149 c 0.151,0.252 0.314,0.464 0.484,0.653 0.201,0.225 0.541,0.555 0.88,0.884 0.694,0.673 1.389,1.347 2.155,2.231 0.793,0.916 1.587,1.971 2.378,3.307 1.224,2.065 2.066,4.075 2.572,5.955 0.591,2.194 0.738,4.24 0.514,6.03 -0.391,3.132 -1.78,6.994 -4.112,9.877 -2.102,2.595 -4.956,4.462 -8.582,4.626 -1.663,0.074 -3.399,-0.193 -5.136,-0.836 -1.524,-0.566 -3.091,-1.445 -4.648,-2.664 -3.992,-3.127 -7.219,-8.323 -10.165,-13.069 l -0.418,-0.673 c -0.552,-0.888 -1.09,-1.748 -1.605,-2.538 l -0.294,-0.334 -0.007,0.007 c -1.696,-1.882 -7.982,-7.723 -15.693,-14.263 -3.044,-2.582 -6.288,-5.255 -9.534,-7.814 2.54,4.374 5,8.291 6.831,10.977 0.352,0.169 0.697,0.36 1.035,0.571 0.723,0.453 1.421,1.007 2.102,1.662 0.883,0.849 1.573,1.765 2.177,2.802 0.514,0.881 0.956,1.853 1.417,2.966 0.501,1.211 0.878,2.767 1.079,4.433 0.039,0.32 0.072,0.648 0.098,0.981 0.662,0.162 1.327,0.371 1.991,0.629 0.168,0.067 0.416,0.174 0.754,0.329 0.3,0.136 0.55,0.255 0.743,0.355 2.859,1.472 5.556,3.741 8.307,6.057 0.011,0.008 0.068,0.043 0.061,0.051 0.858,0.723 1.725,1.453 2.591,2.138 0.784,0.62 1.533,1.174 2.203,1.588 2,1.235 3.555,2.324 4.746,3.312 1.366,1.133 2.382,2.232 3.134,3.339 0.84,1.237 1.436,2.421 1.816,3.565 0.169,0.51 0.296,1.007 0.383,1.493 1.984,1.778 3.543,3.92 4.19,6.616 0.669,2.786 0.315,5.926 -1.624,9.507 -0.281,1.172 -0.735,2.389 -1.387,3.653 2.536,0.358 5.138,0.701 7.803,1.026 4.601,0.562 9.149,1.034 13.636,1.411 3.358,0.283 6.366,0.993 8.899,1.953 3.012,1.142 5.418,2.68 7.026,4.326 1.117,1.143 1.982,2.404 2.578,3.756 0.614,1.388 0.941,2.879 0.968,4.446 0.023,1.339 -0.167,2.619 -0.579,3.823 -0.289,0.846 -0.677,1.648 -1.163,2.401 -0.214,1.205 -0.626,2.358 -1.24,3.446 l -0.007,-0.003 c -0.78,1.374 -1.864,2.602 -3.259,3.65 -1.676,1.258 -3.988,2.252 -6.928,2.789 -2.407,0.441 -5.276,0.596 -8.6,0.357 -7.437,-0.537 -14.872,-1.189 -22.326,-1.956 -7.294,-0.75 -14.574,-1.614 -21.863,-2.59 -4.774,-0.639 -9.569,-1.332 -14.39,-2.077 -3.978,-0.615 -7.686,-1.215 -11.13,-1.801 -0.582,1.155 -1.18,2.215 -1.794,3.185 l -0.161,0.253 c 5.19,3.185 10.145,6.473 14.72,9.714 6.212,4.402 11.713,8.721 16.138,12.581 6.687,5.833 12.85,11.721 18.545,17.756 1.648,1.746 3.257,3.504 4.829,5.275 -0.422,-4.123 -0.482,-8.387 -0.016,-12.391 0.243,-2.084 0.631,-4.142 1.185,-6.14 0.507,-1.826 1.147,-3.572 1.936,-5.207 1.006,-3.178 2.458,-6.106 4.443,-8.62 1.966,-2.491 4.412,-4.546 7.41,-6.007 5.584,-2.721 12.517,-1.447 20.04,2.336 6.75,3.396 14.14,8.885 21.433,15.214 1.623,1.408 3.195,2.808 4.714,4.19 l 0.133,-0.788 c 0.41,-2.29 0.987,-4.667 1.693,-6.99 0.674,-2.217 1.475,-4.406 2.372,-6.447 0.408,-1.168 0.806,-2.221 1.19,-3.141 0.43,-1.029 0.895,-2.043 1.39,-3.028 1.348,-2.679 2.943,-5.081 4.753,-7 1.847,-1.961 3.933,-3.442 6.235,-4.26 5.698,-2.025 13.224,-0.739 21.807,3.096 8.509,3.803 18.307,10.197 28.483,18.341 5.158,4.128 10.47,8.718 15.793,13.641 3.108,2.873 6.199,5.839 9.249,8.87 0.126,-0.686 0.278,-1.373 0.455,-2.063 0.486,-1.885 1.144,-3.721 1.991,-5.505 0.578,-1.836 1.361,-3.684 2.372,-5.547 1.042,-1.92 2.319,-3.826 3.858,-5.722 l 0.031,-0.031 0.157,-0.196 c 1.165,-1.344 2.3,-2.615 3.483,-3.798 1.138,-1.139 2.304,-2.189 3.549,-3.128 -0.448,-0.039 -0.909,-0.1 -1.384,-0.186 m -356.637,-54.212 c 1.81,1.128 3.804,2.066 6.015,2.779 8.723,2.813 16.928,5.39 24.592,7.712 6.49,1.965 13.111,3.908 19.908,5.833 -5.249,1.57 -10.033,4.156 -14.193,7.944 -1.333,1.215 -2.435,2.641 -3.333,4.219 -0.831,1.46 -1.481,3.057 -1.973,4.738 -0.686,1.331 -1.229,2.744 -1.645,4.205 l -0.081,0.291 c -0.372,-0.535 -0.77,-1.043 -1.189,-1.518 -1.045,-1.185 -2.32,-2.26 -3.683,-3.122 -1.379,-0.872 -2.873,-1.529 -4.344,-1.871 -0.969,-0.225 -2.006,-0.344 -3.068,-0.347 -0.97,-0.003 -1.941,0.099 -2.879,0.314 -0.658,-0.403 -1.304,-0.759 -1.937,-1.07 -1.306,-0.641 -2.56,-1.091 -3.757,-1.378 -1.3,-0.313 -2.544,-0.443 -3.728,-0.416 -1.309,0.03 -2.542,0.246 -3.697,0.614 -1.269,0.403 -2.394,0.966 -3.384,1.652 -1.057,0.733 -1.972,1.613 -2.752,2.599 -0.529,0.667 -1.433,2.513 -2.242,4.374 v 0.016 c -0.858,1.977 -1.723,4.188 -1.921,5.013 -0.341,1.42 -0.458,2.835 -0.403,4.194 0.033,0.788 0.123,1.564 0.261,2.316 -0.429,0.326 -0.831,0.683 -1.206,1.067 -0.778,0.797 -1.435,1.726 -1.955,2.762 l -0.434,0.863 v 0.06 c -0.632,1.406 -1.322,3.259 -1.768,5.044 -0.478,1.913 -0.703,3.881 -0.395,5.52 0.094,0.497 0.235,1.032 0.425,1.603 0.174,0.523 0.382,1.042 0.626,1.549 0.228,0.474 0.473,0.923 0.734,1.335 0.243,0.384 0.542,0.8 0.902,1.25 0.323,0.404 0.611,0.74 0.86,1.001 0.296,0.311 0.613,0.614 0.95,0.905 0.313,0.27 0.625,0.52 0.935,0.747 h 0.016 l 0.523,0.373 c 0.705,0.713 1.456,1.311 2.235,1.802 1.028,0.646 2.076,1.094 3.117,1.358 1.317,0.336 2.628,0.408 3.917,0.236 1.34,-0.179 2.591,-0.609 3.74,-1.267 l 2,-1.147 v -0.373 l 0.191,-0.187 c 0.648,-0.649 1.202,-1.381 1.659,-2.185 0.476,-0.841 0.874,-1.798 1.237,-2.748 l 0.194,-0.005 c 1.325,-0.047 2.609,-0.305 3.837,-0.752 0.766,-0.28 1.486,-0.62 2.156,-1.016 0.706,-0.419 1.356,-0.884 1.944,-1.391 v -0.015 c 1.344,-1.158 2.451,-2.344 3.345,-3.554 0.33,-0.447 0.631,-0.898 0.905,-1.352 0.161,-0.02 0.317,-0.043 0.469,-0.07 0.264,-0.047 0.525,-0.101 0.781,-0.162 -0.625,1.27 -1.199,2.557 -1.688,3.811 -2.173,5.576 -2.659,10.966 0.701,13.683 l 0.03,0.031 0.054,0.041 0.062,0.032 c 4.692,3.561 16.282,-2.222 22.462,-5.304 1.201,-0.6 2.186,-1.091 2.487,-1.227 2.012,-0.903 4.015,-1.698 6.024,-2.389 1.976,-0.68 3.835,-1.217 5.592,-1.617 2.065,-0.469 4.14,-0.788 6.253,-0.968 l 0.796,-0.06 c -1.17,4.92 -0.169,11.096 2.468,18.071 3.189,8.435 8.812,18.295 15.804,28.573 7.18,10.553 15.856,21.811 24.703,32.405 4,4.791 8.044,9.454 12.007,13.862 -4.542,-2.432 -8.99,-4.891 -13.276,-7.322 -13.443,-7.623 -25.389,-14.997 -33.786,-20.409 -0.085,-1.647 -0.595,-3.273 -1.569,-4.876 -1.139,-1.875 -2.912,-3.668 -5.383,-5.372 l -1.362,-0.938 -17.003,-11.86 c -1.438,-1.114 -2.827,-2.047 -4.164,-2.805 -1.43,-0.81 -2.819,-1.43 -4.166,-1.865 -1.88,-0.608 -3.703,-0.877 -5.464,-0.821 -1.875,0.06 -3.638,0.48 -5.289,1.244 -3.194,1.478 -5.628,4.575 -7.363,8.146 -2.032,4.181 -3.182,9.204 -3.408,12.648 l -0.075,1.145 0.188,1.082 c 0.209,1.202 0.459,2.498 0.751,3.887 0.262,1.253 0.563,2.578 0.903,3.976 0.338,1.389 0.681,2.71 1.028,3.962 0.404,1.459 0.766,2.693 1.086,3.704 0.48,1.514 0.746,2.452 1.014,3.397 0.985,3.478 1.986,7.005 3.642,10.42 1.766,3.642 4.198,6.995 7.943,9.714 9.629,6.99 20.785,14.029 32.808,20.71 11.805,6.559 24.404,12.748 37.168,18.177 12.153,5.169 24.526,9.68 36.594,13.205 11.401,3.33 22.47,5.767 32.758,7.035 3.521,0.434 7.097,0.732 10.694,0.859 3.362,0.119 6.614,0.078 9.702,-0.15 3.099,-0.23 6.134,-0.657 9.071,-1.313 2.812,-0.627 5.493,-1.461 8.007,-2.527 2.529,-1.072 4.887,-2.587 7.037,-4.406 2.262,-1.914 4.32,-4.179 6.119,-6.624 1.441,-1.959 2.743,-4.073 3.865,-6.235 1.134,-2.184 2.079,-4.397 2.797,-6.532 0.519,-1.163 1.003,-2.394 1.445,-3.672 0.466,-1.35 0.843,-2.639 1.12,-3.841 0.823,-3.574 1.153,-7.326 1.072,-11.198 -0.08,-3.784 -0.558,-7.673 -1.352,-11.615 -0.768,-3.81 -1.795,-7.577 -3.012,-11.271 -0.301,-0.912 -0.616,-1.826 -0.943,-2.743 0.894,0.561 1.805,1.019 2.723,1.377 h 0.015 c 0.373,0.146 0.749,0.275 1.126,0.389 0.002,0.169 0.008,0.338 0.018,0.508 0.054,0.983 0.236,1.975 0.565,2.96 0.29,0.865 0.659,1.664 1.111,2.39 0.124,0.198 0.254,0.392 0.39,0.581 l -0.025,0.851 1.481,2.432 c 1.033,1.696 3.037,4.786 5.373,8.188 1.81,2.635 3.815,5.458 5.726,7.985 1.71,2.259 3.429,4.384 5.028,6.135 1.523,1.668 2.984,3.038 4.297,3.94 0.931,0.638 1.917,1.188 2.969,1.626 1.09,0.453 2.232,0.784 3.435,0.967 0.915,0.14 1.872,0.189 2.876,0.136 0.417,-0.022 0.835,-0.061 1.253,-0.12 l 2.696,1.582 c 0.631,0.37 1.286,0.728 1.96,1.066 0.621,0.312 1.262,0.605 1.92,0.873 v 0.016 c 1.695,0.692 3.472,1.213 5.282,1.49 1.711,0.262 3.466,0.3 5.229,0.056 2.355,-0.326 4.574,-1.111 6.565,-2.458 v -0.016 c 1.843,-1.247 3.458,-2.947 4.766,-5.177 1.4,-2.385 2.34,-4.8 3.279,-7.21 0.512,-1.317 1.026,-2.635 1.576,-3.838 2.011,-4.394 2.194,-7.783 1.057,-10.588 -1.175,-2.897 -3.548,-4.745 -6.668,-6.172 -0.726,-0.331 -1.315,-0.557 -1.842,-0.732 -0.42,-0.139 -0.971,-0.294 -1.54,-0.455 l 10e-4,-0.004 -0.045,-0.009 c -0.47,-0.132 -0.962,-0.272 -1.052,-0.302 -9.998,-3.366 -19.48,-9.465 -29.077,-15.643 l 0.004,-0.006 -0.064,-0.032 -0.15,-0.097 c -1.081,-0.695 -1.676,-1.068 -2.158,-1.37 l -0.631,-0.396 -0.4,-0.59 -0.031,-0.031 -1.107,-1.606 C -87.335,8.493 -87.721,8.004 -88.149,7.53 -88.587,7.046 -89.035,6.615 -89.491,6.246 l -1.093,-0.884 h -0.176 c -0.173,-0.106 -0.349,-0.208 -0.529,-0.305 0.054,-0.563 0.083,-1.137 0.084,-1.724 0.006,-1.871 -0.252,-3.839 -0.825,-5.854 -1.091,-3.834 -2.164,-5.935 -3.879,-7.391 -1.898,-1.609 -3.673,-1.879 -6.428,-2.295 -0.385,-0.057 0.142,0.035 -0.299,-0.038 l -0.242,-0.054 0.316,-0.163 c 0.473,-0.051 1.063,-0.148 0.9,-0.464 -0.873,-1.692 -2.237,-4.449 -3.811,-7.678 -1.386,-2.847 -2.718,-5.792 -3.914,-8.6 l -0.015,-0.038 0.249,0.119 c 3.092,1.478 6.183,3.111 9.194,4.829 4.468,2.548 8.678,5.263 12.379,7.916 3.84,2.752 7.022,5.359 9.276,7.571 0.741,0.728 1.304,1.235 1.747,1.607 l 0.239,0.198 c 0.695,1.155 1.408,2.188 2.163,3.129 0.8,0.997 1.646,1.881 2.569,2.689 0.991,0.869 1.996,1.586 3.049,2.196 1.038,0.602 2.122,1.103 3.288,1.546 0.336,0.127 0.595,0.22 0.774,0.277 2.758,0.873 5.65,0.881 8.174,-0.055 l -0.002,-0.006 c 2.511,-0.934 4.611,-2.738 5.859,-5.476 0.689,2.39 1.46,4.547 2.214,6.291 3.074,7.111 7.973,15.075 14.034,23.035 6.034,7.926 13.252,15.904 20.988,23.076 7.288,6.755 15.107,12.868 22.937,17.656 7.31,4.47 14.646,7.799 21.601,9.45 1.718,0.408 3.456,0.681 5.205,0.785 1.793,0.108 3.549,0.031 5.246,-0.266 2.034,-0.356 3.984,-1.018 5.819,-2.034 1.83,-1.014 3.496,-2.363 4.965,-4.095 0.547,-0.645 1.062,-1.358 1.549,-2.136 0.491,-0.783 0.893,-1.531 1.218,-2.252 3.142,-6.963 3.724,-12.186 4.426,-18.484 0.184,-1.661 0.378,-3.393 0.566,-4.803 0.322,-2.419 0.227,-5.035 -0.249,-7.814 -0.216,-1.26 -0.512,-2.563 -0.882,-3.904 0.296,-0.093 0.588,-0.196 0.874,-0.308 1.611,-0.632 2.979,-1.524 4.133,-2.619 1.207,-1.144 2.152,-2.492 2.873,-3.979 0.276,-0.568 0.526,-1.198 0.75,-1.875 0.144,-0.433 0.268,-0.86 0.372,-1.281 l 0.057,-0.101 c 0.158,-0.282 0.29,-0.535 0.399,-0.76 0.485,-0.998 0.846,-2.015 1.104,-3.028 0.273,-1.077 0.443,-2.188 0.528,-3.295 C 70.465,12.198 70.097,9.613 69.508,7.361 68.697,4.264 67.272,1.489 66.146,0.473 65.504,-0.104 64.61,-0.824 63.534,-1.69 l -0.019,-0.016 c -1.193,-0.96 -2.698,-2.171 -4.721,-3.998 -1.288,-1.162 -3.699,-4.4 -6.449,-8.556 -2.453,-3.706 -5.088,-8.026 -7.395,-12.205 2.718,0.945 5.789,2.091 9.076,3.372 9.513,3.707 20.03,8.645 29.381,13.431 11.885,6.083 21.837,11.887 25.389,14.566 1.188,0.896 1.849,1.438 2.42,1.908 l -0.005,0.007 0.007,0.006 h 0.012 l 0.023,0.018 c 4.452,3.668 7.772,6.402 13.841,2.83 l 0.093,-0.047 -0.002,-0.008 c 3.966,-2.377 5.665,-6.301 5.831,-10.49 0.146,-3.71 -0.986,-7.671 -2.777,-10.734 l 0.009,-0.006 -0.033,-0.035 c -0.983,-1.669 -2.105,-3.1 -3.326,-4.438 -1.115,-1.221 -2.332,-2.386 -3.605,-3.601 l 0.007,-0.006 -0.078,-0.063 c -1.787,-1.707 -3.729,-3.562 -5.152,-5.53 l -0.823,-6.545 -3.123,-2.437 c -1.094,-0.854 -3.591,-2.858 -6.458,-5.159 l -0.041,-0.033 -0.05,-0.049 -0.003,0.006 C 85.764,-55.392 47.408,-86.158 26.114,-84.34 c -0.882,0.075 -1.733,0.194 -2.559,0.353 0.518,-0.801 0.924,-1.685 1.217,-2.649 0.136,-0.446 0.24,-0.875 0.309,-1.287 0.143,-0.216 0.277,-0.439 0.405,-0.67 v -0.016 c 0.125,-0.225 0.242,-0.455 0.349,-0.688 0.573,0.189 1.146,0.368 1.719,0.536 2.125,0.624 4.212,1.097 6.25,1.406 l 0.326,0.049 0.806,0.025 c 2.606,0.083 5.16,-0.173 7.615,-0.842 2.354,-0.641 4.598,-1.659 6.686,-3.117 1.957,-1.366 3.711,-3.072 5.214,-5.162 1.401,-1.947 2.575,-4.212 3.486,-6.827 v -0.016 l 0.214,-0.62 0.016,-0.015 0.115,-0.338 c 0.197,-0.411 0.399,-0.868 0.608,-1.372 0.202,-0.486 0.41,-1.037 0.625,-1.656 5.343,-15.355 2.424,-23.54 0.285,-38.316 0.647,-0.957 1.238,-1.979 1.778,-3.041 0.754,-1.481 1.456,-3.154 2.107,-4.893 l 0.476,-1.277 c 0.201,-0.461 0.391,-0.911 0.568,-1.35 0.135,-0.336 0.316,-0.809 0.534,-1.39 l 1.463,-3.916 -7.731,-15.406 c 1.396,0.649 2.838,1.336 4.318,2.054 5.595,2.72 11.71,5.913 17.927,9.332 9.392,5.165 18.842,10.766 26.968,15.981 7.693,4.937 14.169,9.505 18.232,12.991 1.252,1.075 2.517,1.999 3.756,2.74 1.308,0.781 2.615,1.365 3.881,1.713 1.4,0.383 2.785,0.519 4.15,0.39 1.384,-0.13 2.72,-0.529 3.997,-1.211 1.535,-0.821 2.791,-1.915 3.742,-3.293 0.847,-1.229 1.43,-2.637 1.725,-4.232 0.312,-0.477 0.585,-0.985 0.82,-1.525 0.394,-0.907 0.673,-1.875 0.829,-2.908 0.186,-1.229 0.177,-2.598 -0.054,-4.107 -0.172,-1.128 -0.474,-2.358 -0.915,-3.693 v -0.063 l -0.232,-0.651 c -1.612,-4.507 -4.57,-9.55 -8.525,-14.877 -1.88,-2.533 -3.991,-5.137 -6.293,-7.782 1.265,-0.136 2.466,-0.457 3.593,-0.974 1.281,-0.586 2.429,-1.418 3.424,-2.504 0.878,-0.958 1.558,-2.003 2.023,-3.134 0.293,-0.71 0.501,-1.451 0.62,-2.221 0.755,-1.122 1.269,-2.345 1.526,-3.669 0.322,-1.654 0.217,-3.416 -0.349,-5.281 -0.389,-1.282 -1.052,-2.619 -2.019,-3.993 -0.502,-0.711 -1.097,-1.45 -1.789,-2.212 0.229,-1.423 0.219,-2.769 -0.009,-4.057 -0.367,-2.066 -1.282,-3.887 -2.664,-5.548 -1.251,-1.503 -2.682,-2.556 -4.287,-3.349 -1.444,-0.713 -2.974,-1.189 -4.622,-1.598 l -0.206,-0.051 c -1.761,-0.436 -3.456,-0.857 -5.177,-1.105 -1.929,-0.279 -3.836,-0.334 -5.78,0.035 -2.66,0.504 -4.93,1.484 -6.703,3.122 -1.668,1.54 -2.805,3.533 -3.307,6.092 -0.765,1.197 -1.307,2.578 -1.603,4.169 l -1.832,-1.516 c -3.118,-2.563 -6.342,-5.106 -9.629,-7.601 -13.034,-9.893 -26.556,-18.433 -38.055,-23.766 -10.693,-4.959 -19.977,-7.221 -26.142,-5.451 h -0.116 l -0.667,0.238 c -2.326,0.831 -4.466,2.428 -6.39,4.512 -1.954,2.114 -3.702,4.749 -5.192,7.553 -0.69,1.299 -1.383,2.758 -2.054,4.296 -0.699,1.601 -1.307,3.13 -1.808,4.528 -0.748,1.75 -1.421,3.529 -1.991,5.215 -1.694,-1.735 -3.415,-3.48 -5.149,-5.22 -3.456,-3.468 -6.925,-6.872 -10.304,-10.078 -7.188,-6.823 -14.285,-13.007 -20.626,-17.574 -6.752,-4.863 -12.817,-7.948 -17.546,-8.184 -2.406,-0.122 -4.767,0.16 -7.085,0.91 -2.308,0.746 -4.53,1.935 -6.658,3.629 -1.735,1.381 -3.406,3.121 -5.009,5.261 -1.542,2.058 -3.003,4.465 -4.378,7.255 -0.387,0.786 -0.742,1.585 -1.067,2.398 -0.317,0.796 -0.591,1.544 -0.819,2.245 -1.294,2.769 -2.196,5.696 -2.77,8.696 -0.178,0.926 -0.322,1.86 -0.437,2.799 -1.748,-1.743 -3.633,-3.439 -5.651,-4.955 -5.287,-3.972 -11.351,-6.584 -18.034,-5.539 h -0.06 c -0.125,0.022 -0.366,0.085 -0.481,0.085 -4.217,0.779 -7.877,2.776 -10.947,5.574 -3.254,2.965 -5.836,6.825 -7.696,11.056 v 0.015 c -0.301,0.687 -0.555,1.298 -0.757,1.83 -0.204,0.531 -0.41,1.112 -0.617,1.738 l -0.189,0.418 -0.015,0.015 c -0.594,1.352 -1.124,2.776 -1.583,4.248 l -1.981,-2.619 c -5.778,-7.61 -11.467,-14.706 -16.732,-20.609 -5.452,-6.113 -10.596,-11.14 -15.138,-14.44 -2.601,-1.89 -5.013,-3.52 -7.469,-4.787 -2.64,-1.36 -5.272,-2.26 -8.113,-2.545 -3.351,-0.335 -6.522,0.166 -9.652,1.716 -2.947,1.461 -5.771,3.818 -8.588,7.257 -1.252,1.528 -2.346,3.212 -3.291,5.005 -0.923,1.75 -1.693,3.605 -2.321,5.517 -0.373,0.803 -0.731,1.667 -1.073,2.582 -0.34,0.911 -0.629,1.766 -0.867,2.566 -0.926,-0.995 -1.86,-1.988 -2.801,-2.976 -2.506,-2.626 -5,-5.141 -7.426,-7.459 -5.081,-4.854 -10.081,-8.948 -14.679,-11.684 -4.514,-2.687 -8.746,-4.094 -12.469,-3.733 l -0.001,-0.007 -0.267,0.022 -0.263,0.031 c -3.316,0.501 -6.316,2.131 -8.961,4.501 -2.732,2.451 -5.063,5.676 -6.936,9.203 -0.612,1.155 -1.193,2.374 -1.735,3.629 -0.463,1.074 -0.929,2.281 -1.39,3.591 -1.408,3.188 -2.536,6.581 -3.286,9.737 -0.781,3.292 -1.167,6.425 -1.054,8.928 0.168,3.731 1.505,8.208 3.559,13.032 1.473,3.458 3.325,7.136 5.378,10.858 -1.239,0.816 -2.409,1.784 -3.501,2.899 -1.296,1.324 -2.495,2.863 -3.581,4.616 -3.324,-6.336 -6.531,-12.554 -9.569,-18.599 -4.248,-8.453 -8.338,-16.887 -12.198,-25.281 -4.691,-10.201 -9.038,-20.334 -12.912,-30.367 -3.835,-9.929 -7.214,-19.8 -10.015,-29.587 -0.188,-0.657 -0.528,-2.793 -0.875,-5.166 -0.463,-3.162 -0.771,-5.461 -0.959,-6.867 -0.117,-0.883 -0.216,-1.605 -0.317,-2.131 -0.084,-0.439 -0.185,-0.853 -0.314,-1.258 v -0.183 l -0.357,-0.796 c -0.284,-0.636 -0.622,-1.237 -1.011,-1.799 -0.395,-0.57 -0.841,-1.102 -1.335,-1.59 -1.015,-1.003 -2.223,-1.812 -3.6,-2.38 -1.281,-0.53 -2.698,-0.838 -4.228,-0.89 -1.053,-0.033 -2.142,0.059 -3.243,0.294 -1.01,0.216 -2.063,0.559 -3.146,1.043 -1.153,0.517 -2.382,1.225 -3.656,2.154 -1.134,0.825 -2.284,1.808 -3.424,2.961 -1.232,1.247 -2.445,2.64 -3.625,4.134 -1.23,1.558 -2.378,3.172 -3.434,4.802 -1.589,2.452 -4.061,6.904 -5.934,11.245 -1.432,3.319 -2.566,6.708 -2.831,9.418 -0.539,5.503 0.628,12.372 3.095,20.188 2.601,8.238 6.713,17.728 11.814,27.891 5.665,11.286 12.515,23.469 19.788,35.641 6.58,11.01 13.497,22.008 20.197,32.33 -5.337,-2.158 -10.531,-4.338 -15.569,-6.548 -6.164,-2.704 -12.204,-5.486 -18.112,-8.358 -0.124,-0.531 -0.29,-1.047 -0.497,-1.545 -0.467,-1.128 -1.133,-2.163 -1.969,-3.094 l -2.636,-2.937 -0.417,0.374 c -0.956,-0.659 -1.992,-1.279 -2.997,-1.768 l -18.086,-8.824 c -3.119,-1.704 -5.875,-2.654 -8.313,-2.973 -2.898,-0.38 -5.357,0.117 -7.441,1.317 l -0.427,0.246 -0.302,0.281 c -2.275,2.118 -3.995,4.338 -5.145,6.663 -1.209,2.446 -1.777,4.975 -1.687,7.587 -0.069,2.64 0.454,5.399 1.208,8.042 0.721,2.533 1.639,4.936 2.428,7.001 l 0.005,-0.002 0.204,0.539 0.006,-0.002 0.379,1.017 -0.014,0.006 c 0.974,2.624 1.979,5.291 3.231,8.164 1.211,2.779 2.569,5.499 4.197,8.08 3.455,5.481 4.448,6.914 10.061,10.413 M -12.115,-8.969 c 0.678,0.979 1.428,2.022 2.229,3.107 7.912,10.715 20.547,22.766 24.087,25.713 2.637,2.194 5.397,4.332 8.211,6.429 2.749,2.048 5.592,4.08 8.43,6.094 1.258,0.892 2.394,1.621 3.409,2.191 -0.174,-0.534 -0.368,-1.094 -0.582,-1.68 C 32.086,28.551 29.407,23.75 26.023,18.771 22.281,13.262 17.628,7.496 12.593,1.858 8.506,-0.29 3.328,-2.924 -1.817,-5.149 -5.299,-6.654 -8.835,-8.013 -12.115,-8.969 m -326.126,-60.25 c 0.044,-0.104 0.084,-0.21 0.122,-0.318 1.83,0.519 3.618,0.423 5.295,-0.189 1.042,-0.379 2,-0.953 2.86,-1.692 2.243,-1.933 3.644,-3.894 4.387,-5.875 0.732,0.111 1.483,0.118 2.239,-0.017 1.998,-0.356 3.58,-1.209 4.503,-2.741 1.025,-1.702 2.589,-6.749 2.44,-8.689 -0.181,-2.358 -1.334,-4.612 -2.862,-6.344 -1.604,-1.819 -3.859,-3.271 -5.934,-3.753 -1.399,-0.325 -2.906,-0.35 -4.294,-0.011 -0.475,0.115 -0.935,0.269 -1.374,0.464 -2.219,-1.599 -4.226,-2.522 -6.005,-2.95 -1.977,-0.475 -3.753,-0.378 -5.317,0.121 -1.79,0.569 -3.185,1.615 -4.228,2.933 -0.629,0.794 -3.139,6.705 -3.419,7.869 -0.528,2.195 -0.325,4.436 0.262,6.362 0.127,0.418 0.277,0.829 0.445,1.228 -0.463,0.133 -0.908,0.314 -1.334,0.539 -1.312,0.695 -2.33,1.756 -2.987,3.062 v 0.023 c -1.077,2.142 -2.688,6.591 -2.24,8.968 0.134,0.705 0.371,1.437 0.725,2.175 0.293,0.611 0.675,1.225 1.156,1.826 0.406,0.508 0.844,0.973 1.314,1.378 0.422,0.365 0.903,0.72 1.446,1.058 1.167,1.278 2.467,2.04 3.768,2.371 1.697,0.433 3.288,0.188 4.711,-0.629 v -0.022 c 1.017,-0.584 1.816,-1.392 2.377,-2.382 0.683,-1.203 1.369,-3.378 1.944,-4.765 m 127.914,-81.02 c -1.841,-0.977 -3.605,-1.93 -5.256,-2.823 -10.835,-5.855 -16.021,-8.658 -27.667,-7.871 1.183,2.228 2.491,4.761 3.868,7.43 3.083,5.97 6.531,12.648 10.133,18.852 12.475,3.691 25.027,6.94 37.492,9.668 -3.113,-4.332 -5.668,-9.242 -7.581,-13.023 z m 242.637,19.635 c 13.28,8.71 9.485,3.847 2.275,-6.99 -13.203,-19.847 -34.948,-44.608 -51.951,-60.021 -12.771,-11.577 -9.232,-6.32 -2.84,5.244 7.796,14.107 18.643,28.633 25.793,37.044 8.451,9.941 18.238,19.16 26.723,24.723 M -168.972,53.837 c 9.924,2.88 18.266,3.998 23.734,2.374 -0.245,-2.966 -1.036,-6.617 -2.154,-10.554 -5.906,-20.804 -16.741,-39.838 -30.587,-56.656 -15.572,-18.915 -34.941,-35.028 -55.412,-47.724 l -0.003,0.004 c -1.62,-0.861 -3.205,-1.683 -4.756,-2.461 6.845,12.883 13.39,24.639 20.389,35.729 7.157,11.344 14.838,22.067 23.878,32.712 l 0.617,0.726 0.016,0.045 c 0.084,0.093 0.157,0.175 0.244,0.262 2.435,2.838 4.998,5.702 7.708,8.603 2.246,2.406 4.548,4.79 6.914,7.158 5.533,0.302 7.467,0.523 10.053,7.658 0.734,2.027 2.149,7.369 2.194,11.746 0.031,2.99 -1.364,7.177 -2.656,10.006 z m -19.644,-205.48 c -3.217,-1.657 -6.033,0.148 -7.126,2.94 -0.679,1.738 -0.693,3.858 0.275,5.764 4.639,9.126 15.392,32.148 26.567,18.727 8.416,-10.106 -7.493,-8.102 -2.599,-12.076 1.389,-1.128 1.149,-2.349 -4.597,-5.899 -4.148,-2.562 -8.798,-7.541 -12.52,-9.456 m 202.569,62.475 c 2.262,0.406 1.987,-0.724 0.271,-2.12 -13.067,-10.62 -10.17,-8.077 -10.905,-9.507 -0.587,-1.143 -3.107,-6.687 -3.454,-7.097 -5.148,-6.078 -8.883,-1.082 -5.67,2.778 4.054,4.872 9.736,2.252 9.854,9.27 0.07,4.148 5.255,5.84 9.904,6.676 m 108.272,-99.433 4.19,1.658 c 6.122,2.421 9.945,1.973 4.205,-3.573 -2.625,-2.535 -3.393,-2.066 -2.089,-4.866 1.818,-3.905 -0.15,-4.89 -3.644,-5.756 -5.764,-1.429 -10.613,-2.717 -9.2,4.721 0.622,3.278 2.292,6.136 6.538,7.816 M -22.423,-14.327 c -4.098,8.988 25.569,37.683 31.421,42.554 5.574,4.639 11.314,8.775 16.975,12.79 C 38.848,50.149 44.482,45.941 39.007,30.95 35.289,20.771 26.341,8.624 16.153,-2.687 7.681,-7.165 -6.43,-14.29 -16.479,-15.774 c -3.595,-0.532 -5.34,0.124 -5.944,1.447 m -121.033,-21.38 c 0.98,2.273 2.436,5.149 4.223,8.368 7.329,13.202 20.225,32.168 28.673,38.929 4.774,3.822 9.718,-0.24 7.666,-7.452 -0.876,-3.079 -1.262,-2.478 -3.522,-2.967 -5.401,-1.169 -18.598,-33.661 -19.644,-40.318 -1.006,-6.41 -1.569,-6.919 4.202,-5.234 19.59,5.72 41.056,19.622 50.31,28.705 2.52,2.475 2.012,1.211 3.437,3.607 1.917,3.224 3.639,4.611 6.259,5.606 4.629,1.759 2.694,-3.903 0.241,-6.793 -6.535,-7.698 -11.492,-18.475 -12.887,-27.269 -1.03,-6.489 -0.315,-13.248 2.997,-15.015 14.577,-7.772 56.045,23.742 69.063,36.043 -7.317,-3.715 -23.707,-13.618 -29.913,-13.619 -15.684,-10e-4 -11.01,23.724 -7.047,32.893 10.531,24.359 45.969,61.224 72.956,67.631 4.701,1.117 8.917,0.779 11.648,-2.439 2.98,-3.513 2.784,-9.638 3.99,-18.677 C 50.321,37.867 42.6,22.837 30.467,5.937 c 3.161,2.125 6.529,4.503 10.381,7.282 3.444,3.634 6.908,6.55 10.285,8.306 10.466,5.447 8.013,-8.932 6.98,-9.863 C 56.621,10.317 54.202,8.59 50.761,5.484 44.839,0.137 24.989,-31.885 28.454,-36.363 c 8.073,-10.432 75.149,25.268 86.154,33.568 4.44,3.347 8.079,7.428 3.726,0.034 -2.691,-4.572 -9.278,-8.38 -13.123,-15.131 l -0.6,-4.772 C 89.564,-34.41 45.244,-72.399 25.328,-70.699 c -5.711,0.488 -9.093,3.909 -13.015,8.436 -7.132,8.787 -6.326,17.171 -2.792,26.303 4.476,11.564 12.602,24.222 19.698,34.476 -2.86,-1.965 -5.774,-3.856 -8.729,-5.678 -31.16,-41.421 -80.674,-82.8 -96.449,-77.192 -4.223,1.5 -8.302,11.153 -9.79,19.451 -2.347,13.088 4.633,25.257 10.544,38.733 -14.546,-15.92 -51.545,-54.603 -63.689,-48.685 -11.659,5.683 -8.919,29.042 -4.562,39.148 m -191.476,-53.441 c -5.989,-4.74 -8.743,-2.603 -9.38,0.049 -0.601,2.495 0.705,5.352 1.908,6.261 2.853,7.822 6.427,9.106 8.725,7.127 5.597,-4.821 2.496,-9.186 -1.253,-13.437 M -81.659,50.067 c 1.509,1.036 3.184,1.444 5.136,0.63 l 1.556,-0.282 5.97,3.503 c 4.757,2.793 10.714,4.011 13.107,-1.849 0.684,-1.673 1.498,-3.351 2.267,-5.028 1.867,-4.083 -1.178,-4.047 -4.391,-5.129 -11.267,-3.794 -21.287,-10.261 -31.438,-16.796 -5.214,-3.357 -3.835,-1.983 -7.044,-6.635 -0.859,-1.246 -2.071,-1.705 -3.49,0.051 -1.343,1.66 -2.732,5.454 0.805,4.508 l -0.11,3.724 c 2.784,4.573 13.442,20.43 17.632,23.303 m -265.233,-122.405 -0.081,-0.083 c -1.916,-1.933 -3.463,-0.638 -3.127,1.147 0.093,0.486 0.323,1.008 0.725,1.51 0.33,0.414 0.776,0.814 1.354,1.171 l 0.41,0.233 0.149,0.076 0.158,0.078 0.015,0.021 c 0.122,0.17 0.242,0.322 0.357,0.456 l 0.048,0.055 c 1.356,1.527 2.203,0.57 1.872,-1.177 1.116,-0.534 -1.185,-2.757 -1.88,-3.487 m 19.629,-11.57 c 0.274,-0.218 0.515,0.138 1.222,0.512 1.264,0.668 2.536,0.918 2.396,-0.905 -0.166,-2.162 -2.597,-4.564 -4.392,-4.981 -1.704,-0.396 -3.467,0.185 -2.932,2.382 0.493,2.024 1.383,2.441 1.944,2.847 0.555,0.403 0.837,0.883 1.762,0.145 m 185.342,128.03 c 2.413,8.5 3.44,16.048 1.213,19.49 -24.883,16.412 -119.12,-41.573 -144.029,-58.287 -1.385,-0.929 -3.323,-2.579 -0.487,-2.438 3.455,0.171 4.062,-0.771 0.038,-3.544 l -18.702,-13.046 c -8.302,-6.467 -12.241,-3.706 -12.841,5.456 0.849,4.879 2.004,9.629 3.467,14.246 2.117,6.689 3.319,14.464 9.051,18.624 35.555,25.812 92.108,52.088 134.836,57.354 12.232,1.507 23.92,1.252 32.567,-2.414 7.281,-3.087 13.394,-12.98 15.144,-20.576 2.628,-11.405 -1.14,-25.562 -7.008,-39.289 -13.865,-32.427 -32.109,-57.093 -59.121,-80.654 -25.468,-22.214 -89.415,-61.157 -115.353,-37.532 -4.527,4.123 -3.756,15.419 -2.177,20.768 l -5.311,5.441 c -4.074,4.173 -7.737,9.683 1.532,4.663 15.214,-8.238 26.997,-10.772 40.065,-9.253 2.815,-2.726 7.921,-7.823 11.139,-6.63 2.705,1.003 2.833,6.236 3.152,8.806 -2.81,-4.723 -3.284,-6.885 -7.789,-1.839 -2.832,3.171 -5.122,7.37 -6.936,10.387 -6.83,15.805 42.851,77.481 70.875,104.167 7.088,6.75 11.605,10.13 19.86,14.012 8.358,3.932 4.747,-10.896 3.489,-14.368 -1.608,-4.44 -2.719,-3.665 -7.209,-4.069 -7.389,-7.289 -14.056,-14.563 -20.523,-22.464 -16.751,-20.47 -28.977,-41.501 -42.36,-66.751 -3.16,-6.091 -6.096,-12.406 -9.182,-18.451 7.677,2.355 15.491,5.905 23.796,10.324 39.885,24.655 75.795,62.043 88.804,107.867 M 45.676,-150.185 c 1.362,1.239 0.426,1.642 2.319,1.82 2.73,0.26 4.948,-3.884 6.669,-8.49 l -1.87,-3.728 -11.36,-22.625 c -1.955,-4.871 -6.915,-11.401 2.057,-9.659 17.788,3.454 72.169,34.444 89.214,49.068 4.165,3.573 6.957,3.945 4.781,-2.193 -10.11,-28.51 -88.641,-87.549 -106.267,-81.245 -4.893,1.748 -10.735,16.318 -11.343,21.356 -0.614,5.079 0.479,9.924 3.137,15.663 0.797,1.722 1.735,3.526 2.81,5.44 4.161,7.409 1.782,2.21 5.65,9.806 -14.277,-15.837 -60.138,-66.464 -75.013,-66.69 -5.049,-0.254 -9.711,2.925 -14.034,11.698 -4.985,10.111 -2.697,23.732 0.793,32.677 3.261,8.362 9.285,19.037 13.714,27.032 1.432,2.376 3.367,5.313 6.24,9.335 -8.372,-10.473 -8.538,-11.096 -12.332,-16.075 -6.806,-8.134 -14.24,-17.308 -20.528,-24.706 -5.279,-6.213 -14.914,-18.993 -24.073,-17.334 -10.321,1.869 -15.923,18.177 -14.03,28.406 2.807,10.175 8.075,24.511 12.091,34.146 -18.097,-26.287 -44.943,-65.201 -61.154,-76.979 -8.441,-6.133 -13.633,-8.669 -20.688,-0.058 -4.208,5.137 -5.792,12.882 -5.604,19.615 0.15,5.321 3.575,15.624 7.267,24.477 -14.29,-18.298 -43.143,-51.833 -53.16,-50.793 -7.43,1.124 -13.921,18.338 -13.593,25.608 0.527,11.66 19.259,38.383 26.932,49.887 l -9.093,-10.122 c -8.853,-8.669 -17.888,-5.945 -22.168,8.544 19.153,-2.09 23.22,2.881 43.926,13.453 l -0.001,-0.018 c 6.024,2.706 6.492,-7.439 5.262,-10.408 -0.992,-2.395 -1.581,-3.317 -3.213,-2.736 -4.743,-5.689 -24.677,-38.512 -22.054,-45.505 3.566,-9.509 49.375,31.419 54.61,37.253 l 0.867,0.978 c 3.105,4.679 6.889,11.736 10.356,14.452 4.672,3.659 7.469,0.071 3.585,-6.479 -1.894,-3.193 -4.003,-3.881 -5.897,-7.075 -4.625,-8.116 -7.415,-12.386 -9.162,-18.494 -1.076,-3.765 -5.106,-17.821 0.962,-18.453 22.157,-2.316 73.914,65.493 90.102,92.58 2.629,4.401 6.206,7.682 9.871,5.341 6.003,-3.834 12.382,-19.155 9.011,-22.195 -6.949,-4.356 -36.457,-53.219 -30.097,-58.455 1.413,-1.163 4.941,0.582 9.008,2.959 27.412,16.025 52.167,45.554 75.701,68.373 12.985,12.591 26.714,21.915 39.361,23.829 5.975,0.189 11.083,-2.256 13.603,-9.495 3.052,-8.767 5.319,-15.402 4.919,-21.511 -0.306,-4.666 -5.817,-18.129 -8.084,-22.275 m -82.302,-63.133 c 0.272,18.021 23.802,50.979 36.298,65.678 16.459,19.36 37.975,36.208 46.508,30.495 9.921,-16.027 -85.016,-117.688 -82.806,-96.173 m -179.925,109.235 c -2.452,-1.49 -4.899,-3.717 -7.312,-6.451 27.607,5.418 55.506,9.219 85.474,11.382 14.824,1.069 11.673,-6.635 -0.745,-7.679 -30.561,-2.569 -63.29,-9.338 -95.446,-18.988 -6.078,-10.2 -11.583,-21.6 -15.941,-29.693 -22.771,-42.286 -44.034,-84.612 -55.436,-124.457 -0.732,-2.559 -2.284,-15.013 -2.331,-15.116 -0.684,-1.528 -3.779,-1.628 -7.981,2.623 -4.431,4.486 -8.326,10.937 -10.819,16.697 -8.085,18.669 39.067,93.554 68.944,137.35 l 16.558,10.654 c -28.114,-9.371 -55.225,-19.72 -81.886,-32.801 -7.331,-3.597 -14.252,-7.458 -20.658,-11.651 l 3.73,1.623 10.358,3.917 c 5.145,1.944 2.543,-0.632 -0.449,-2.092 l -18.167,-8.862 c -12.949,-7.271 -6.551,7.241 -4.154,13.704 3.775,10.175 7.819,20.538 17.389,23.624 33.142,10.686 63.774,19.416 94.31,26.165 2.821,3.877 5.838,7.408 8.919,11.082 6.427,7.666 10.338,10.966 15.643,-1.031 m -140.007,-84.433 c 2.676,-1.54 6.54,-1.247 12.037,1.789 l 18.1,8.83 c 1.901,0.927 3.849,2.342 4.828,3.427 l 0.011,-0.01 c 1.063,1.184 1.68,2.582 1.718,4.143 0.004,0.148 0.004,0.295 10e-4,0.438 l 0.46,0.227 c 13.023,6.388 26.349,12.188 39.998,17.591 2.362,0.935 4.72,1.853 7.074,2.756 -15.914,-23.991 -34.219,-53.316 -46.608,-78 -9.516,-18.956 -15.523,-35.568 -14.506,-45.939 0.519,-5.299 5.586,-14.932 8.144,-18.88 1.967,-3.035 4.188,-5.911 6.563,-8.316 2.089,-2.114 4.095,-3.483 5.872,-4.278 1.66,-0.743 3.243,-1.041 4.652,-0.996 2.114,0.071 3.879,0.856 5.177,2.139 0.637,0.629 1.143,1.362 1.51,2.179 v 0.023 c 0.341,0.768 0.477,1.741 0.677,3.245 0.449,3.352 1.461,10.921 1.943,12.606 5.632,19.683 13.689,39.955 23.143,60.512 7.724,16.796 16.447,33.913 25.572,51.114 1.593,-4.604 3.707,-8.178 6.194,-10.717 1.854,-1.895 3.925,-3.235 6.165,-4.022 -5.585,-9.636 -10.179,-19.293 -10.469,-25.714 -0.191,-4.212 1.389,-10.956 4.016,-16.9 0.83,-2.394 1.845,-4.777 3,-6.954 3.172,-5.977 7.647,-10.835 12.982,-11.642 l 0.266,-0.022 c 6.04,-0.627 14.822,5.478 24.096,14.339 4.969,4.748 10.248,10.357 15.333,16.077 0.238,-2.375 0.672,-4.761 1.326,-7.051 0.504,-1.765 1.138,-3.487 1.914,-5.128 1.114,-3.471 2.752,-6.742 5.003,-9.49 4.91,-5.994 9.552,-8.07 14.783,-7.546 4.585,0.459 8.7,3.011 13.645,6.603 8.586,6.239 19.736,19.33 31.048,34.227 2.415,3.182 4.832,6.435 7.228,9.711 0.38,-4.097 1.442,-8.337 3.11,-12.13 l 0.289,-0.639 c 0.378,-1.154 0.809,-2.285 1.289,-3.377 3.141,-7.141 8.495,-12.998 15.729,-14.336 l 0.063,-0.007 c 11.164,-2.022 20.9,9.09 27.229,16.658 -0.083,-0.997 -0.138,-2.001 -0.162,-3.007 -0.143,-5.884 0.754,-11.856 3.287,-17.163 0.471,-1.488 1.046,-2.942 1.739,-4.349 2.551,-5.175 5.322,-8.797 8.302,-11.168 3.505,-2.789 7.204,-3.882 11.093,-3.687 7.787,0.392 21.46,11.226 35.629,24.673 6.752,6.408 13.759,13.501 20.273,20.281 l 0.019,-0.152 c 0.309,-2.569 1.688,-7.076 3.583,-11.487 0.985,-2.759 2.254,-5.739 3.663,-8.389 2.539,-4.782 5.806,-8.903 9.411,-10.19 l 0.016,-0.006 h 0.023 c 10.713,-3.799 36.815,9.873 61.222,28.396 6.36,4.827 12.659,9.995 18.581,15.268 -0.263,-0.791 -0.466,-1.597 -0.622,-2.416 -0.861,-4.54 -0.325,-7.571 1.263,-9.531 0.509,-4.14 3.08,-6.106 6.967,-6.844 2.918,-0.553 5.969,0.203 9.283,1.025 l 0.204,0.051 c 2.802,0.695 5.103,1.569 6.818,3.63 1.875,2.252 2.466,4.865 1.341,8.267 l 0.155,0.149 c 2.384,2.303 3.725,4.318 4.24,6.013 0.751,2.471 0.279,4.573 -1.228,6.312 -0.017,1.576 -0.613,2.968 -1.723,4.18 -1.264,1.379 -2.921,2.105 -4.88,2.236 -2.094,0.139 -5.043,-0.509 -8.22,-1.766 l -2.754,-1.09 c 11.163,11.177 19.757,22.157 22.832,30.756 v 0.023 l 0.023,0.062 c 0.959,2.704 1.242,4.858 0.995,6.508 -0.212,1.409 -0.728,2.568 -1.52,3.493 -0.013,0.18 -0.033,0.355 -0.059,0.524 -0.353,2.354 -1.556,4.013 -3.478,5.041 -1.622,0.867 -3.387,1.006 -5.248,0.495 -1.827,-0.502 -3.944,-1.796 -6.101,-3.646 -8.628,-7.403 -27.383,-19.271 -45.867,-29.437 -12.099,-6.655 -23.948,-12.52 -32.543,-15.819 3.94,7.846 7.88,15.692 11.816,23.539 l -0.862,2.308 c -0.326,0.871 -0.671,1.732 -1.038,2.571 l -0.541,1.447 c -1.155,3.091 -3.315,7.432 -5.071,9.619 2.124,15.767 6.139,21.57 0.871,36.708 -0.344,0.99 -0.73,1.918 -1.154,2.785 l -0.424,1.232 c -1.608,4.619 -4.109,7.875 -7.227,10.052 -3.517,2.454 -7.592,3.382 -11.913,3.246 l -0.473,-0.015 -0.194,-0.029 c -3.835,-0.58 -7.734,-1.752 -11.659,-3.425 0.181,0.959 0.13,1.931 -0.168,2.902 -0.278,0.916 -0.712,1.707 -1.306,2.361 -0.013,0.55 -0.102,1.103 -0.272,1.656 -0.576,1.891 -1.812,3.25 -3.761,3.964 -1.162,0.425 -2.59,0.536 -4.276,0.233 -2.834,-0.51 -5.894,-1.315 -8.426,-2.719 -3.577,-1.983 -6.072,-4.954 -6.148,-9.45 -0.005,-0.328 -0.416,-0.487 -0.92,-0.68 -2.362,-0.909 -5.026,-1.934 -7.622,-5.054 -2.526,-3.036 -3.005,-6.669 -2.057,-9.47 0.281,-0.829 0.68,-1.595 1.19,-2.279 0.071,-0.604 0.203,-1.188 0.388,-1.739 0.339,-1 0.853,-1.911 1.523,-2.695 -5.632,-5.499 -11.315,-11.34 -17.085,-17.271 -16.672,-17.138 -34.104,-35.056 -52.525,-46.821 1.265,2.586 2.743,5.47 4.327,8.472 5.807,11 13.232,22.628 17.99,28.407 1.132,1.375 1.923,2.243 2.259,2.454 l 0.524,0.328 0.276,0.25 c 0.5,0.451 0.95,0.995 1.352,1.624 2.081,3.257 1.648,8.663 -0.285,13.986 -0.36,0.993 -0.774,2.003 -1.231,3.009 -0.109,0.336 -0.225,0.672 -0.347,1.008 -1.611,4.435 -4.274,9.216 -7.17,12.428 -1.125,1.248 -2.355,2.329 -3.663,3.165 l -0.284,0.181 c -3.79,2.265 -7.444,1.897 -10.803,-0.111 -2.394,-1.432 -4.478,-3.779 -6.19,-6.458 -0.239,-0.375 -0.41,-0.648 -0.513,-0.822 -9.435,-15.787 -31.165,-45.651 -51.864,-66.918 -11.166,-11.474 -21.678,-20.302 -28.926,-22.457 0.493,2.726 1.261,5.413 1.642,6.744 v 0.018 l 0.005,-0.001 c 1.303,4.558 3.374,8.146 6.585,13.708 l 1.993,3.455 0.005,-0.003 c 0.566,0.955 1.291,1.657 2.015,2.359 1.277,1.238 2.554,2.477 3.882,4.716 2.154,3.634 2.874,6.969 2.559,9.489 -0.563,4.501 -3.621,10.792 -8.928,11.03 -2.2,0.099 -4.705,-0.724 -7.179,-2.662 -3.419,-2.677 -6.459,-7.574 -9.235,-12.047 -0.78,-1.255 -1.538,-2.475 -2.185,-3.464 l -0.558,-0.631 c -3.018,-3.348 -19.592,-18.395 -33.557,-28.464 -2.117,-1.526 -4.154,-2.923 -6.046,-4.126 0.311,0.659 0.635,1.335 0.969,2.023 4.644,9.581 11.196,20.353 14.715,25.355 1.046,0.315 2.017,0.93 2.971,1.848 1.195,1.15 1.898,2.535 2.679,4.42 0.706,1.704 1.103,4.65 0.903,7.479 1.435,-0.081 2.942,0.147 4.482,0.751 0.356,0.138 0.732,0.309 1.126,0.513 2.501,1.287 5.014,3.402 7.579,5.562 1.837,1.546 3.707,3.12 5.318,4.116 3.6,2.223 5.63,3.947 6.687,5.504 1.266,1.863 1.749,3.433 1.637,4.821 0.25,0.178 0.501,0.371 0.755,0.581 3.296,2.746 5.2,6.461 1.902,12.139 -0.385,2.1 -1.602,4.537 -3.984,7.398 -0.185,0.221 -0.369,0.436 -0.553,0.645 9.484,1.5 18.844,2.653 28.006,3.423 6.315,0.531 11.094,2.712 13.413,5.085 1.56,1.596 2.394,3.478 2.43,5.505 0.031,1.729 -0.488,3.308 -1.592,4.656 -0.134,2.116 -1.136,3.981 -3.075,5.437 -2.295,1.722 -6.547,2.811 -12.877,2.355 -14.987,-1.082 -29.566,-2.588 -43.956,-4.515 -9.627,-1.289 -19.052,-2.749 -28.344,-4.379 l -0.258,0.582 c -1.68,3.799 -3.421,6.53 -5.276,8.356 13.68,8.072 25.885,16.99 34.144,24.194 13.149,11.47 24.275,23.201 33.86,35.93 l -0.064,-0.147 c -2.813,-6.525 -5.026,-17.962 -3.895,-27.67 0.432,-3.715 1.34,-7.237 2.855,-10.295 1.674,-5.492 4.792,-10.065 9.917,-12.562 8.66,-4.221 23.012,4.71 37.148,16.976 3.633,3.152 7.291,6.53 10.837,9.936 -0.185,-2.874 -0.052,-5.806 0.49,-8.829 0.762,-4.25 2.138,-8.829 3.862,-12.711 0.716,-2.061 1.534,-4.037 2.426,-5.809 2.28,-4.531 5.281,-8.067 8.772,-9.307 9.701,-3.448 27.35,5.454 46.507,20.786 10.141,8.116 20.916,18.073 31.233,28.884 -0.243,-1.823 -0.328,-3.649 -0.223,-5.491 0.193,-3.388 1.011,-6.731 2.638,-10.066 1.031,-3.425 2.832,-6.827 5.605,-10.242 L 9.6,-69.994 c 2.217,-2.56 4.305,-4.824 6.793,-6.622 2.855,-2.066 6.035,-3.428 10.046,-3.771 19.754,-1.687 57.337,28.476 76.697,44.013 2.752,2.208 5.151,4.134 6.546,5.223 l 1.839,1.436 0.74,5.882 c 1.699,2.624 4.065,4.884 6.224,6.946 2.455,2.345 4.702,4.49 6.32,7.24 2.909,4.942 3.682,12.737 -1.711,15.91 -3.692,2.173 -6.101,0.186 -9.333,-2.476 -0.683,-0.562 -1.462,-1.204 -2.577,-2.045 -6.553,-4.942 -33.786,-19.974 -55.732,-28.524 -7.838,-3.054 -14.654,-5.411 -18.703,-6.212 1.043,1.749 2.351,3.991 3.705,6.532 5.272,9.888 12.663,20.972 15.689,23.703 2.049,1.851 3.639,3.13 4.899,4.145 1,0.804 1.83,1.472 2.452,2.033 1.153,1.039 3.17,6.516 2.836,10.844 -0.129,1.675 -0.505,3.373 -1.244,4.897 -0.183,0.377 -0.385,0.74 -0.607,1.088 -0.207,1.011 -0.522,2.002 -0.971,2.929 -1.001,2.061 -2.564,3.719 -4.882,4.628 -1.395,0.548 -2.966,0.77 -4.733,0.556 2.124,5.598 3.053,10.57 2.509,14.648 -1.117,8.373 -1.048,14.117 -4.682,22.172 -0.556,1.232 -1.262,2.378 -2.178,3.457 -2.306,2.717 -5.186,4.21 -8.443,4.78 -2.804,0.491 -5.796,0.254 -8.854,-0.472 C 18.552,69.695 3.104,59.42 -10.51,46.8 -25.636,32.779 -38.721,15.628 -44.603,2.023 c -2.082,-4.816 -4.338,-13.222 -4.337,-20.794 0,-3.738 0.521,-7.351 1.812,-10.431 0.223,-0.529 0.466,-1.044 0.731,-1.541 0.234,-0.856 0.515,-1.684 0.848,-2.476 1.244,-2.968 3.15,-5.455 5.896,-7.181 -2.636,-1.602 -5.276,-3.107 -7.868,-4.459 -8.405,-4.387 -15.937,-7.162 -20.125,-6.122 -0.094,1.718 0.027,3.636 0.331,5.549 0.62,3.909 2.075,8.334 4.13,12.685 2.014,4.262 4.583,8.382 7.489,11.804 1.711,2.016 3.271,5.047 3.736,7.47 0.594,3.098 -0.86,5.449 -1.742,8.231 -1.425,4.5 -5.991,5.675 -10.152,4.095 -1.927,-0.733 -3.561,-1.641 -5.127,-3.013 -1.476,-1.293 -2.754,-2.884 -4.023,-5.018 -0.287,-0.483 0.114,-0.183 -0.06,-0.314 -0.494,-0.368 -1.217,-0.91 -2.465,-2.136 -4.719,-4.632 -12.92,-10.656 -22.477,-16.108 -5.906,-3.369 -12.276,-6.49 -18.592,-8.889 1.883,5.144 4.684,11.854 7.56,17.757 2.822,5.793 5.151,10.408 5.401,10.462 0.215,0.047 0.482,0.087 0.711,0.121 4.165,0.63 5.364,0.811 7.082,6.849 0.984,3.46 0.853,6.609 -0.028,9.149 1.481,0.146 2.77,0.722 3.879,1.618 h 0.022 c 0.635,0.513 1.21,1.164 1.724,1.908 l 1.107,1.606 c 0.564,0.835 0.839,1.242 0.86,1.262 0.061,0.058 0.496,0.33 1.344,0.86 0.512,0.319 1.141,0.712 2.131,1.35 l 0.151,0.097 c 9.815,6.318 19.511,12.561 30.02,16.099 0.271,0.091 0.782,0.236 1.268,0.373 0.94,0.266 1.809,0.511 2.823,0.975 4.478,2.049 6.666,4.944 3.657,11.52 -1.614,3.529 -2.691,7.322 -4.668,10.691 -2.074,3.534 -5.062,5.258 -8.464,5.729 -2.824,0.392 -5.752,-0.184 -8.48,-1.298 -1.102,-0.45 -2.239,-1.029 -3.368,-1.691 l -3.998,-2.347 c -1.459,0.388 -2.87,0.446 -4.239,0.237 -1.76,-0.268 -3.331,-0.962 -4.759,-1.942 -2.225,-1.526 -5.306,-5.109 -8.395,-9.192 -4.382,-5.791 -9.125,-12.96 -10.883,-15.846 l -0.872,-1.434 0.035,-1.212 c -0.808,-0.755 -1.379,-1.704 -1.748,-2.803 -0.435,-1.303 -0.469,-2.656 -0.218,-3.966 0.098,-0.515 0.254,-1.051 0.448,-1.584 -0.224,0.008 -0.449,0.009 -0.677,0.002 -2.314,-0.069 -4.719,-0.925 -6.946,-2.709 l 0.009,-0.011 c -4.013,-3.215 -8.742,-8.646 -13.415,-14.871 1.965,3.989 3.847,8.092 5.656,12.323 3.06,7.157 5.586,14.491 7.024,21.627 1.5,7.437 1.8,14.625 0.296,21.154 -0.513,2.227 -1.338,4.613 -2.417,6.99 -1.313,3.967 -3.456,8.183 -6.143,11.834 -3.119,4.237 -7.069,7.85 -11.498,9.727 -4.704,1.994 -10.068,3.104 -15.822,3.53 -6.188,0.458 -12.856,0.142 -19.637,-0.694 -20.893,-2.574 -44.933,-10.013 -68.282,-19.945 -25.519,-10.855 -50.278,-24.716 -69.2,-38.453 -6.29,-4.566 -8.22,-11.373 -10.098,-17.993 -0.303,-1.072 -0.605,-2.138 -1.044,-3.523 -0.722,-2.281 -1.407,-4.749 -2.052,-7.402 -0.632,-2.598 -1.163,-5.131 -1.592,-7.6 l -0.111,-0.637 0.044,-0.675 c 0.349,-5.338 3.244,-15.025 8.477,-17.445 2.342,-1.084 4.966,-1.197 7.885,-0.253 2.155,0.697 4.527,2.026 7.127,4.038 l 18.526,12.924 0.003,-0.005 c 4.018,2.768 5.59,5.549 5.187,8.347 -0.034,0.234 -0.076,0.46 -0.125,0.679 14.742,9.595 42.608,26.614 69.905,39.64 -15.901,-15.655 -37.294,-40.617 -52.144,-62.443 -12.918,-18.985 -20.979,-36.332 -17.116,-45.27 l 0.172,-0.399 0.674,-1.142 c 0.101,-0.556 0.233,-1.091 0.401,-1.602 -4.573,-0.229 -9.018,0.131 -13.591,1.17 -3.92,0.891 -7.988,2.291 -12.36,4.255 -3.547,1.593 -17.663,9.489 -20.95,6.995 -3.664,-2.781 2.908,-15.827 7.203,-21.14 l 1.263,-1.294 c -0.378,-2.939 -0.506,-6.251 -0.182,-9.343 0.312,-2.978 1.045,-5.853 2.358,-8.275 0.808,-2.96 2.176,-5.614 4.293,-7.542 12.456,-11.344 31.494,-10.644 51.493,-4.137 3.773,1.228 7.592,2.667 11.412,4.27 -0.652,-0.817 -1.297,-1.644 -1.937,-2.487 -14.734,-3.298 -29.434,-7.034 -44.377,-11.208 -15.699,-4.384 -31.716,-9.26 -48.355,-14.625 -6.906,-2.227 -10.358,-5.857 -13.937,-11.533 -3.018,-4.786 -5.077,-10.184 -7.055,-15.516 -0.355,-0.957 -0.477,-1.278 -0.596,-1.589 -1.521,-3.981 -3.538,-9.261 -3.383,-13.665 -0.168,-3.966 1.722,-7.734 5.571,-11.318"
             style="fill:#000000;fill-opacity:1;fill-rule:evenodd;stroke:none"
             id="path20" />
        </g>
      </g>
    </g>
  </g>
</svg>
